ISO-10303-21;
HEADER;
/* Generated by software containing ST-Developer
 * from STEP Tools, Inc. (www.steptools.com) 
 */
/* OPTION: using custom renumber hook */

FILE_DESCRIPTION(
/* description */ ('STEP AP242 Edition 2',
'CAx-IF Rec.Pracs.---Representation and Presentation of Product Manufa
cturing Information (PMI)---4.0---2014-10-13',
'CAx-IF Rec.Pracs.---3D Tessellated Geometry---0.4---2014-09-14','2;1',
'CAx-IF Rec.Pracs.---User Defined Attributes---1.5---2016-08-15'),
/* implementation_level */ '2;1');

FILE_NAME(
/* name */ 'Arm-Servo Connector x2',
/* time_stamp */ '2026-09-01T03:58:49Z',
/* author */ (''),
/* organization */ (''),
/* preprocessor_version */ 'ST-DEVELOPER v20',
/* originating_system */ 'ONSHAPE BY PTC INC, 1.220',
/* authorisation */ '  ');

FILE_SCHEMA (('AP242_MANAGED_MODEL_BASED_3D_ENGINEERING_MIM_LF { 1 0 10303 442 3 1 4 }'));
ENDSEC;

DATA;
#10=SHAPE_REPRESENTATION_RELATIONSHIP('','',#257,#11);
#11=ADVANCED_BREP_SHAPE_REPRESENTATION('',(#255),#445);
#12=LINE('',#393,#22);
#13=LINE('',#397,#23);
#14=LINE('',#401,#24);
#15=LINE('',#410,#25);
#16=LINE('',#416,#26);
#17=LINE('',#417,#27);
#18=LINE('',#419,#28);
#19=LINE('',#420,#29);
#20=LINE('',#422,#30);
#21=LINE('',#424,#31);
#22=VECTOR('',#314,1.);
#23=VECTOR('',#317,1.);
#24=VECTOR('',#322,1.);
#25=VECTOR('',#329,1.);
#26=VECTOR('',#336,1.);
#27=VECTOR('',#337,1.);
#28=VECTOR('',#340,1.);
#29=VECTOR('',#341,1.);
#30=VECTOR('',#344,1.);
#31=VECTOR('',#347,1.);
#32=PLANE('',#265);
#33=PLANE('',#270);
#34=PLANE('',#278);
#35=PLANE('',#280);
#36=PLANE('',#284);
#37=PLANE('',#285);
#38=PLANE('',#290);
#39=PLANE('',#293);
#40=ORIENTED_EDGE('',*,*,#96,.F.);
#41=ORIENTED_EDGE('',*,*,#97,.T.);
#42=ORIENTED_EDGE('',*,*,#98,.T.);
#43=ORIENTED_EDGE('',*,*,#99,.F.);
#44=ORIENTED_EDGE('',*,*,#100,.F.);
#45=ORIENTED_EDGE('',*,*,#101,.T.);
#46=ORIENTED_EDGE('',*,*,#102,.F.);
#47=ORIENTED_EDGE('',*,*,#103,.F.);
#48=ORIENTED_EDGE('',*,*,#104,.T.);
#49=ORIENTED_EDGE('',*,*,#105,.T.);
#50=ORIENTED_EDGE('',*,*,#98,.F.);
#51=ORIENTED_EDGE('',*,*,#106,.T.);
#52=ORIENTED_EDGE('',*,*,#107,.T.);
#53=ORIENTED_EDGE('',*,*,#108,.T.);
#54=ORIENTED_EDGE('',*,*,#109,.T.);
#55=ORIENTED_EDGE('',*,*,#110,.F.);
#56=ORIENTED_EDGE('',*,*,#111,.T.);
#57=ORIENTED_EDGE('',*,*,#112,.F.);
#58=ORIENTED_EDGE('',*,*,#105,.F.);
#59=ORIENTED_EDGE('',*,*,#113,.F.);
#60=ORIENTED_EDGE('',*,*,#109,.F.);
#61=ORIENTED_EDGE('',*,*,#114,.F.);
#62=ORIENTED_EDGE('',*,*,#101,.F.);
#63=ORIENTED_EDGE('',*,*,#115,.F.);
#64=ORIENTED_EDGE('',*,*,#107,.F.);
#65=ORIENTED_EDGE('',*,*,#116,.F.);
#66=ORIENTED_EDGE('',*,*,#117,.T.);
#67=ORIENTED_EDGE('',*,*,#102,.T.);
#68=ORIENTED_EDGE('',*,*,#116,.T.);
#69=ORIENTED_EDGE('',*,*,#106,.F.);
#70=ORIENTED_EDGE('',*,*,#118,.T.);
#71=ORIENTED_EDGE('',*,*,#103,.T.);
#72=ORIENTED_EDGE('',*,*,#117,.F.);
#73=ORIENTED_EDGE('',*,*,#111,.F.);
#74=ORIENTED_EDGE('',*,*,#104,.F.);
#75=ORIENTED_EDGE('',*,*,#118,.F.);
#76=ORIENTED_EDGE('',*,*,#110,.T.);
#77=ORIENTED_EDGE('',*,*,#113,.T.);
#78=ORIENTED_EDGE('',*,*,#115,.T.);
#79=ORIENTED_EDGE('',*,*,#100,.T.);
#80=ORIENTED_EDGE('',*,*,#114,.T.);
#81=ORIENTED_EDGE('',*,*,#108,.F.);
#82=ORIENTED_EDGE('',*,*,#119,.F.);
#83=ORIENTED_EDGE('',*,*,#112,.T.);
#84=ORIENTED_EDGE('',*,*,#119,.T.);
#85=ORIENTED_EDGE('',*,*,#96,.T.);
#86=ORIENTED_EDGE('',*,*,#97,.F.);
#87=ORIENTED_EDGE('',*,*,#120,.F.);
#88=ORIENTED_EDGE('',*,*,#121,.F.);
#89=ORIENTED_EDGE('',*,*,#99,.T.);
#90=ORIENTED_EDGE('',*,*,#122,.F.);
#91=ORIENTED_EDGE('',*,*,#121,.T.);
#92=ORIENTED_EDGE('',*,*,#122,.T.);
#93=ORIENTED_EDGE('',*,*,#123,.F.);
#94=ORIENTED_EDGE('',*,*,#120,.T.);
#95=ORIENTED_EDGE('',*,*,#123,.T.);
#96=EDGE_CURVE('',#124,#124,#146,.F.);
#97=EDGE_CURVE('',#125,#125,#147,.T.);
#98=EDGE_CURVE('',#126,#126,#148,.T.);
#99=EDGE_CURVE('',#127,#127,#149,.T.);
#100=EDGE_CURVE('',#128,#129,#150,.T.);
#101=EDGE_CURVE('',#128,#130,#151,.F.);
#102=EDGE_CURVE('',#131,#130,#12,.T.);
#103=EDGE_CURVE('',#132,#131,#152,.T.);
#104=EDGE_CURVE('',#132,#133,#13,.T.);
#105=EDGE_CURVE('',#133,#129,#153,.F.);
#106=EDGE_CURVE('',#134,#135,#14,.T.);
#107=EDGE_CURVE('',#135,#136,#154,.F.);
#108=EDGE_CURVE('',#136,#137,#155,.T.);
#109=EDGE_CURVE('',#137,#138,#156,.F.);
#110=EDGE_CURVE('',#139,#138,#15,.T.);
#111=EDGE_CURVE('',#139,#134,#157,.T.);
#112=EDGE_CURVE('',#140,#140,#158,.T.);
#113=EDGE_CURVE('',#138,#133,#16,.F.);
#114=EDGE_CURVE('',#129,#137,#17,.F.);
#115=EDGE_CURVE('',#136,#128,#18,.T.);
#116=EDGE_CURVE('',#130,#135,#19,.F.);
#117=EDGE_CURVE('',#134,#131,#20,.T.);
#118=EDGE_CURVE('',#139,#132,#21,.T.);
#119=EDGE_CURVE('',#141,#141,#159,.T.);
#120=EDGE_CURVE('',#142,#142,#160,.T.);
#121=EDGE_CURVE('',#143,#143,#161,.T.);
#122=EDGE_CURVE('',#144,#144,#162,.T.);
#123=EDGE_CURVE('',#145,#145,#163,.T.);
#124=VERTEX_POINT('',#379);
#125=VERTEX_POINT('',#381);
#126=VERTEX_POINT('',#384);
#127=VERTEX_POINT('',#386);
#128=VERTEX_POINT('',#389);
#129=VERTEX_POINT('',#390);
#130=VERTEX_POINT('',#392);
#131=VERTEX_POINT('',#394);
#132=VERTEX_POINT('',#396);
#133=VERTEX_POINT('',#398);
#134=VERTEX_POINT('',#402);
#135=VERTEX_POINT('',#403);
#136=VERTEX_POINT('',#405);
#137=VERTEX_POINT('',#407);
#138=VERTEX_POINT('',#409);
#139=VERTEX_POINT('',#411);
#140=VERTEX_POINT('',#414);
#141=VERTEX_POINT('',#429);
#142=VERTEX_POINT('',#433);
#143=VERTEX_POINT('',#435);
#144=VERTEX_POINT('',#438);
#145=VERTEX_POINT('',#442);
#146=CIRCLE('',#260,0.0025);
#147=CIRCLE('',#261,0.0025);
#148=CIRCLE('',#263,0.03);
#149=CIRCLE('',#264,0.03);
#150=CIRCLE('',#266,0.007505);
#151=CIRCLE('',#267,0.02);
#152=CIRCLE('',#268,0.004005);
#153=CIRCLE('',#269,0.02);
#154=CIRCLE('',#271,0.02);
#155=CIRCLE('',#272,0.007505);
#156=CIRCLE('',#273,0.02);
#157=CIRCLE('',#274,0.004005);
#158=CIRCLE('',#275,0.0015);
#159=CIRCLE('',#283,0.0015);
#160=CIRCLE('',#286,0.0022);
#161=CIRCLE('',#287,0.0022);
#162=CIRCLE('',#289,0.0022);
#163=CIRCLE('',#292,0.0022);
#164=EDGE_LOOP('',(#40));
#165=EDGE_LOOP('',(#41));
#166=EDGE_LOOP('',(#42));
#167=EDGE_LOOP('',(#43));
#168=EDGE_LOOP('',(#44,#45,#46,#47,#48,#49));
#169=EDGE_LOOP('',(#50));
#170=EDGE_LOOP('',(#51,#52,#53,#54,#55,#56));
#171=EDGE_LOOP('',(#57));
#172=EDGE_LOOP('',(#58,#59,#60,#61));
#173=EDGE_LOOP('',(#62,#63,#64,#65));
#174=EDGE_LOOP('',(#66,#67,#68,#69));
#175=EDGE_LOOP('',(#70,#71,#72,#73));
#176=EDGE_LOOP('',(#74,#75,#76,#77));
#177=EDGE_LOOP('',(#78,#79,#80,#81));
#178=EDGE_LOOP('',(#82));
#179=EDGE_LOOP('',(#83));
#180=EDGE_LOOP('',(#84));
#181=EDGE_LOOP('',(#85));
#182=EDGE_LOOP('',(#86));
#183=EDGE_LOOP('',(#87));
#184=EDGE_LOOP('',(#88));
#185=EDGE_LOOP('',(#89));
#186=EDGE_LOOP('',(#90));
#187=EDGE_LOOP('',(#91));
#188=EDGE_LOOP('',(#92));
#189=EDGE_LOOP('',(#93));
#190=EDGE_LOOP('',(#94));
#191=EDGE_LOOP('',(#95));
#192=FACE_BOUND('',#164,.T.);
#193=FACE_BOUND('',#165,.T.);
#194=FACE_BOUND('',#166,.T.);
#195=FACE_BOUND('',#167,.T.);
#196=FACE_BOUND('',#168,.T.);
#197=FACE_BOUND('',#169,.T.);
#198=FACE_BOUND('',#170,.T.);
#199=FACE_BOUND('',#171,.T.);
#200=FACE_BOUND('',#172,.T.);
#201=FACE_BOUND('',#173,.T.);
#202=FACE_BOUND('',#174,.T.);
#203=FACE_BOUND('',#175,.T.);
#204=FACE_BOUND('',#176,.T.);
#205=FACE_BOUND('',#177,.T.);
#206=FACE_BOUND('',#178,.T.);
#207=FACE_BOUND('',#179,.T.);
#208=FACE_BOUND('',#180,.T.);
#209=FACE_BOUND('',#181,.T.);
#210=FACE_BOUND('',#182,.T.);
#211=FACE_BOUND('',#183,.T.);
#212=FACE_BOUND('',#184,.T.);
#213=FACE_BOUND('',#185,.T.);
#214=FACE_BOUND('',#186,.T.);
#215=FACE_BOUND('',#187,.T.);
#216=FACE_BOUND('',#188,.T.);
#217=FACE_BOUND('',#189,.T.);
#218=FACE_BOUND('',#190,.T.);
#219=FACE_BOUND('',#191,.T.);
#220=CYLINDRICAL_SURFACE('',#259,0.0025);
#221=CYLINDRICAL_SURFACE('',#262,0.03);
#222=CYLINDRICAL_SURFACE('',#276,0.02);
#223=CYLINDRICAL_SURFACE('',#277,0.02);
#224=CYLINDRICAL_SURFACE('',#279,0.004005);
#225=CYLINDRICAL_SURFACE('',#281,0.007505);
#226=CYLINDRICAL_SURFACE('',#282,0.0015);
#227=CYLINDRICAL_SURFACE('',#288,0.0022);
#228=CYLINDRICAL_SURFACE('',#291,0.0022);
#229=ADVANCED_FACE('',(#192,#193),#220,.F.);
#230=ADVANCED_FACE('',(#194,#195),#221,.T.);
#231=ADVANCED_FACE('',(#196,#197),#32,.F.);
#232=ADVANCED_FACE('',(#198,#199),#33,.T.);
#233=ADVANCED_FACE('',(#200),#222,.T.);
#234=ADVANCED_FACE('',(#201),#223,.T.);
#235=ADVANCED_FACE('',(#202),#34,.F.);
#236=ADVANCED_FACE('',(#203),#224,.F.);
#237=ADVANCED_FACE('',(#204),#35,.T.);
#238=ADVANCED_FACE('',(#205),#225,.F.);
#239=ADVANCED_FACE('',(#206,#207),#226,.F.);
#240=ADVANCED_FACE('',(#208,#209),#36,.F.);
#241=ADVANCED_FACE('',(#210,#211,#212,#213),#37,.T.);
#242=ADVANCED_FACE('',(#214,#215),#227,.F.);
#243=ADVANCED_FACE('',(#216),#38,.T.);
#244=ADVANCED_FACE('',(#217,#218),#228,.F.);
#245=ADVANCED_FACE('',(#219),#39,.T.);
#246=CLOSED_SHELL('',(#229,#230,#231,#232,#233,#234,#235,#236,#237,#238,
#239,#240,#241,#242,#243,#244,#245));
#247=STYLED_ITEM('',(#248),#255);
#248=PRESENTATION_STYLE_ASSIGNMENT((#249));
#249=SURFACE_STYLE_USAGE(.BOTH.,#250);
#250=SURFACE_SIDE_STYLE('',(#251));
#251=SURFACE_STYLE_FILL_AREA(#252);
#252=FILL_AREA_STYLE('',(#253));
#253=FILL_AREA_STYLE_COLOUR('',#254);
#254=COLOUR_RGB('',0.615686274509804,0.811764705882353,0.929411764705882);
#255=MANIFOLD_SOLID_BREP('Part 1',#246);
#256=SHAPE_DEFINITION_REPRESENTATION(#450,#257);
#257=SHAPE_REPRESENTATION('Part 1',(#258),#445);
#258=AXIS2_PLACEMENT_3D('',#376,#294,#295);
#259=AXIS2_PLACEMENT_3D('',#377,#296,#297);
#260=AXIS2_PLACEMENT_3D('',#378,#298,#299);
#261=AXIS2_PLACEMENT_3D('',#380,#300,#301);
#262=AXIS2_PLACEMENT_3D('',#382,#302,#303);
#263=AXIS2_PLACEMENT_3D('',#383,#304,#305);
#264=AXIS2_PLACEMENT_3D('',#385,#306,#307);
#265=AXIS2_PLACEMENT_3D('',#387,#308,#309);
#266=AXIS2_PLACEMENT_3D('',#388,#310,#311);
#267=AXIS2_PLACEMENT_3D('',#391,#312,#313);
#268=AXIS2_PLACEMENT_3D('',#395,#315,#316);
#269=AXIS2_PLACEMENT_3D('',#399,#318,#319);
#270=AXIS2_PLACEMENT_3D('',#400,#320,#321);
#271=AXIS2_PLACEMENT_3D('',#404,#323,#324);
#272=AXIS2_PLACEMENT_3D('',#406,#325,#326);
#273=AXIS2_PLACEMENT_3D('',#408,#327,#328);
#274=AXIS2_PLACEMENT_3D('',#412,#330,#331);
#275=AXIS2_PLACEMENT_3D('',#413,#332,#333);
#276=AXIS2_PLACEMENT_3D('',#415,#334,#335);
#277=AXIS2_PLACEMENT_3D('',#418,#338,#339);
#278=AXIS2_PLACEMENT_3D('',#421,#342,#343);
#279=AXIS2_PLACEMENT_3D('',#423,#345,#346);
#280=AXIS2_PLACEMENT_3D('',#425,#348,#349);
#281=AXIS2_PLACEMENT_3D('',#426,#350,#351);
#282=AXIS2_PLACEMENT_3D('',#427,#352,#353);
#283=AXIS2_PLACEMENT_3D('',#428,#354,#355);
#284=AXIS2_PLACEMENT_3D('',#430,#356,#357);
#285=AXIS2_PLACEMENT_3D('',#431,#358,#359);
#286=AXIS2_PLACEMENT_3D('',#432,#360,#361);
#287=AXIS2_PLACEMENT_3D('',#434,#362,#363);
#288=AXIS2_PLACEMENT_3D('',#436,#364,#365);
#289=AXIS2_PLACEMENT_3D('',#437,#366,#367);
#290=AXIS2_PLACEMENT_3D('',#439,#368,#369);
#291=AXIS2_PLACEMENT_3D('',#440,#370,#371);
#292=AXIS2_PLACEMENT_3D('',#441,#372,#373);
#293=AXIS2_PLACEMENT_3D('',#443,#374,#375);
#294=DIRECTION('',(0.,0.,1.));
#295=DIRECTION('',(1.,0.,0.));
#296=DIRECTION('',(0.,0.,1.));
#297=DIRECTION('',(1.,0.,0.));
#298=DIRECTION('',(0.,0.,-1.));
#299=DIRECTION('',(-1.,0.,0.));
#300=DIRECTION('',(0.,0.,1.));
#301=DIRECTION('',(1.,0.,0.));
#302=DIRECTION('',(0.,0.,-1.));
#303=DIRECTION('',(-1.,0.,0.));
#304=DIRECTION('',(0.,0.,1.));
#305=DIRECTION('',(1.,0.,0.));
#306=DIRECTION('',(0.,0.,1.));
#307=DIRECTION('',(1.,0.,0.));
#308=DIRECTION('',(0.,0.,1.));
#309=DIRECTION('',(1.,0.,0.));
#310=DIRECTION('',(0.,0.,-1.));
#311=DIRECTION('',(-1.,0.,0.));
#312=DIRECTION('',(0.,0.,1.));
#313=DIRECTION('',(1.,0.,0.));
#314=DIRECTION('',(-1.,9.81847434451683E-17,0.));
#315=DIRECTION('',(0.,0.,-1.));
#316=DIRECTION('',(-1.,0.,0.));
#317=DIRECTION('',(-1.,4.90923717225842E-17,0.));
#318=DIRECTION('',(0.,0.,1.));
#319=DIRECTION('',(1.,0.,0.));
#320=DIRECTION('',(0.,0.,-1.));
#321=DIRECTION('',(1.,0.,0.));
#322=DIRECTION('',(-1.,9.81847434451683E-17,0.));
#323=DIRECTION('',(0.,0.,-1.));
#324=DIRECTION('',(-1.,0.,0.));
#325=DIRECTION('',(0.,0.,-1.));
#326=DIRECTION('',(-1.,0.,0.));
#327=DIRECTION('',(0.,0.,-1.));
#328=DIRECTION('',(-1.,0.,0.));
#329=DIRECTION('',(-1.,4.90923717225842E-17,0.));
#330=DIRECTION('',(0.,0.,-1.));
#331=DIRECTION('',(-1.,0.,0.));
#332=DIRECTION('',(0.,0.,-1.));
#333=DIRECTION('',(-1.,0.,0.));
#334=DIRECTION('',(0.,0.,-1.));
#335=DIRECTION('',(-1.,0.,0.));
#336=DIRECTION('',(0.,0.,1.));
#337=DIRECTION('',(0.,0.,-1.));
#338=DIRECTION('',(0.,0.,-1.));
#339=DIRECTION('',(-1.,0.,0.));
#340=DIRECTION('',(0.,0.,-1.));
#341=DIRECTION('',(0.,0.,-1.));
#342=DIRECTION('',(-9.81847434451683E-17,-1.,0.));
#343=DIRECTION('',(1.,-9.81847434451683E-17,0.));
#344=DIRECTION('',(0.,0.,-1.));
#345=DIRECTION('',(0.,0.,-1.));
#346=DIRECTION('',(-1.,0.,0.));
#347=DIRECTION('',(0.,0.,-1.));
#348=DIRECTION('',(-4.90923717225842E-17,-1.,0.));
#349=DIRECTION('',(1.,-4.90923717225842E-17,0.));
#350=DIRECTION('',(0.,0.,-1.));
#351=DIRECTION('',(-1.,0.,0.));
#352=DIRECTION('',(0.,0.,-1.));
#353=DIRECTION('',(-1.,0.,0.));
#354=DIRECTION('',(0.,0.,-1.));
#355=DIRECTION('',(-1.,0.,0.));
#356=DIRECTION('',(0.,0.,-1.));
#357=DIRECTION('',(1.,0.,0.));
#358=DIRECTION('',(0.,0.,1.));
#359=DIRECTION('',(1.,0.,0.));
#360=DIRECTION('',(0.,0.,1.));
#361=DIRECTION('',(1.,0.,0.));
#362=DIRECTION('',(0.,0.,1.));
#363=DIRECTION('',(1.,0.,0.));
#364=DIRECTION('',(0.,0.,1.));
#365=DIRECTION('',(1.,0.,0.));
#366=DIRECTION('',(0.,0.,1.));
#367=DIRECTION('',(1.,0.,0.));
#368=DIRECTION('',(0.,0.,1.));
#369=DIRECTION('',(1.,0.,0.));
#370=DIRECTION('',(0.,0.,1.));
#371=DIRECTION('',(1.,0.,0.));
#372=DIRECTION('',(0.,0.,1.));
#373=DIRECTION('',(1.,0.,0.));
#374=DIRECTION('',(0.,0.,1.));
#375=DIRECTION('',(1.,0.,0.));
#376=CARTESIAN_POINT('',(0.,0.,0.));
#377=CARTESIAN_POINT('',(0.,1.53080849893419E-19,-0.0479946926820715));
#378=CARTESIAN_POINT('',(0.,1.53080849893419E-19,0.0075));
#379=CARTESIAN_POINT('',(-0.0025,1.53080849893419E-19,0.0075));
#380=CARTESIAN_POINT('',(0.,1.53080849893419E-19,0.031));
#381=CARTESIAN_POINT('',(0.0025,1.53080849893419E-19,0.031));
#382=CARTESIAN_POINT('',(0.,1.83697019872103E-18,0.05));
#383=CARTESIAN_POINT('',(0.,1.83697019872103E-18,0.001));
#384=CARTESIAN_POINT('',(0.03,1.83697019872103E-18,0.001));
#385=CARTESIAN_POINT('',(0.,1.83697019872103E-18,0.031));
#386=CARTESIAN_POINT('',(0.03,1.83697019872103E-18,0.031));
#387=CARTESIAN_POINT('',(0.,0.,0.001));
#388=CARTESIAN_POINT('',(4.33680868994202E-19,2.16840434497101E-18,0.001));
#389=CARTESIAN_POINT('',(0.00366369105715359,-0.00654999181966915,0.001));
#390=CARTESIAN_POINT('',(0.00366369105715359,0.00654999181966915,0.001));
#391=CARTESIAN_POINT('',(0.0134270249869433,-0.024005,0.001));
#392=CARTESIAN_POINT('',(0.0134270249869433,-0.004005,0.001));
#393=CARTESIAN_POINT('',(0.015181023278629,-0.004005,0.001));
#394=CARTESIAN_POINT('',(0.024015,-0.004005,0.001));
#395=CARTESIAN_POINT('',(0.024015,0.,0.001));
#396=CARTESIAN_POINT('',(0.024015,0.004005,0.001));
#397=CARTESIAN_POINT('',(0.015181023278629,0.004005,0.001));
#398=CARTESIAN_POINT('',(0.0134270249869433,0.004005,0.001));
#399=CARTESIAN_POINT('',(0.0134270249869433,0.024005,0.001));
#400=CARTESIAN_POINT('',(0.,0.,0.0065));
#401=CARTESIAN_POINT('',(0.015181023278629,-0.004005,0.0065));
#402=CARTESIAN_POINT('',(0.024015,-0.004005,0.0065));
#403=CARTESIAN_POINT('',(0.0134270249869433,-0.004005,0.0065));
#404=CARTESIAN_POINT('',(0.0134270249869433,-0.024005,0.0065));
#405=CARTESIAN_POINT('',(0.00366369105715359,-0.00654999181966915,0.0065));
#406=CARTESIAN_POINT('',(4.33680868994202E-19,2.16840434497101E-18,0.0065));
#407=CARTESIAN_POINT('',(0.00366369105715359,0.00654999181966915,0.0065));
#408=CARTESIAN_POINT('',(0.0134270249869433,0.024005,0.0065));
#409=CARTESIAN_POINT('',(0.0134270249869433,0.004005,0.0065));
#410=CARTESIAN_POINT('',(0.015181023278629,0.004005,0.0065));
#411=CARTESIAN_POINT('',(0.024015,0.004005,0.0065));
#412=CARTESIAN_POINT('',(0.024015,0.,0.0065));
#413=CARTESIAN_POINT('',(0.,-9.18485099360515E-20,0.0065));
#414=CARTESIAN_POINT('',(-0.0015,-9.18485099360515E-20,0.0065));
#415=CARTESIAN_POINT('',(0.0134270249869433,0.024005,0.0065));
#416=CARTESIAN_POINT('',(0.0134270249869433,0.004005,0.));
#417=CARTESIAN_POINT('',(0.00366369105715359,0.00654999181966915,0.0065));
#418=CARTESIAN_POINT('',(0.0134270249869433,-0.024005,0.0065));
#419=CARTESIAN_POINT('',(0.00366369105715359,-0.00654999181966915,0.0065));
#420=CARTESIAN_POINT('',(0.0134270249869433,-0.004005,0.0065));
#421=CARTESIAN_POINT('',(0.015181023278629,-0.004005,0.0065));
#422=CARTESIAN_POINT('',(0.024015,-0.004005,0.0065));
#423=CARTESIAN_POINT('',(0.024015,0.,0.0065));
#424=CARTESIAN_POINT('',(0.024015,0.004005,0.0065));
#425=CARTESIAN_POINT('',(0.015181023278629,0.004005,0.0065));
#426=CARTESIAN_POINT('',(4.33680868994202E-19,2.16840434497101E-18,0.0065));
#427=CARTESIAN_POINT('',(0.,-9.18485099360515E-20,0.0075));
#428=CARTESIAN_POINT('',(0.,-9.18485099360515E-20,0.0075));
#429=CARTESIAN_POINT('',(-0.0015,-9.18485099360515E-20,0.0075));
#430=CARTESIAN_POINT('',(0.0102575,1.7347234759768E-18,0.0075));
#431=CARTESIAN_POINT('',(0.,0.,0.031));
#432=CARTESIAN_POINT('',(-1.34711147906209E-19,-0.016,0.031));
#433=CARTESIAN_POINT('',(0.0022,-0.016,0.031));
#434=CARTESIAN_POINT('',(-1.34711147906209E-19,0.016,0.031));
#435=CARTESIAN_POINT('',(0.0022,0.016,0.031));
#436=CARTESIAN_POINT('',(-1.34711147906209E-19,0.016,0.023));
#437=CARTESIAN_POINT('',(-1.34711147906209E-19,0.016,0.024));
#438=CARTESIAN_POINT('',(0.0022,0.016,0.024));
#439=CARTESIAN_POINT('',(0.,0.,0.024));
#440=CARTESIAN_POINT('',(-1.34711147906209E-19,-0.016,0.023));
#441=CARTESIAN_POINT('',(-1.34711147906209E-19,-0.016,0.024));
#442=CARTESIAN_POINT('',(0.0022,-0.016,0.024));
#443=CARTESIAN_POINT('',(0.,0.,0.024));
#444=MECHANICAL_DESIGN_GEOMETRIC_PRESENTATION_REPRESENTATION('',(#247),
#445);
#445=(
GEOMETRIC_REPRESENTATION_CONTEXT(3)
GLOBAL_UNCERTAINTY_ASSIGNED_CONTEXT((#446))
GLOBAL_UNIT_ASSIGNED_CONTEXT((#449,#448,#447))
REPRESENTATION_CONTEXT('Part 1','TOP_LEVEL_ASSEMBLY_PART')
);
#446=UNCERTAINTY_MEASURE_WITH_UNIT(LENGTH_MEASURE(1.E-8),#449,
'DISTANCE_ACCURACY_VALUE','Maximum Tolerance applied to model');
#447=(
NAMED_UNIT(*)
SI_UNIT($,.STERADIAN.)
SOLID_ANGLE_UNIT()
);
#448=(
NAMED_UNIT(*)
PLANE_ANGLE_UNIT()
SI_UNIT($,.RADIAN.)
);
#449=(
LENGTH_UNIT()
NAMED_UNIT(*)
SI_UNIT($,.METRE.)
);
#450=PRODUCT_DEFINITION_SHAPE('','',#451);
#451=PRODUCT_DEFINITION('','',#453,#452);
#452=PRODUCT_DEFINITION_CONTEXT('',#459,'design');
#453=PRODUCT_DEFINITION_FORMATION_WITH_SPECIFIED_SOURCE('','',#455,
 .NOT_KNOWN.);
#454=PRODUCT_RELATED_PRODUCT_CATEGORY('','',(#455));
#455=PRODUCT('Part 1','Part 1','Part 1',(#457));
#456=PRODUCT_CATEGORY('','');
#457=PRODUCT_CONTEXT('',#459,'mechanical');
#458=APPLICATION_PROTOCOL_DEFINITION('international standard',
'ap242_managed_model_based_3d_engineering',2020,#459);
#459=APPLICATION_CONTEXT('managed model based 3d engineering');
ENDSEC;
END-ISO-10303-21;
