ISO-10303-21;
HEADER;
/* Generated by software containing ST-Developer
 * from STEP Tools, Inc. (www.steptools.com) 
 */
/* OPTION: using custom renumber hook */

FILE_DESCRIPTION(
/* description */ ('STEP AP242 Edition 2',
'CAx-IF Rec.Pracs.---Representation and Presentation of Product Manufa
cturing Information (PMI)---4.0---2014-10-13',
'CAx-IF Rec.Pracs.---3D Tessellated Geometry---0.4---2014-09-14','2;1',
'CAx-IF Rec.Pracs.---User Defined Attributes---1.5---2016-08-15'),
/* implementation_level */ '2;1');

FILE_NAME(
/* name */ 'Base Body',
/* time_stamp */ '2026-09-01T03:58:05Z',
/* author */ (''),
/* organization */ (''),
/* preprocessor_version */ 'ST-DEVELOPER v20',
/* originating_system */ 'ONSHAPE BY PTC INC, 1.220',
/* authorisation */ '  ');

FILE_SCHEMA (('AP242_MANAGED_MODEL_BASED_3D_ENGINEERING_MIM_LF { 1 0 10303 442 3 1 4 }'));
ENDSEC;

DATA;
#10=CYLINDRICAL_SURFACE('',#706,0.071);
#11=CYLINDRICAL_SURFACE('',#709,0.072);
#12=CYLINDRICAL_SURFACE('',#712,0.0725);
#13=CYLINDRICAL_SURFACE('',#717,0.0675);
#14=CYLINDRICAL_SURFACE('',#729,0.0023);
#15=CYLINDRICAL_SURFACE('',#735,0.0023);
#16=CYLINDRICAL_SURFACE('',#740,0.0023);
#17=CYLINDRICAL_SURFACE('',#743,0.0023);
#18=CYLINDRICAL_SURFACE('',#755,0.0308397007475144);
#19=CYLINDRICAL_SURFACE('',#768,0.0022);
#20=CYLINDRICAL_SURFACE('',#770,0.0022);
#21=CYLINDRICAL_SURFACE('',#772,0.0022);
#22=CYLINDRICAL_SURFACE('',#777,0.0022);
#23=B_SPLINE_CURVE_WITH_KNOTS('',3,(#1006,#1007,#1008,#1009,#1010,#1011,
#1012,#1013,#1014,#1015,#1016,#1017),.UNSPECIFIED.,.F.,.F.,(4,1,1,1,1,1,
1,1,1,4),(0.,0.00407401981590639,0.00814803963181278,0.0122220594477192,
0.0142590693556724,0.0162960792636256,0.0203700990795319,0.0244441188954383,
0.0285181387113447,0.0325921585272511),.UNSPECIFIED.);
#24=B_SPLINE_CURVE_WITH_KNOTS('',3,(#1032,#1033,#1034,#1035,#1036,#1037,
#1038,#1039,#1040,#1041,#1042),.UNSPECIFIED.,.F.,.F.,(4,1,1,1,1,1,1,1,4),
(3.46944695195361E-18,0.00415016672581608,0.00830033345163215,0.0124505001774482,
0.0166006669032643,0.0207508336290804,0.0249010003548964,0.0290511670807125,
0.0332013338065286),.UNSPECIFIED.);
#25=B_SPLINE_CURVE_WITH_KNOTS('',3,(#1067,#1068,#1069,#1070,#1071,#1072,
#1073,#1074,#1075,#1076,#1077,#1078),.UNSPECIFIED.,.F.,.F.,(4,1,1,1,1,1,
1,1,1,4),(0.,0.00407426290053911,0.00814852580107822,0.0122227887016173,
0.0142599201518869,0.0162970516021564,0.0203713145026955,0.0244455774032347,
0.0285198403037738,0.0325941032043129),.UNSPECIFIED.);
#26=B_SPLINE_CURVE_WITH_KNOTS('',3,(#1084,#1085,#1086,#1087,#1088,#1089,
#1090,#1091,#1092,#1093,#1094,#1095),.UNSPECIFIED.,.F.,.F.,(4,1,1,1,1,1,
1,1,1,4),(0.,0.010017867848221,0.0150268017723316,0.0200357356964421,0.0250446696205526,
0.0275491365826079,0.0300536035446631,0.0325580705067184,0.0350625374687736,
0.0400714713928841),.UNSPECIFIED.);
#27=B_SPLINE_CURVE_WITH_KNOTS('',3,(#1146,#1147,#1148,#1149),
 .UNSPECIFIED.,.F.,.F.,(4,4),(0.,0.00473597983592972),.UNSPECIFIED.);
#28=SHAPE_REPRESENTATION_RELATIONSHIP('','',#689,#30);
#29=SHAPE_REPRESENTATION_RELATIONSHIP('','',#690,#31);
#30=ADVANCED_BREP_SHAPE_REPRESENTATION('',(#685),#1226);
#31=ADVANCED_BREP_SHAPE_REPRESENTATION('',(#686),#1227);
#32=PLANE('',#694);
#33=PLANE('',#696);
#34=PLANE('',#697);
#35=PLANE('',#698);
#36=PLANE('',#700);
#37=PLANE('',#704);
#38=PLANE('',#705);
#39=PLANE('',#725);
#40=PLANE('',#732);
#41=PLANE('',#738);
#42=PLANE('',#739);
#43=PLANE('',#746);
#44=PLANE('',#747);
#45=PLANE('',#752);
#46=PLANE('',#753);
#47=PLANE('',#756);
#48=PLANE('',#757);
#49=PLANE('',#758);
#50=PLANE('',#759);
#51=PLANE('',#760);
#52=PLANE('',#761);
#53=PLANE('',#762);
#54=PLANE('',#763);
#55=PLANE('',#774);
#56=PLANE('',#775);
#57=PLANE('',#776);
#58=PLANE('',#779);
#59=CIRCLE('',#693,0.0475);
#60=CIRCLE('',#699,0.0475);
#61=CIRCLE('',#701,0.0033);
#62=CIRCLE('',#702,0.0033);
#63=CIRCLE('',#703,0.0675);
#64=CIRCLE('',#707,0.071);
#65=CIRCLE('',#708,0.071);
#66=CIRCLE('',#710,0.072);
#67=CIRCLE('',#711,0.072);
#68=CIRCLE('',#713,0.0725);
#69=CIRCLE('',#714,0.0725);
#70=CIRCLE('',#715,0.0725);
#71=CIRCLE('',#716,0.0725);
#72=CIRCLE('',#718,0.0675);
#73=CIRCLE('',#719,0.0675);
#74=CIRCLE('',#720,0.0675);
#75=CIRCLE('',#721,0.0675);
#76=CIRCLE('',#722,0.0675);
#77=CIRCLE('',#723,0.0675);
#78=CIRCLE('',#724,0.0675);
#79=CIRCLE('',#726,0.0475);
#80=CIRCLE('',#730,0.0023);
#81=CIRCLE('',#731,0.0023);
#82=CIRCLE('',#733,0.0033);
#83=CIRCLE('',#734,0.0033);
#84=CIRCLE('',#736,0.0023);
#85=CIRCLE('',#737,0.0023);
#86=CIRCLE('',#741,0.0023);
#87=CIRCLE('',#742,0.0023);
#88=CIRCLE('',#744,0.0023);
#89=CIRCLE('',#745,0.0023);
#90=CIRCLE('',#754,0.0308397007475144);
#91=CIRCLE('',#764,0.0022);
#92=CIRCLE('',#765,0.0022);
#93=CIRCLE('',#766,0.0022);
#94=CIRCLE('',#767,0.0022);
#95=CIRCLE('',#769,0.0022);
#96=CIRCLE('',#771,0.0022);
#97=CIRCLE('',#773,0.0022);
#98=CIRCLE('',#778,0.0022);
#99=ORIENTED_EDGE('',*,*,#253,.F.);
#100=ORIENTED_EDGE('',*,*,#254,.F.);
#101=ORIENTED_EDGE('',*,*,#255,.F.);
#102=ORIENTED_EDGE('',*,*,#254,.T.);
#103=ORIENTED_EDGE('',*,*,#253,.T.);
#104=ORIENTED_EDGE('',*,*,#255,.T.);
#105=ORIENTED_EDGE('',*,*,#256,.F.);
#106=ORIENTED_EDGE('',*,*,#257,.F.);
#107=ORIENTED_EDGE('',*,*,#258,.T.);
#108=ORIENTED_EDGE('',*,*,#259,.F.);
#109=ORIENTED_EDGE('',*,*,#260,.F.);
#110=ORIENTED_EDGE('',*,*,#261,.F.);
#111=ORIENTED_EDGE('',*,*,#262,.T.);
#112=ORIENTED_EDGE('',*,*,#263,.T.);
#113=ORIENTED_EDGE('',*,*,#264,.T.);
#114=ORIENTED_EDGE('',*,*,#265,.T.);
#115=ORIENTED_EDGE('',*,*,#257,.T.);
#116=ORIENTED_EDGE('',*,*,#266,.T.);
#117=ORIENTED_EDGE('',*,*,#267,.T.);
#118=ORIENTED_EDGE('',*,*,#268,.T.);
#119=ORIENTED_EDGE('',*,*,#269,.T.);
#120=ORIENTED_EDGE('',*,*,#270,.T.);
#121=ORIENTED_EDGE('',*,*,#271,.T.);
#122=ORIENTED_EDGE('',*,*,#272,.F.);
#123=ORIENTED_EDGE('',*,*,#273,.T.);
#124=ORIENTED_EDGE('',*,*,#274,.F.);
#125=ORIENTED_EDGE('',*,*,#275,.T.);
#126=ORIENTED_EDGE('',*,*,#270,.F.);
#127=ORIENTED_EDGE('',*,*,#276,.T.);
#128=ORIENTED_EDGE('',*,*,#277,.T.);
#129=ORIENTED_EDGE('',*,*,#278,.F.);
#130=ORIENTED_EDGE('',*,*,#279,.T.);
#131=ORIENTED_EDGE('',*,*,#280,.T.);
#132=ORIENTED_EDGE('',*,*,#281,.F.);
#133=ORIENTED_EDGE('',*,*,#272,.T.);
#134=ORIENTED_EDGE('',*,*,#282,.F.);
#135=ORIENTED_EDGE('',*,*,#283,.T.);
#136=ORIENTED_EDGE('',*,*,#284,.F.);
#137=ORIENTED_EDGE('',*,*,#285,.F.);
#138=ORIENTED_EDGE('',*,*,#286,.T.);
#139=ORIENTED_EDGE('',*,*,#287,.F.);
#140=ORIENTED_EDGE('',*,*,#288,.T.);
#141=ORIENTED_EDGE('',*,*,#289,.T.);
#142=ORIENTED_EDGE('',*,*,#290,.F.);
#143=ORIENTED_EDGE('',*,*,#291,.F.);
#144=ORIENTED_EDGE('',*,*,#292,.T.);
#145=ORIENTED_EDGE('',*,*,#293,.F.);
#146=ORIENTED_EDGE('',*,*,#294,.T.);
#147=ORIENTED_EDGE('',*,*,#295,.T.);
#148=ORIENTED_EDGE('',*,*,#296,.F.);
#149=ORIENTED_EDGE('',*,*,#264,.F.);
#150=ORIENTED_EDGE('',*,*,#297,.F.);
#151=ORIENTED_EDGE('',*,*,#259,.T.);
#152=ORIENTED_EDGE('',*,*,#298,.T.);
#153=ORIENTED_EDGE('',*,*,#273,.F.);
#154=ORIENTED_EDGE('',*,*,#281,.T.);
#155=ORIENTED_EDGE('',*,*,#299,.T.);
#156=ORIENTED_EDGE('',*,*,#276,.F.);
#157=ORIENTED_EDGE('',*,*,#300,.T.);
#158=ORIENTED_EDGE('',*,*,#301,.F.);
#159=ORIENTED_EDGE('',*,*,#274,.T.);
#160=ORIENTED_EDGE('',*,*,#302,.T.);
#161=ORIENTED_EDGE('',*,*,#279,.F.);
#162=ORIENTED_EDGE('',*,*,#277,.F.);
#163=ORIENTED_EDGE('',*,*,#299,.F.);
#164=ORIENTED_EDGE('',*,*,#280,.F.);
#165=ORIENTED_EDGE('',*,*,#302,.F.);
#166=ORIENTED_EDGE('',*,*,#267,.F.);
#167=ORIENTED_EDGE('',*,*,#303,.T.);
#168=ORIENTED_EDGE('',*,*,#304,.T.);
#169=ORIENTED_EDGE('',*,*,#305,.F.);
#170=ORIENTED_EDGE('',*,*,#265,.F.);
#171=ORIENTED_EDGE('',*,*,#298,.F.);
#172=ORIENTED_EDGE('',*,*,#258,.F.);
#173=ORIENTED_EDGE('',*,*,#306,.T.);
#174=ORIENTED_EDGE('',*,*,#307,.F.);
#175=ORIENTED_EDGE('',*,*,#308,.F.);
#176=ORIENTED_EDGE('',*,*,#260,.T.);
#177=ORIENTED_EDGE('',*,*,#297,.T.);
#178=ORIENTED_EDGE('',*,*,#263,.F.);
#179=ORIENTED_EDGE('',*,*,#309,.T.);
#180=ORIENTED_EDGE('',*,*,#310,.T.);
#181=ORIENTED_EDGE('',*,*,#311,.T.);
#182=ORIENTED_EDGE('',*,*,#312,.F.);
#183=ORIENTED_EDGE('',*,*,#307,.T.);
#184=ORIENTED_EDGE('',*,*,#312,.T.);
#185=ORIENTED_EDGE('',*,*,#313,.T.);
#186=ORIENTED_EDGE('',*,*,#314,.F.);
#187=ORIENTED_EDGE('',*,*,#315,.T.);
#188=ORIENTED_EDGE('',*,*,#316,.F.);
#189=ORIENTED_EDGE('',*,*,#314,.T.);
#190=ORIENTED_EDGE('',*,*,#316,.T.);
#191=ORIENTED_EDGE('',*,*,#309,.F.);
#192=ORIENTED_EDGE('',*,*,#311,.F.);
#193=ORIENTED_EDGE('',*,*,#310,.F.);
#194=ORIENTED_EDGE('',*,*,#315,.F.);
#195=ORIENTED_EDGE('',*,*,#268,.F.);
#196=ORIENTED_EDGE('',*,*,#313,.F.);
#197=ORIENTED_EDGE('',*,*,#269,.F.);
#198=ORIENTED_EDGE('',*,*,#306,.F.);
#199=ORIENTED_EDGE('',*,*,#271,.F.);
#200=ORIENTED_EDGE('',*,*,#275,.F.);
#201=ORIENTED_EDGE('',*,*,#301,.T.);
#202=ORIENTED_EDGE('',*,*,#278,.T.);
#203=ORIENTED_EDGE('',*,*,#256,.T.);
#204=ORIENTED_EDGE('',*,*,#308,.T.);
#205=ORIENTED_EDGE('',*,*,#262,.F.);
#206=ORIENTED_EDGE('',*,*,#317,.T.);
#207=ORIENTED_EDGE('',*,*,#303,.F.);
#208=ORIENTED_EDGE('',*,*,#266,.F.);
#209=ORIENTED_EDGE('',*,*,#305,.T.);
#210=ORIENTED_EDGE('',*,*,#304,.F.);
#211=ORIENTED_EDGE('',*,*,#317,.F.);
#212=ORIENTED_EDGE('',*,*,#261,.T.);
#213=ORIENTED_EDGE('',*,*,#318,.T.);
#214=ORIENTED_EDGE('',*,*,#293,.T.);
#215=ORIENTED_EDGE('',*,*,#319,.F.);
#216=ORIENTED_EDGE('',*,*,#288,.F.);
#217=ORIENTED_EDGE('',*,*,#287,.T.);
#218=ORIENTED_EDGE('',*,*,#320,.T.);
#219=ORIENTED_EDGE('',*,*,#294,.F.);
#220=ORIENTED_EDGE('',*,*,#318,.F.);
#221=ORIENTED_EDGE('',*,*,#290,.T.);
#222=ORIENTED_EDGE('',*,*,#321,.T.);
#223=ORIENTED_EDGE('',*,*,#295,.F.);
#224=ORIENTED_EDGE('',*,*,#320,.F.);
#225=ORIENTED_EDGE('',*,*,#319,.T.);
#226=ORIENTED_EDGE('',*,*,#296,.T.);
#227=ORIENTED_EDGE('',*,*,#321,.F.);
#228=ORIENTED_EDGE('',*,*,#289,.F.);
#229=ORIENTED_EDGE('',*,*,#284,.T.);
#230=ORIENTED_EDGE('',*,*,#291,.T.);
#231=ORIENTED_EDGE('',*,*,#283,.F.);
#232=ORIENTED_EDGE('',*,*,#285,.T.);
#233=ORIENTED_EDGE('',*,*,#300,.F.);
#234=ORIENTED_EDGE('',*,*,#282,.T.);
#235=ORIENTED_EDGE('',*,*,#322,.F.);
#236=ORIENTED_EDGE('',*,*,#323,.F.);
#237=ORIENTED_EDGE('',*,*,#324,.F.);
#238=ORIENTED_EDGE('',*,*,#325,.F.);
#239=ORIENTED_EDGE('',*,*,#292,.F.);
#240=ORIENTED_EDGE('',*,*,#286,.F.);
#241=ORIENTED_EDGE('',*,*,#323,.T.);
#242=ORIENTED_EDGE('',*,*,#326,.F.);
#243=ORIENTED_EDGE('',*,*,#324,.T.);
#244=ORIENTED_EDGE('',*,*,#327,.F.);
#245=ORIENTED_EDGE('',*,*,#325,.T.);
#246=ORIENTED_EDGE('',*,*,#328,.F.);
#247=ORIENTED_EDGE('',*,*,#326,.T.);
#248=ORIENTED_EDGE('',*,*,#327,.T.);
#249=ORIENTED_EDGE('',*,*,#328,.T.);
#250=ORIENTED_EDGE('',*,*,#322,.T.);
#251=ORIENTED_EDGE('',*,*,#329,.F.);
#252=ORIENTED_EDGE('',*,*,#329,.T.);
#253=EDGE_CURVE('',#330,#331,#392,.T.);
#254=EDGE_CURVE('',#332,#330,#59,.T.);
#255=EDGE_CURVE('',#331,#332,#393,.T.);
#256=EDGE_CURVE('',#333,#334,#394,.T.);
#257=EDGE_CURVE('',#335,#333,#395,.T.);
#258=EDGE_CURVE('',#335,#336,#23,.T.);
#259=EDGE_CURVE('',#337,#336,#396,.T.);
#260=EDGE_CURVE('',#334,#337,#397,.T.);
#261=EDGE_CURVE('',#338,#339,#398,.T.);
#262=EDGE_CURVE('',#338,#340,#399,.T.);
#263=EDGE_CURVE('',#340,#341,#400,.T.);
#264=EDGE_CURVE('',#341,#342,#401,.T.);
#265=EDGE_CURVE('',#342,#339,#24,.T.);
#266=EDGE_CURVE('',#333,#343,#402,.T.);
#267=EDGE_CURVE('',#343,#335,#60,.T.);
#268=EDGE_CURVE('',#344,#344,#61,.F.);
#269=EDGE_CURVE('',#345,#345,#62,.F.);
#270=EDGE_CURVE('',#346,#347,#403,.T.);
#271=EDGE_CURVE('',#347,#348,#404,.T.);
#272=EDGE_CURVE('',#349,#348,#405,.T.);
#273=EDGE_CURVE('',#349,#346,#63,.T.);
#274=EDGE_CURVE('',#350,#351,#406,.T.);
#275=EDGE_CURVE('',#350,#347,#407,.T.);
#276=EDGE_CURVE('',#346,#352,#408,.T.);
#277=EDGE_CURVE('',#352,#351,#25,.T.);
#278=EDGE_CURVE('',#353,#348,#409,.T.);
#279=EDGE_CURVE('',#353,#354,#410,.T.);
#280=EDGE_CURVE('',#354,#355,#26,.T.);
#281=EDGE_CURVE('',#349,#355,#411,.T.);
#282=EDGE_CURVE('',#356,#356,#64,.T.);
#283=EDGE_CURVE('',#357,#357,#65,.T.);
#284=EDGE_CURVE('',#358,#358,#66,.F.);
#285=EDGE_CURVE('',#359,#359,#67,.T.);
#286=EDGE_CURVE('',#360,#360,#68,.T.);
#287=EDGE_CURVE('',#361,#362,#69,.T.);
#288=EDGE_CURVE('',#361,#363,#412,.F.);
#289=EDGE_CURVE('',#363,#364,#70,.T.);
#290=EDGE_CURVE('',#362,#364,#413,.F.);
#291=EDGE_CURVE('',#365,#365,#71,.T.);
#292=EDGE_CURVE('',#366,#366,#72,.T.);
#293=EDGE_CURVE('',#367,#368,#414,.F.);
#294=EDGE_CURVE('',#367,#369,#73,.T.);
#295=EDGE_CURVE('',#369,#370,#415,.F.);
#296=EDGE_CURVE('',#368,#370,#74,.T.);
#297=EDGE_CURVE('',#337,#341,#75,.T.);
#298=EDGE_CURVE('',#336,#342,#76,.F.);
#299=EDGE_CURVE('',#355,#352,#77,.F.);
#300=EDGE_CURVE('',#371,#371,#78,.T.);
#301=EDGE_CURVE('',#350,#353,#416,.T.);
#302=EDGE_CURVE('',#351,#354,#79,.T.);
#303=EDGE_CURVE('',#343,#372,#417,.T.);
#304=EDGE_CURVE('',#372,#373,#418,.T.);
#305=EDGE_CURVE('',#339,#373,#27,.T.);
#306=EDGE_CURVE('',#374,#374,#80,.T.);
#307=EDGE_CURVE('',#375,#375,#81,.T.);
#308=EDGE_CURVE('',#334,#340,#419,.T.);
#309=EDGE_CURVE('',#376,#376,#82,.F.);
#310=EDGE_CURVE('',#377,#377,#83,.F.);
#311=EDGE_CURVE('',#378,#378,#84,.T.);
#312=EDGE_CURVE('',#379,#379,#85,.T.);
#313=EDGE_CURVE('',#380,#380,#86,.T.);
#314=EDGE_CURVE('',#381,#381,#87,.T.);
#315=EDGE_CURVE('',#382,#382,#88,.T.);
#316=EDGE_CURVE('',#383,#383,#89,.T.);
#317=EDGE_CURVE('',#338,#372,#90,.F.);
#318=EDGE_CURVE('',#361,#367,#420,.T.);
#319=EDGE_CURVE('',#363,#368,#421,.T.);
#320=EDGE_CURVE('',#362,#369,#422,.T.);
#321=EDGE_CURVE('',#364,#370,#423,.T.);
#322=EDGE_CURVE('',#384,#384,#91,.T.);
#323=EDGE_CURVE('',#385,#385,#92,.T.);
#324=EDGE_CURVE('',#386,#386,#93,.T.);
#325=EDGE_CURVE('',#387,#387,#94,.T.);
#326=EDGE_CURVE('',#388,#388,#95,.T.);
#327=EDGE_CURVE('',#389,#389,#96,.T.);
#328=EDGE_CURVE('',#390,#390,#97,.T.);
#329=EDGE_CURVE('',#391,#391,#98,.T.);
#330=VERTEX_POINT('',#993);
#331=VERTEX_POINT('',#994);
#332=VERTEX_POINT('',#996);
#333=VERTEX_POINT('',#1002);
#334=VERTEX_POINT('',#1003);
#335=VERTEX_POINT('',#1005);
#336=VERTEX_POINT('',#1018);
#337=VERTEX_POINT('',#1020);
#338=VERTEX_POINT('',#1024);
#339=VERTEX_POINT('',#1025);
#340=VERTEX_POINT('',#1027);
#341=VERTEX_POINT('',#1029);
#342=VERTEX_POINT('',#1031);
#343=VERTEX_POINT('',#1045);
#344=VERTEX_POINT('',#1049);
#345=VERTEX_POINT('',#1051);
#346=VERTEX_POINT('',#1053);
#347=VERTEX_POINT('',#1054);
#348=VERTEX_POINT('',#1056);
#349=VERTEX_POINT('',#1058);
#350=VERTEX_POINT('',#1062);
#351=VERTEX_POINT('',#1063);
#352=VERTEX_POINT('',#1066);
#353=VERTEX_POINT('',#1081);
#354=VERTEX_POINT('',#1083);
#355=VERTEX_POINT('',#1096);
#356=VERTEX_POINT('',#1100);
#357=VERTEX_POINT('',#1102);
#358=VERTEX_POINT('',#1105);
#359=VERTEX_POINT('',#1107);
#360=VERTEX_POINT('',#1110);
#361=VERTEX_POINT('',#1112);
#362=VERTEX_POINT('',#1113);
#363=VERTEX_POINT('',#1115);
#364=VERTEX_POINT('',#1117);
#365=VERTEX_POINT('',#1120);
#366=VERTEX_POINT('',#1123);
#367=VERTEX_POINT('',#1125);
#368=VERTEX_POINT('',#1126);
#369=VERTEX_POINT('',#1128);
#370=VERTEX_POINT('',#1130);
#371=VERTEX_POINT('',#1136);
#372=VERTEX_POINT('',#1143);
#373=VERTEX_POINT('',#1145);
#374=VERTEX_POINT('',#1152);
#375=VERTEX_POINT('',#1154);
#376=VERTEX_POINT('',#1158);
#377=VERTEX_POINT('',#1160);
#378=VERTEX_POINT('',#1163);
#379=VERTEX_POINT('',#1165);
#380=VERTEX_POINT('',#1170);
#381=VERTEX_POINT('',#1172);
#382=VERTEX_POINT('',#1175);
#383=VERTEX_POINT('',#1177);
#384=VERTEX_POINT('',#1201);
#385=VERTEX_POINT('',#1203);
#386=VERTEX_POINT('',#1205);
#387=VERTEX_POINT('',#1207);
#388=VERTEX_POINT('',#1210);
#389=VERTEX_POINT('',#1213);
#390=VERTEX_POINT('',#1216);
#391=VERTEX_POINT('',#1222);
#392=LINE('',#992,#424);
#393=LINE('',#997,#425);
#394=LINE('',#1001,#426);
#395=LINE('',#1004,#427);
#396=LINE('',#1019,#428);
#397=LINE('',#1021,#429);
#398=LINE('',#1023,#430);
#399=LINE('',#1026,#431);
#400=LINE('',#1028,#432);
#401=LINE('',#1030,#433);
#402=LINE('',#1044,#434);
#403=LINE('',#1052,#435);
#404=LINE('',#1055,#436);
#405=LINE('',#1057,#437);
#406=LINE('',#1061,#438);
#407=LINE('',#1064,#439);
#408=LINE('',#1065,#440);
#409=LINE('',#1080,#441);
#410=LINE('',#1082,#442);
#411=LINE('',#1097,#443);
#412=LINE('',#1114,#444);
#413=LINE('',#1118,#445);
#414=LINE('',#1124,#446);
#415=LINE('',#1129,#447);
#416=LINE('',#1138,#448);
#417=LINE('',#1142,#449);
#418=LINE('',#1144,#450);
#419=LINE('',#1156,#451);
#420=LINE('',#1189,#452);
#421=LINE('',#1190,#453);
#422=LINE('',#1192,#454);
#423=LINE('',#1194,#455);
#424=VECTOR('',#784,1.);
#425=VECTOR('',#787,1.);
#426=VECTOR('',#794,1.);
#427=VECTOR('',#795,1.);
#428=VECTOR('',#796,1.);
#429=VECTOR('',#797,1.);
#430=VECTOR('',#800,1.);
#431=VECTOR('',#801,1.);
#432=VECTOR('',#802,1.);
#433=VECTOR('',#803,1.);
#434=VECTOR('',#806,1.);
#435=VECTOR('',#815,1.);
#436=VECTOR('',#816,1.);
#437=VECTOR('',#817,1.);
#438=VECTOR('',#822,1.);
#439=VECTOR('',#823,1.);
#440=VECTOR('',#824,1.);
#441=VECTOR('',#827,1.);
#442=VECTOR('',#828,1.);
#443=VECTOR('',#829,1.);
#444=VECTOR('',#848,1.);
#445=VECTOR('',#851,1.);
#446=VECTOR('',#858,1.);
#447=VECTOR('',#861,1.);
#448=VECTOR('',#874,1.);
#449=VECTOR('',#881,1.);
#450=VECTOR('',#882,1.);
#451=VECTOR('',#891,1.);
#452=VECTOR('',#940,1.);
#453=VECTOR('',#941,1.);
#454=VECTOR('',#944,1.);
#455=VECTOR('',#947,1.);
#456=EDGE_LOOP('',(#99,#100,#101));
#457=EDGE_LOOP('',(#102,#103,#104));
#458=EDGE_LOOP('',(#105,#106,#107,#108,#109));
#459=EDGE_LOOP('',(#110,#111,#112,#113,#114));
#460=EDGE_LOOP('',(#115,#116,#117));
#461=EDGE_LOOP('',(#118));
#462=EDGE_LOOP('',(#119));
#463=EDGE_LOOP('',(#120,#121,#122,#123));
#464=EDGE_LOOP('',(#124,#125,#126,#127,#128));
#465=EDGE_LOOP('',(#129,#130,#131,#132,#133));
#466=EDGE_LOOP('',(#134));
#467=EDGE_LOOP('',(#135));
#468=EDGE_LOOP('',(#136));
#469=EDGE_LOOP('',(#137));
#470=EDGE_LOOP('',(#138));
#471=EDGE_LOOP('',(#139,#140,#141,#142));
#472=EDGE_LOOP('',(#143));
#473=EDGE_LOOP('',(#144));
#474=EDGE_LOOP('',(#145,#146,#147,#148));
#475=EDGE_LOOP('',(#149,#150,#151,#152));
#476=EDGE_LOOP('',(#153,#154,#155,#156));
#477=EDGE_LOOP('',(#157));
#478=EDGE_LOOP('',(#158,#159,#160,#161));
#479=EDGE_LOOP('',(#162,#163,#164,#165));
#480=EDGE_LOOP('',(#166,#167,#168,#169,#170,#171,#172));
#481=EDGE_LOOP('',(#173));
#482=EDGE_LOOP('',(#174));
#483=EDGE_LOOP('',(#175,#176,#177,#178));
#484=EDGE_LOOP('',(#179));
#485=EDGE_LOOP('',(#180));
#486=EDGE_LOOP('',(#181));
#487=EDGE_LOOP('',(#182));
#488=EDGE_LOOP('',(#183));
#489=EDGE_LOOP('',(#184));
#490=EDGE_LOOP('',(#185));
#491=EDGE_LOOP('',(#186));
#492=EDGE_LOOP('',(#187));
#493=EDGE_LOOP('',(#188));
#494=EDGE_LOOP('',(#189));
#495=EDGE_LOOP('',(#190));
#496=EDGE_LOOP('',(#191));
#497=EDGE_LOOP('',(#192));
#498=EDGE_LOOP('',(#193));
#499=EDGE_LOOP('',(#194));
#500=EDGE_LOOP('',(#195));
#501=EDGE_LOOP('',(#196));
#502=EDGE_LOOP('',(#197));
#503=EDGE_LOOP('',(#198));
#504=EDGE_LOOP('',(#199,#200,#201,#202));
#505=EDGE_LOOP('',(#203,#204,#205,#206,#207,#208));
#506=EDGE_LOOP('',(#209,#210,#211,#212));
#507=EDGE_LOOP('',(#213,#214,#215,#216));
#508=EDGE_LOOP('',(#217,#218,#219,#220));
#509=EDGE_LOOP('',(#221,#222,#223,#224));
#510=EDGE_LOOP('',(#225,#226,#227,#228));
#511=EDGE_LOOP('',(#229));
#512=EDGE_LOOP('',(#230));
#513=EDGE_LOOP('',(#231));
#514=EDGE_LOOP('',(#232));
#515=EDGE_LOOP('',(#233));
#516=EDGE_LOOP('',(#234));
#517=EDGE_LOOP('',(#235));
#518=EDGE_LOOP('',(#236));
#519=EDGE_LOOP('',(#237));
#520=EDGE_LOOP('',(#238));
#521=EDGE_LOOP('',(#239));
#522=EDGE_LOOP('',(#240));
#523=EDGE_LOOP('',(#241));
#524=EDGE_LOOP('',(#242));
#525=EDGE_LOOP('',(#243));
#526=EDGE_LOOP('',(#244));
#527=EDGE_LOOP('',(#245));
#528=EDGE_LOOP('',(#246));
#529=EDGE_LOOP('',(#247));
#530=EDGE_LOOP('',(#248));
#531=EDGE_LOOP('',(#249));
#532=EDGE_LOOP('',(#250));
#533=EDGE_LOOP('',(#251));
#534=EDGE_LOOP('',(#252));
#535=FACE_BOUND('',#456,.T.);
#536=FACE_BOUND('',#457,.T.);
#537=FACE_BOUND('',#458,.T.);
#538=FACE_BOUND('',#459,.T.);
#539=FACE_BOUND('',#460,.T.);
#540=FACE_BOUND('',#461,.T.);
#541=FACE_BOUND('',#462,.T.);
#542=FACE_BOUND('',#463,.T.);
#543=FACE_BOUND('',#464,.T.);
#544=FACE_BOUND('',#465,.T.);
#545=FACE_BOUND('',#466,.T.);
#546=FACE_BOUND('',#467,.T.);
#547=FACE_BOUND('',#468,.T.);
#548=FACE_BOUND('',#469,.T.);
#549=FACE_BOUND('',#470,.T.);
#550=FACE_BOUND('',#471,.T.);
#551=FACE_BOUND('',#472,.T.);
#552=FACE_BOUND('',#473,.T.);
#553=FACE_BOUND('',#474,.T.);
#554=FACE_BOUND('',#475,.T.);
#555=FACE_BOUND('',#476,.T.);
#556=FACE_BOUND('',#477,.T.);
#557=FACE_BOUND('',#478,.T.);
#558=FACE_BOUND('',#479,.T.);
#559=FACE_BOUND('',#480,.T.);
#560=FACE_BOUND('',#481,.T.);
#561=FACE_BOUND('',#482,.T.);
#562=FACE_BOUND('',#483,.T.);
#563=FACE_BOUND('',#484,.T.);
#564=FACE_BOUND('',#485,.T.);
#565=FACE_BOUND('',#486,.T.);
#566=FACE_BOUND('',#487,.T.);
#567=FACE_BOUND('',#488,.T.);
#568=FACE_BOUND('',#489,.T.);
#569=FACE_BOUND('',#490,.T.);
#570=FACE_BOUND('',#491,.T.);
#571=FACE_BOUND('',#492,.T.);
#572=FACE_BOUND('',#493,.T.);
#573=FACE_BOUND('',#494,.T.);
#574=FACE_BOUND('',#495,.T.);
#575=FACE_BOUND('',#496,.T.);
#576=FACE_BOUND('',#497,.T.);
#577=FACE_BOUND('',#498,.T.);
#578=FACE_BOUND('',#499,.T.);
#579=FACE_BOUND('',#500,.T.);
#580=FACE_BOUND('',#501,.T.);
#581=FACE_BOUND('',#502,.T.);
#582=FACE_BOUND('',#503,.T.);
#583=FACE_BOUND('',#504,.T.);
#584=FACE_BOUND('',#505,.T.);
#585=FACE_BOUND('',#506,.T.);
#586=FACE_BOUND('',#507,.T.);
#587=FACE_BOUND('',#508,.T.);
#588=FACE_BOUND('',#509,.T.);
#589=FACE_BOUND('',#510,.T.);
#590=FACE_BOUND('',#511,.T.);
#591=FACE_BOUND('',#512,.T.);
#592=FACE_BOUND('',#513,.T.);
#593=FACE_BOUND('',#514,.T.);
#594=FACE_BOUND('',#515,.T.);
#595=FACE_BOUND('',#516,.T.);
#596=FACE_BOUND('',#517,.T.);
#597=FACE_BOUND('',#518,.T.);
#598=FACE_BOUND('',#519,.T.);
#599=FACE_BOUND('',#520,.T.);
#600=FACE_BOUND('',#521,.T.);
#601=FACE_BOUND('',#522,.T.);
#602=FACE_BOUND('',#523,.T.);
#603=FACE_BOUND('',#524,.T.);
#604=FACE_BOUND('',#525,.T.);
#605=FACE_BOUND('',#526,.T.);
#606=FACE_BOUND('',#527,.T.);
#607=FACE_BOUND('',#528,.T.);
#608=FACE_BOUND('',#529,.T.);
#609=FACE_BOUND('',#530,.T.);
#610=FACE_BOUND('',#531,.T.);
#611=FACE_BOUND('',#532,.T.);
#612=FACE_BOUND('',#533,.T.);
#613=FACE_BOUND('',#534,.T.);
#614=TOROIDAL_SURFACE('',#692,0.0475,0.02);
#615=TOROIDAL_SURFACE('',#727,0.0475,0.02);
#616=TOROIDAL_SURFACE('',#728,0.0475,0.02);
#617=TOROIDAL_SURFACE('',#748,0.0033,0.001);
#618=TOROIDAL_SURFACE('',#749,0.0033,0.001);
#619=TOROIDAL_SURFACE('',#750,0.0033,0.001);
#620=TOROIDAL_SURFACE('',#751,0.0033,0.001);
#621=ADVANCED_FACE('',(#535),#614,.F.);
#622=ADVANCED_FACE('',(#536),#32,.T.);
#623=ADVANCED_FACE('',(#537),#33,.F.);
#624=ADVANCED_FACE('',(#538),#34,.T.);
#625=ADVANCED_FACE('',(#539),#35,.T.);
#626=ADVANCED_FACE('',(#540,#541,#542),#36,.T.);
#627=ADVANCED_FACE('',(#543),#37,.F.);
#628=ADVANCED_FACE('',(#544),#38,.T.);
#629=ADVANCED_FACE('',(#545,#546),#10,.F.);
#630=ADVANCED_FACE('',(#547,#548),#11,.T.);
#631=ADVANCED_FACE('',(#549,#550,#551),#12,.T.);
#632=ADVANCED_FACE('',(#552,#553,#554,#555,#556),#13,.F.);
#633=ADVANCED_FACE('',(#557),#39,.T.);
#634=ADVANCED_FACE('',(#558),#615,.F.);
#635=ADVANCED_FACE('',(#559),#616,.F.);
#636=ADVANCED_FACE('',(#560,#561),#14,.F.);
#637=ADVANCED_FACE('',(#562,#563,#564),#40,.T.);
#638=ADVANCED_FACE('',(#565,#566),#15,.F.);
#639=ADVANCED_FACE('',(#567),#41,.T.);
#640=ADVANCED_FACE('',(#568),#42,.T.);
#641=ADVANCED_FACE('',(#569,#570),#16,.F.);
#642=ADVANCED_FACE('',(#571,#572),#17,.F.);
#643=ADVANCED_FACE('',(#573),#43,.T.);
#644=ADVANCED_FACE('',(#574),#44,.T.);
#645=ADVANCED_FACE('',(#575,#576),#617,.T.);
#646=ADVANCED_FACE('',(#577,#578),#618,.T.);
#647=ADVANCED_FACE('',(#579,#580),#619,.T.);
#648=ADVANCED_FACE('',(#581,#582),#620,.T.);
#649=ADVANCED_FACE('',(#583),#45,.T.);
#650=ADVANCED_FACE('',(#584),#46,.F.);
#651=ADVANCED_FACE('',(#585),#18,.T.);
#652=ADVANCED_FACE('',(#586),#47,.F.);
#653=ADVANCED_FACE('',(#587),#48,.T.);
#654=ADVANCED_FACE('',(#588),#49,.T.);
#655=ADVANCED_FACE('',(#589),#50,.F.);
#656=ADVANCED_FACE('',(#590,#591),#51,.T.);
#657=ADVANCED_FACE('',(#592,#593),#52,.T.);
#658=ADVANCED_FACE('',(#594,#595),#53,.T.);
#659=ADVANCED_FACE('',(#596,#597,#598,#599,#600,#601),#54,.F.);
#660=ADVANCED_FACE('',(#602,#603),#19,.F.);
#661=ADVANCED_FACE('',(#604,#605),#20,.F.);
#662=ADVANCED_FACE('',(#606,#607),#21,.F.);
#663=ADVANCED_FACE('',(#608),#55,.T.);
#664=ADVANCED_FACE('',(#609),#56,.T.);
#665=ADVANCED_FACE('',(#610),#57,.T.);
#666=ADVANCED_FACE('',(#611,#612),#22,.F.);
#667=ADVANCED_FACE('',(#613),#58,.T.);
#668=CLOSED_SHELL('',(#621,#622));
#669=CLOSED_SHELL('',(#623,#624,#625,#626,#627,#628,#629,#630,#631,#632,
#633,#634,#635,#636,#637,#638,#639,#640,#641,#642,#643,#644,#645,#646,#647,
#648,#649,#650,#651,#652,#653,#654,#655,#656,#657,#658,#659,#660,#661,#662,
#663,#664,#665,#666,#667));
#670=STYLED_ITEM('',(#672),#685);
#671=STYLED_ITEM('',(#673),#686);
#672=PRESENTATION_STYLE_ASSIGNMENT((#674));
#673=PRESENTATION_STYLE_ASSIGNMENT((#675));
#674=SURFACE_STYLE_USAGE(.BOTH.,#676);
#675=SURFACE_STYLE_USAGE(.BOTH.,#677);
#676=SURFACE_SIDE_STYLE('',(#678));
#677=SURFACE_SIDE_STYLE('',(#679));
#678=SURFACE_STYLE_FILL_AREA(#680);
#679=SURFACE_STYLE_FILL_AREA(#681);
#680=FILL_AREA_STYLE('',(#682));
#681=FILL_AREA_STYLE('',(#683));
#682=FILL_AREA_STYLE_COLOUR('',#684);
#683=FILL_AREA_STYLE_COLOUR('',#684);
#684=COLOUR_RGB('',0.615686274509804,0.811764705882353,0.929411764705882);
#685=MANIFOLD_SOLID_BREP('Part 2',#668);
#686=MANIFOLD_SOLID_BREP('Part 1',#669);
#687=SHAPE_DEFINITION_REPRESENTATION(#1236,#689);
#688=SHAPE_DEFINITION_REPRESENTATION(#1237,#690);
#689=SHAPE_REPRESENTATION('Part 2',(#691),#1226);
#690=SHAPE_REPRESENTATION('Part 1',(#695),#1227);
#691=AXIS2_PLACEMENT_3D('',#990,#780,#781);
#692=AXIS2_PLACEMENT_3D('',#991,#782,#783);
#693=AXIS2_PLACEMENT_3D('',#995,#785,#786);
#694=AXIS2_PLACEMENT_3D('',#998,#788,#789);
#695=AXIS2_PLACEMENT_3D('',#999,#790,#791);
#696=AXIS2_PLACEMENT_3D('',#1000,#792,#793);
#697=AXIS2_PLACEMENT_3D('',#1022,#798,#799);
#698=AXIS2_PLACEMENT_3D('',#1043,#804,#805);
#699=AXIS2_PLACEMENT_3D('',#1046,#807,#808);
#700=AXIS2_PLACEMENT_3D('',#1047,#809,#810);
#701=AXIS2_PLACEMENT_3D('',#1048,#811,#812);
#702=AXIS2_PLACEMENT_3D('',#1050,#813,#814);
#703=AXIS2_PLACEMENT_3D('',#1059,#818,#819);
#704=AXIS2_PLACEMENT_3D('',#1060,#820,#821);
#705=AXIS2_PLACEMENT_3D('',#1079,#825,#826);
#706=AXIS2_PLACEMENT_3D('',#1098,#830,#831);
#707=AXIS2_PLACEMENT_3D('',#1099,#832,#833);
#708=AXIS2_PLACEMENT_3D('',#1101,#834,#835);
#709=AXIS2_PLACEMENT_3D('',#1103,#836,#837);
#710=AXIS2_PLACEMENT_3D('',#1104,#838,#839);
#711=AXIS2_PLACEMENT_3D('',#1106,#840,#841);
#712=AXIS2_PLACEMENT_3D('',#1108,#842,#843);
#713=AXIS2_PLACEMENT_3D('',#1109,#844,#845);
#714=AXIS2_PLACEMENT_3D('',#1111,#846,#847);
#715=AXIS2_PLACEMENT_3D('',#1116,#849,#850);
#716=AXIS2_PLACEMENT_3D('',#1119,#852,#853);
#717=AXIS2_PLACEMENT_3D('',#1121,#854,#855);
#718=AXIS2_PLACEMENT_3D('',#1122,#856,#857);
#719=AXIS2_PLACEMENT_3D('',#1127,#859,#860);
#720=AXIS2_PLACEMENT_3D('',#1131,#862,#863);
#721=AXIS2_PLACEMENT_3D('',#1132,#864,#865);
#722=AXIS2_PLACEMENT_3D('',#1133,#866,#867);
#723=AXIS2_PLACEMENT_3D('',#1134,#868,#869);
#724=AXIS2_PLACEMENT_3D('',#1135,#870,#871);
#725=AXIS2_PLACEMENT_3D('',#1137,#872,#873);
#726=AXIS2_PLACEMENT_3D('',#1139,#875,#876);
#727=AXIS2_PLACEMENT_3D('',#1140,#877,#878);
#728=AXIS2_PLACEMENT_3D('',#1141,#879,#880);
#729=AXIS2_PLACEMENT_3D('',#1150,#883,#884);
#730=AXIS2_PLACEMENT_3D('',#1151,#885,#886);
#731=AXIS2_PLACEMENT_3D('',#1153,#887,#888);
#732=AXIS2_PLACEMENT_3D('',#1155,#889,#890);
#733=AXIS2_PLACEMENT_3D('',#1157,#892,#893);
#734=AXIS2_PLACEMENT_3D('',#1159,#894,#895);
#735=AXIS2_PLACEMENT_3D('',#1161,#896,#897);
#736=AXIS2_PLACEMENT_3D('',#1162,#898,#899);
#737=AXIS2_PLACEMENT_3D('',#1164,#900,#901);
#738=AXIS2_PLACEMENT_3D('',#1166,#902,#903);
#739=AXIS2_PLACEMENT_3D('',#1167,#904,#905);
#740=AXIS2_PLACEMENT_3D('',#1168,#906,#907);
#741=AXIS2_PLACEMENT_3D('',#1169,#908,#909);
#742=AXIS2_PLACEMENT_3D('',#1171,#910,#911);
#743=AXIS2_PLACEMENT_3D('',#1173,#912,#913);
#744=AXIS2_PLACEMENT_3D('',#1174,#914,#915);
#745=AXIS2_PLACEMENT_3D('',#1176,#916,#917);
#746=AXIS2_PLACEMENT_3D('',#1178,#918,#919);
#747=AXIS2_PLACEMENT_3D('',#1179,#920,#921);
#748=AXIS2_PLACEMENT_3D('',#1180,#922,#923);
#749=AXIS2_PLACEMENT_3D('',#1181,#924,#925);
#750=AXIS2_PLACEMENT_3D('',#1182,#926,#927);
#751=AXIS2_PLACEMENT_3D('',#1183,#928,#929);
#752=AXIS2_PLACEMENT_3D('',#1184,#930,#931);
#753=AXIS2_PLACEMENT_3D('',#1185,#932,#933);
#754=AXIS2_PLACEMENT_3D('',#1186,#934,#935);
#755=AXIS2_PLACEMENT_3D('',#1187,#936,#937);
#756=AXIS2_PLACEMENT_3D('',#1188,#938,#939);
#757=AXIS2_PLACEMENT_3D('',#1191,#942,#943);
#758=AXIS2_PLACEMENT_3D('',#1193,#945,#946);
#759=AXIS2_PLACEMENT_3D('',#1195,#948,#949);
#760=AXIS2_PLACEMENT_3D('',#1196,#950,#951);
#761=AXIS2_PLACEMENT_3D('',#1197,#952,#953);
#762=AXIS2_PLACEMENT_3D('',#1198,#954,#955);
#763=AXIS2_PLACEMENT_3D('',#1199,#956,#957);
#764=AXIS2_PLACEMENT_3D('',#1200,#958,#959);
#765=AXIS2_PLACEMENT_3D('',#1202,#960,#961);
#766=AXIS2_PLACEMENT_3D('',#1204,#962,#963);
#767=AXIS2_PLACEMENT_3D('',#1206,#964,#965);
#768=AXIS2_PLACEMENT_3D('',#1208,#966,#967);
#769=AXIS2_PLACEMENT_3D('',#1209,#968,#969);
#770=AXIS2_PLACEMENT_3D('',#1211,#970,#971);
#771=AXIS2_PLACEMENT_3D('',#1212,#972,#973);
#772=AXIS2_PLACEMENT_3D('',#1214,#974,#975);
#773=AXIS2_PLACEMENT_3D('',#1215,#976,#977);
#774=AXIS2_PLACEMENT_3D('',#1217,#978,#979);
#775=AXIS2_PLACEMENT_3D('',#1218,#980,#981);
#776=AXIS2_PLACEMENT_3D('',#1219,#982,#983);
#777=AXIS2_PLACEMENT_3D('',#1220,#984,#985);
#778=AXIS2_PLACEMENT_3D('',#1221,#986,#987);
#779=AXIS2_PLACEMENT_3D('',#1223,#988,#989);
#780=DIRECTION('',(0.,0.,1.));
#781=DIRECTION('',(1.,0.,0.));
#782=DIRECTION('',(0.,0.,-1.));
#783=DIRECTION('',(-1.,0.,0.));
#784=DIRECTION('',(1.,0.,0.));
#785=DIRECTION('',(0.,0.,-1.));
#786=DIRECTION('',(-1.,0.,0.));
#787=DIRECTION('',(0.,1.,0.));
#788=DIRECTION('',(0.,0.,1.));
#789=DIRECTION('',(1.,0.,0.));
#790=DIRECTION('',(0.,0.,1.));
#791=DIRECTION('',(1.,0.,0.));
#792=DIRECTION('',(1.,2.88599607818809E-16,0.));
#793=DIRECTION('',(-2.88599607818809E-16,1.,0.));
#794=DIRECTION('',(0.,0.,1.));
#795=DIRECTION('',(-2.88599607818809E-16,1.,0.));
#796=DIRECTION('',(0.,0.,-1.));
#797=DIRECTION('',(2.88599607818809E-16,-1.,0.));
#798=DIRECTION('',(1.,2.88599607818809E-16,0.));
#799=DIRECTION('',(-2.88599607818809E-16,1.,0.));
#800=DIRECTION('',(0.,1.,0.));
#801=DIRECTION('',(0.,0.,1.));
#802=DIRECTION('',(2.88599607818809E-16,-1.,0.));
#803=DIRECTION('',(0.,0.,-1.));
#804=DIRECTION('',(0.,0.,-1.));
#805=DIRECTION('',(1.,0.,0.));
#806=DIRECTION('',(1.,0.,0.));
#807=DIRECTION('',(0.,0.,-1.));
#808=DIRECTION('',(-1.,0.,0.));
#809=DIRECTION('',(0.,0.,1.));
#810=DIRECTION('',(1.,0.,0.));
#811=DIRECTION('',(0.,0.,1.));
#812=DIRECTION('',(1.,0.,0.));
#813=DIRECTION('',(0.,0.,1.));
#814=DIRECTION('',(1.,0.,0.));
#815=DIRECTION('',(2.88599607818809E-16,-1.,0.));
#816=DIRECTION('',(1.,0.,0.));
#817=DIRECTION('',(2.88599607818809E-16,-1.,0.));
#818=DIRECTION('',(0.,0.,1.));
#819=DIRECTION('',(1.,0.,0.));
#820=DIRECTION('',(1.,2.88599607818809E-16,0.));
#821=DIRECTION('',(-2.88599607818809E-16,1.,0.));
#822=DIRECTION('',(-2.88599607818809E-16,1.,0.));
#823=DIRECTION('',(0.,0.,1.));
#824=DIRECTION('',(0.,0.,-1.));
#825=DIRECTION('',(1.,2.88599607818809E-16,0.));
#826=DIRECTION('',(-2.88599607818809E-16,1.,0.));
#827=DIRECTION('',(0.,0.,1.));
#828=DIRECTION('',(-2.88599607818809E-16,1.,0.));
#829=DIRECTION('',(0.,0.,-1.));
#830=DIRECTION('',(0.,0.,1.));
#831=DIRECTION('',(1.,0.,0.));
#832=DIRECTION('',(0.,0.,1.));
#833=DIRECTION('',(1.,0.,0.));
#834=DIRECTION('',(0.,0.,1.));
#835=DIRECTION('',(1.,0.,0.));
#836=DIRECTION('',(0.,0.,1.));
#837=DIRECTION('',(1.,0.,0.));
#838=DIRECTION('',(0.,0.,1.));
#839=DIRECTION('',(1.,0.,0.));
#840=DIRECTION('',(0.,0.,1.));
#841=DIRECTION('',(1.,0.,0.));
#842=DIRECTION('',(0.,0.,-1.));
#843=DIRECTION('',(-1.,0.,0.));
#844=DIRECTION('',(0.,0.,1.));
#845=DIRECTION('',(1.,0.,0.));
#846=DIRECTION('',(0.,0.,1.));
#847=DIRECTION('',(1.,0.,0.));
#848=DIRECTION('',(0.,0.,-1.));
#849=DIRECTION('',(0.,0.,1.));
#850=DIRECTION('',(1.,0.,0.));
#851=DIRECTION('',(0.,0.,-1.));
#852=DIRECTION('',(0.,0.,1.));
#853=DIRECTION('',(1.,0.,0.));
#854=DIRECTION('',(0.,0.,-1.));
#855=DIRECTION('',(-1.,0.,0.));
#856=DIRECTION('',(0.,0.,-1.));
#857=DIRECTION('',(-1.,0.,0.));
#858=DIRECTION('',(0.,0.,-1.));
#859=DIRECTION('',(0.,0.,1.));
#860=DIRECTION('',(1.,0.,0.));
#861=DIRECTION('',(0.,0.,-1.));
#862=DIRECTION('',(0.,0.,1.));
#863=DIRECTION('',(1.,0.,0.));
#864=DIRECTION('',(0.,0.,1.));
#865=DIRECTION('',(1.,0.,0.));
#866=DIRECTION('',(0.,0.,-1.));
#867=DIRECTION('',(-1.,0.,0.));
#868=DIRECTION('',(0.,0.,-1.));
#869=DIRECTION('',(-1.,0.,0.));
#870=DIRECTION('',(0.,0.,1.));
#871=DIRECTION('',(1.,0.,0.));
#872=DIRECTION('',(0.,0.,-1.));
#873=DIRECTION('',(1.,0.,0.));
#874=DIRECTION('',(1.,0.,0.));
#875=DIRECTION('',(0.,0.,-1.));
#876=DIRECTION('',(-1.,0.,0.));
#877=DIRECTION('',(0.,0.,-1.));
#878=DIRECTION('',(-1.,0.,0.));
#879=DIRECTION('',(0.,0.,-1.));
#880=DIRECTION('',(-1.,0.,0.));
#881=DIRECTION('',(1.,0.,0.));
#882=DIRECTION('',(0.,1.,0.));
#883=DIRECTION('',(0.,0.,1.));
#884=DIRECTION('',(1.,0.,0.));
#885=DIRECTION('',(0.,0.,1.));
#886=DIRECTION('',(1.,0.,0.));
#887=DIRECTION('',(0.,0.,1.));
#888=DIRECTION('',(1.,0.,0.));
#889=DIRECTION('',(0.,0.,1.));
#890=DIRECTION('',(1.,0.,0.));
#891=DIRECTION('',(1.,0.,0.));
#892=DIRECTION('',(0.,0.,1.));
#893=DIRECTION('',(1.,0.,0.));
#894=DIRECTION('',(0.,0.,1.));
#895=DIRECTION('',(1.,0.,0.));
#896=DIRECTION('',(0.,0.,1.));
#897=DIRECTION('',(1.,0.,0.));
#898=DIRECTION('',(0.,0.,1.));
#899=DIRECTION('',(1.,0.,0.));
#900=DIRECTION('',(0.,0.,1.));
#901=DIRECTION('',(1.,0.,0.));
#902=DIRECTION('',(0.,0.,1.));
#903=DIRECTION('',(1.,0.,0.));
#904=DIRECTION('',(0.,0.,1.));
#905=DIRECTION('',(1.,0.,0.));
#906=DIRECTION('',(0.,0.,1.));
#907=DIRECTION('',(1.,0.,0.));
#908=DIRECTION('',(0.,0.,1.));
#909=DIRECTION('',(1.,0.,0.));
#910=DIRECTION('',(0.,0.,1.));
#911=DIRECTION('',(1.,0.,0.));
#912=DIRECTION('',(0.,0.,1.));
#913=DIRECTION('',(1.,0.,0.));
#914=DIRECTION('',(0.,0.,1.));
#915=DIRECTION('',(1.,0.,0.));
#916=DIRECTION('',(0.,0.,1.));
#917=DIRECTION('',(1.,0.,0.));
#918=DIRECTION('',(0.,0.,1.));
#919=DIRECTION('',(1.,0.,0.));
#920=DIRECTION('',(0.,0.,1.));
#921=DIRECTION('',(1.,0.,0.));
#922=DIRECTION('',(0.,0.,1.));
#923=DIRECTION('',(1.,0.,0.));
#924=DIRECTION('',(0.,0.,1.));
#925=DIRECTION('',(1.,0.,0.));
#926=DIRECTION('',(0.,0.,1.));
#927=DIRECTION('',(1.,0.,0.));
#928=DIRECTION('',(0.,0.,1.));
#929=DIRECTION('',(1.,0.,0.));
#930=DIRECTION('',(0.,-1.,0.));
#931=DIRECTION('',(0.,0.,-1.));
#932=DIRECTION('',(0.,-1.,0.));
#933=DIRECTION('',(0.,0.,-1.));
#934=DIRECTION('',(0.,1.,0.));
#935=DIRECTION('',(0.,0.,1.));
#936=DIRECTION('',(0.,1.,0.));
#937=DIRECTION('',(0.0745217539451622,0.,0.997219388193459));
#938=DIRECTION('',(-1.,0.,0.));
#939=DIRECTION('',(0.,0.,1.));
#940=DIRECTION('',(0.,1.,0.));
#941=DIRECTION('',(0.,1.,0.));
#942=DIRECTION('',(0.,0.,1.));
#943=DIRECTION('',(1.,0.,0.));
#944=DIRECTION('',(0.,1.,0.));
#945=DIRECTION('',(-1.,0.,0.));
#946=DIRECTION('',(0.,0.,1.));
#947=DIRECTION('',(0.,1.,0.));
#948=DIRECTION('',(0.,0.,1.));
#949=DIRECTION('',(1.,0.,0.));
#950=DIRECTION('',(0.,0.,1.));
#951=DIRECTION('',(1.,0.,0.));
#952=DIRECTION('',(0.,0.,1.));
#953=DIRECTION('',(1.,0.,0.));
#954=DIRECTION('',(0.,0.,1.));
#955=DIRECTION('',(1.,0.,0.));
#956=DIRECTION('',(0.,0.,1.));
#957=DIRECTION('',(1.,0.,0.));
#958=DIRECTION('',(0.,0.,-1.));
#959=DIRECTION('',(-1.,0.,0.));
#960=DIRECTION('',(0.,0.,-1.));
#961=DIRECTION('',(-1.,0.,0.));
#962=DIRECTION('',(0.,0.,-1.));
#963=DIRECTION('',(-1.,0.,0.));
#964=DIRECTION('',(0.,0.,-1.));
#965=DIRECTION('',(-1.,0.,0.));
#966=DIRECTION('',(0.,0.,-1.));
#967=DIRECTION('',(-1.,0.,0.));
#968=DIRECTION('',(0.,0.,-1.));
#969=DIRECTION('',(-1.,0.,0.));
#970=DIRECTION('',(0.,0.,-1.));
#971=DIRECTION('',(-1.,0.,0.));
#972=DIRECTION('',(0.,0.,-1.));
#973=DIRECTION('',(-1.,0.,0.));
#974=DIRECTION('',(0.,0.,-1.));
#975=DIRECTION('',(-1.,0.,0.));
#976=DIRECTION('',(0.,0.,-1.));
#977=DIRECTION('',(-1.,0.,0.));
#978=DIRECTION('',(0.,0.,-1.));
#979=DIRECTION('',(1.,0.,0.));
#980=DIRECTION('',(0.,0.,-1.));
#981=DIRECTION('',(1.,0.,0.));
#982=DIRECTION('',(0.,0.,-1.));
#983=DIRECTION('',(1.,0.,0.));
#984=DIRECTION('',(0.,0.,-1.));
#985=DIRECTION('',(-1.,0.,0.));
#986=DIRECTION('',(0.,0.,-1.));
#987=DIRECTION('',(-1.,0.,0.));
#988=DIRECTION('',(0.,0.,-1.));
#989=DIRECTION('',(1.,0.,0.));
#990=CARTESIAN_POINT('',(0.,0.,0.));
#991=CARTESIAN_POINT('',(0.,4.13318294712231E-18,0.0253));
#992=CARTESIAN_POINT('',(0.0315,-0.0301,0.0453));
#993=CARTESIAN_POINT('',(0.0367456119829464,-0.0301,0.0453));
#994=CARTESIAN_POINT('',(0.0368272995343582,-0.0301,0.0452999500388543));
#995=CARTESIAN_POINT('',(0.,4.13318294712231E-18,0.0453));
#996=CARTESIAN_POINT('',(0.0368272996566406,-0.03,0.0453));
#997=CARTESIAN_POINT('',(0.0368272996566406,-0.0301,0.0453));
#998=CARTESIAN_POINT('',(0.0315,-0.0301,0.0453));
#999=CARTESIAN_POINT('',(0.,0.,0.));
#1000=CARTESIAN_POINT('',(0.02145,0.0360649861395359,0.076902));
#1001=CARTESIAN_POINT('',(0.02145,-0.0301,0.001998));
#1002=CARTESIAN_POINT('',(0.02145,-0.0301,0.0453));
#1003=CARTESIAN_POINT('',(0.02145,-0.0301,0.0563));
#1004=CARTESIAN_POINT('',(0.02145,0.0360649861395359,0.0453));
#1005=CARTESIAN_POINT('',(0.02145,-0.04238098040395,0.0453));
#1006=CARTESIAN_POINT('',(0.02145,-0.04238098040395,0.0453));
#1007=CARTESIAN_POINT('',(0.02145,-0.0437572016054407,0.0453));
#1008=CARTESIAN_POINT('',(0.02145,-0.0464656673164495,0.045077875573427));
#1009=CARTESIAN_POINT('',(0.02145,-0.0504579130045591,0.0440430742904803));
#1010=CARTESIAN_POINT('',(0.02145,-0.0535539517237175,0.0425945885209643));
#1011=CARTESIAN_POINT('',(0.02145,-0.0558216548138412,0.0411115014425271));
#1012=CARTESIAN_POINT('',(0.02145,-0.0579741205138709,0.0393783306710423));
#1013=CARTESIAN_POINT('',(0.02145,-0.0602686613069183,0.0368813685875664));
#1014=CARTESIAN_POINT('',(0.02145,-0.0623929953340792,0.0333101757175895));
#1015=CARTESIAN_POINT('',(0.02145,-0.0636937040518473,0.0294424399512072));
#1016=CARTESIAN_POINT('',(0.02145,-0.064001152333376,0.0266802502032293));
#1017=CARTESIAN_POINT('',(0.02145,-0.064001152333376,0.0253));
#1018=CARTESIAN_POINT('',(0.02145,-0.064001152333376,0.0253));
#1019=CARTESIAN_POINT('',(0.02145,-0.064001152333376,0.076902));
#1020=CARTESIAN_POINT('',(0.02145,-0.064001152333376,0.0563));
#1021=CARTESIAN_POINT('',(0.02145,0.0360649861395359,0.0563));
#1022=CARTESIAN_POINT('',(0.04155,0.,0.076902));
#1023=CARTESIAN_POINT('',(0.04155,-0.0301,0.0449463166795092));
#1024=CARTESIAN_POINT('',(0.04155,-0.0301,0.0449463166795092));
#1025=CARTESIAN_POINT('',(0.04155,-0.03,0.0449455899646371));
#1026=CARTESIAN_POINT('',(0.04155,-0.0301,0.001998));
#1027=CARTESIAN_POINT('',(0.04155,-0.0301,0.0563));
#1028=CARTESIAN_POINT('',(0.04155,0.,0.0563));
#1029=CARTESIAN_POINT('',(0.04155,-0.0531963109623214,0.0563));
#1030=CARTESIAN_POINT('',(0.04155,-0.0531963109623214,0.076902));
#1031=CARTESIAN_POINT('',(0.04155,-0.0531963109623214,0.0253));
#1032=CARTESIAN_POINT('',(0.04155,-0.0531963109623214,0.0253));
#1033=CARTESIAN_POINT('',(0.04155,-0.0531963109623214,0.0267053159518476));
#1034=CARTESIAN_POINT('',(0.04155,-0.0528268713773626,0.0294542737802514));
#1035=CARTESIAN_POINT('',(0.04155,-0.0512195057100169,0.0333632690852619));
#1036=CARTESIAN_POINT('',(0.04155,-0.048736367140761,0.03675872113681));
#1037=CARTESIAN_POINT('',(0.04155,-0.0456093008844547,0.039546079813686));
#1038=CARTESIAN_POINT('',(0.04155,-0.042023900289512,0.0417148503581195));
#1039=CARTESIAN_POINT('',(0.04155,-0.0381904341406916,0.0432881952356693));
#1040=CARTESIAN_POINT('',(0.04155,-0.0341316050646803,0.0443673612959106));
#1041=CARTESIAN_POINT('',(0.04155,-0.0313863719350522,0.044790741913514));
#1042=CARTESIAN_POINT('',(0.04155,-0.03,0.0449455899646371));
#1043=CARTESIAN_POINT('',(0.,0.,0.0453));
#1044=CARTESIAN_POINT('',(0.0315,-0.0301,0.0453));
#1045=CARTESIAN_POINT('',(0.0367456119829464,-0.0301,0.0453));
#1046=CARTESIAN_POINT('',(0.,4.13318294712231E-18,0.0453));
#1047=CARTESIAN_POINT('',(0.,0.,0.0563));
#1048=CARTESIAN_POINT('',(0.0365,0.01475,0.0563));
#1049=CARTESIAN_POINT('',(0.0398,0.01475,0.0563));
#1050=CARTESIAN_POINT('',(0.0265,0.01475,0.0563));
#1051=CARTESIAN_POINT('',(0.0298,0.01475,0.0563));
#1052=CARTESIAN_POINT('',(0.02145,0.0360649861395359,0.0563));
#1053=CARTESIAN_POINT('',(0.02145,0.064001152333376,0.0563));
#1054=CARTESIAN_POINT('',(0.02145,0.0101,0.0563));
#1055=CARTESIAN_POINT('',(0.036525,0.0101,0.0563));
#1056=CARTESIAN_POINT('',(0.04155,0.0101,0.0563));
#1057=CARTESIAN_POINT('',(0.04155,0.,0.0563));
#1058=CARTESIAN_POINT('',(0.04155,0.0531963109623214,0.0563));
#1059=CARTESIAN_POINT('',(0.,4.13318294712231E-18,0.0563));
#1060=CARTESIAN_POINT('',(0.02145,0.0360649861395359,0.076902));
#1061=CARTESIAN_POINT('',(0.02145,0.0360649861395359,0.0453));
#1062=CARTESIAN_POINT('',(0.02145,0.0101,0.0453));
#1063=CARTESIAN_POINT('',(0.02145,0.0423809804039501,0.0453));
#1064=CARTESIAN_POINT('',(0.02145,0.0101,0.001998));
#1065=CARTESIAN_POINT('',(0.02145,0.064001152333376,0.076902));
#1066=CARTESIAN_POINT('',(0.02145,0.064001152333376,0.0253));
#1067=CARTESIAN_POINT('',(0.02145,0.064001152333376,0.0253));
#1068=CARTESIAN_POINT('',(0.02145,0.064001152333376,0.0266779861973486));
#1069=CARTESIAN_POINT('',(0.02145,0.0637086974889673,0.0293769976789817));
#1070=CARTESIAN_POINT('',(0.02145,0.0623906102902921,0.03331471133895));
#1071=CARTESIAN_POINT('',(0.02145,0.0606581341772472,0.0362382827161651));
#1072=CARTESIAN_POINT('',(0.02145,0.0589010850446242,0.0383673823696303));
#1073=CARTESIAN_POINT('',(0.02145,0.0569698739859035,0.0402735794975506));
#1074=CARTESIAN_POINT('',(0.02145,0.0541781356727811,0.0423052227626185));
#1075=CARTESIAN_POINT('',(0.02145,0.0504790376934401,0.0440342086674488));
#1076=CARTESIAN_POINT('',(0.02145,0.046472413085823,0.045078333488));
#1077=CARTESIAN_POINT('',(0.02145,0.0437559456808172,0.0453));
#1078=CARTESIAN_POINT('',(0.02145,0.0423809804039501,0.0453));
#1079=CARTESIAN_POINT('',(0.04155,0.,0.076902));
#1080=CARTESIAN_POINT('',(0.04155,0.0101,0.001998));
#1081=CARTESIAN_POINT('',(0.04155,0.0101,0.0453));
#1082=CARTESIAN_POINT('',(0.04155,0.,0.0453));
#1083=CARTESIAN_POINT('',(0.04155,0.0230184165398057,0.0453));
#1084=CARTESIAN_POINT('',(0.04155,0.0230184165398057,0.0453));
#1085=CARTESIAN_POINT('',(0.04155,0.0263837094296258,0.0453));
#1086=CARTESIAN_POINT('',(0.04155,0.0313788713753457,0.0450100400675941));
#1087=CARTESIAN_POINT('',(0.04155,0.0379533826699158,0.0434095107179462));
#1088=CARTESIAN_POINT('',(0.04155,0.0426079736162148,0.0414762609591581));
#1089=CARTESIAN_POINT('',(0.04155,0.046156164370783,0.0391109427836042));
#1090=CARTESIAN_POINT('',(0.04155,0.0485734005457776,0.0367982918785136));
#1091=CARTESIAN_POINT('',(0.04155,0.0501814447534454,0.0348079865029699));
#1092=CARTESIAN_POINT('',(0.04155,0.0514780248447238,0.0326501144749929));
#1093=CARTESIAN_POINT('',(0.04155,0.0527839855261869,0.0295143218700772));
#1094=CARTESIAN_POINT('',(0.04155,0.0531963109623215,0.0270038750553366));
#1095=CARTESIAN_POINT('',(0.04155,0.0531963109623215,0.0253));
#1096=CARTESIAN_POINT('',(0.04155,0.0531963109623215,0.0253));
#1097=CARTESIAN_POINT('',(0.04155,0.0531963109623214,0.076902));
#1098=CARTESIAN_POINT('',(0.,4.34749613697311E-18,0.0769));
#1099=CARTESIAN_POINT('',(0.,4.34749613697311E-18,0.0779));
#1100=CARTESIAN_POINT('',(0.071,4.34749613697311E-18,0.0779));
#1101=CARTESIAN_POINT('',(0.,4.34749613697311E-18,0.081));
#1102=CARTESIAN_POINT('',(0.071,4.34749613697311E-18,0.081));
#1103=CARTESIAN_POINT('',(0.,8.75622461390358E-18,0.077));
#1104=CARTESIAN_POINT('',(0.,8.75622461390358E-18,0.078));
#1105=CARTESIAN_POINT('',(0.072,8.75622461390358E-18,0.078));
#1106=CARTESIAN_POINT('',(0.,8.75622461390358E-18,0.081));
#1107=CARTESIAN_POINT('',(0.072,8.75622461390358E-18,0.081));
#1108=CARTESIAN_POINT('',(0.,4.43934464690915E-18,0.08));
#1109=CARTESIAN_POINT('',(0.,4.43934464690915E-18,0.0007));
#1110=CARTESIAN_POINT('',(0.0725,4.43934464690915E-18,0.0007));
#1111=CARTESIAN_POINT('',(0.,4.43934464690915E-18,0.0153444619064291));
#1112=CARTESIAN_POINT('',(-0.0537069177979804,-0.0487013036852298,0.0153444619064291));
#1113=CARTESIAN_POINT('',(-0.0437069177979804,-0.0578442333910701,0.0153444619064291));
#1114=CARTESIAN_POINT('',(-0.0537069177979804,-0.0487013036852298,0.08));
#1115=CARTESIAN_POINT('',(-0.0537069177979804,-0.0487013036852298,0.0253444619064291));
#1116=CARTESIAN_POINT('',(0.,4.43934464690915E-18,0.0253444619064291));
#1117=CARTESIAN_POINT('',(-0.0437069177979804,-0.0578442333910701,0.0253444619064291));
#1118=CARTESIAN_POINT('',(-0.0437069177979804,-0.0578442333910701,0.08));
#1119=CARTESIAN_POINT('',(0.,4.43934464690915E-18,0.078));
#1120=CARTESIAN_POINT('',(0.0725,4.43934464690915E-18,0.078));
#1121=CARTESIAN_POINT('',(0.,4.13318294712231E-18,0.076902));
#1122=CARTESIAN_POINT('',(0.,-4.13318294712231E-18,0.0007));
#1123=CARTESIAN_POINT('',(-0.0675,-4.13318294712231E-18,0.0007));
#1124=CARTESIAN_POINT('',(-0.0537069177979804,-0.0408878585969109,0.076902));
#1125=CARTESIAN_POINT('',(-0.0537069177979804,-0.0408878585969109,0.0153444619064291));
#1126=CARTESIAN_POINT('',(-0.0537069177979804,-0.0408878585969109,0.0253444619064291));
#1127=CARTESIAN_POINT('',(0.,4.13318294712231E-18,0.0153444619064291));
#1128=CARTESIAN_POINT('',(-0.0437069177979804,-0.0514388504595562,0.0153444619064291));
#1129=CARTESIAN_POINT('',(-0.0437069177979804,-0.0514388504595562,0.076902));
#1130=CARTESIAN_POINT('',(-0.0437069177979804,-0.0514388504595562,0.0253444619064291));
#1131=CARTESIAN_POINT('',(0.,4.13318294712231E-18,0.0253444619064291));
#1132=CARTESIAN_POINT('',(0.,4.13318294712231E-18,0.0563));
#1133=CARTESIAN_POINT('',(0.,4.13318294712231E-18,0.0253));
#1134=CARTESIAN_POINT('',(0.,4.13318294712231E-18,0.0253));
#1135=CARTESIAN_POINT('',(0.,4.13318294712231E-18,0.0779));
#1136=CARTESIAN_POINT('',(0.0675,4.13318294712231E-18,0.0779));
#1137=CARTESIAN_POINT('',(0.,0.,0.0453));
#1138=CARTESIAN_POINT('',(0.036525,0.0101,0.0453));
#1139=CARTESIAN_POINT('',(0.,4.13318294712231E-18,0.0453));
#1140=CARTESIAN_POINT('',(0.,4.13318294712231E-18,0.0253));
#1141=CARTESIAN_POINT('',(0.,4.13318294712231E-18,0.0253));
#1142=CARTESIAN_POINT('',(0.0315,-0.0301,0.0453));
#1143=CARTESIAN_POINT('',(0.0368272995343582,-0.0301,0.0452999500388543));
#1144=CARTESIAN_POINT('',(0.0368272996566406,-0.0301,0.0453));
#1145=CARTESIAN_POINT('',(0.0368272996566406,-0.03,0.0453));
#1146=CARTESIAN_POINT('',(0.04155,-0.03,0.0449455899646371));
#1147=CARTESIAN_POINT('',(0.0399850682595682,-0.03,0.0451876767916042));
#1148=CARTESIAN_POINT('',(0.0384103985460907,-0.03,0.0453));
#1149=CARTESIAN_POINT('',(0.0368272996566406,-0.03,0.0453));
#1150=CARTESIAN_POINT('',(0.0265,0.01475,0.0552));
#1151=CARTESIAN_POINT('',(0.0265,0.01475,0.0553));
#1152=CARTESIAN_POINT('',(0.0288,0.01475,0.0553));
#1153=CARTESIAN_POINT('',(0.0265,0.01475,0.0522));
#1154=CARTESIAN_POINT('',(0.0288,0.01475,0.0522));
#1155=CARTESIAN_POINT('',(0.,0.,0.0563));
#1156=CARTESIAN_POINT('',(0.0315,-0.0301,0.0563));
#1157=CARTESIAN_POINT('',(0.0365,-0.03475,0.0563));
#1158=CARTESIAN_POINT('',(0.0398,-0.03475,0.0563));
#1159=CARTESIAN_POINT('',(0.0265,-0.03475,0.0563));
#1160=CARTESIAN_POINT('',(0.0298,-0.03475,0.0563));
#1161=CARTESIAN_POINT('',(0.0365,-0.03475,0.0552));
#1162=CARTESIAN_POINT('',(0.0365,-0.03475,0.0553));
#1163=CARTESIAN_POINT('',(0.0388,-0.03475,0.0553));
#1164=CARTESIAN_POINT('',(0.0365,-0.03475,0.0522));
#1165=CARTESIAN_POINT('',(0.0388,-0.03475,0.0522));
#1166=CARTESIAN_POINT('',(0.0315,0.014503545573811,0.0522));
#1167=CARTESIAN_POINT('',(0.0315,0.014503545573811,0.0522));
#1168=CARTESIAN_POINT('',(0.0365,0.01475,0.0552));
#1169=CARTESIAN_POINT('',(0.0365,0.01475,0.0553));
#1170=CARTESIAN_POINT('',(0.0388,0.01475,0.0553));
#1171=CARTESIAN_POINT('',(0.0365,0.01475,0.0522));
#1172=CARTESIAN_POINT('',(0.0388,0.01475,0.0522));
#1173=CARTESIAN_POINT('',(0.0265,-0.03475,0.0552));
#1174=CARTESIAN_POINT('',(0.0265,-0.03475,0.0553));
#1175=CARTESIAN_POINT('',(0.0288,-0.03475,0.0553));
#1176=CARTESIAN_POINT('',(0.0265,-0.03475,0.0522));
#1177=CARTESIAN_POINT('',(0.0288,-0.03475,0.0522));
#1178=CARTESIAN_POINT('',(0.0315,0.014503545573811,0.0522));
#1179=CARTESIAN_POINT('',(0.0315,0.014503545573811,0.0522));
#1180=CARTESIAN_POINT('',(0.0365,-0.03475,0.0553));
#1181=CARTESIAN_POINT('',(0.0265,-0.03475,0.0553));
#1182=CARTESIAN_POINT('',(0.0365,0.01475,0.0553));
#1183=CARTESIAN_POINT('',(0.0265,0.01475,0.0553));
#1184=CARTESIAN_POINT('',(0.036525,0.0101,0.001998));
#1185=CARTESIAN_POINT('',(0.0315,-0.0301,0.001998));
#1186=CARTESIAN_POINT('',(0.036897232891754,-0.0301,0.0144596162933955));
#1187=CARTESIAN_POINT('',(0.036897232891754,-0.0300999999999995,0.0144596162933955));
#1188=CARTESIAN_POINT('',(-0.0537069177979804,-0.1217,0.0203444619064291));
#1189=CARTESIAN_POINT('',(-0.0537069177979804,-0.1217,0.0153444619064291));
#1190=CARTESIAN_POINT('',(-0.0537069177979804,-0.1217,0.0253444619064291));
#1191=CARTESIAN_POINT('',(-0.0512069177979804,-0.1217,0.0153444619064291));
#1192=CARTESIAN_POINT('',(-0.0437069177979804,-0.1217,0.0153444619064291));
#1193=CARTESIAN_POINT('',(-0.0437069177979804,-0.1217,0.0203444619064291));
#1194=CARTESIAN_POINT('',(-0.0437069177979804,-0.1217,0.0253444619064291));
#1195=CARTESIAN_POINT('',(-0.0487069177979804,-0.1217,0.0253444619064291));
#1196=CARTESIAN_POINT('',(0.,0.,0.078));
#1197=CARTESIAN_POINT('',(0.,0.,0.081));
#1198=CARTESIAN_POINT('',(0.,0.,0.0779));
#1199=CARTESIAN_POINT('',(0.,0.,0.0007));
#1200=CARTESIAN_POINT('',(-0.07,-1.34711147906209E-19,0.0007));
#1201=CARTESIAN_POINT('',(-0.0722,-1.34711147906209E-19,0.0007));
#1202=CARTESIAN_POINT('',(0.,0.07,0.0007));
#1203=CARTESIAN_POINT('',(-0.0022,0.07,0.0007));
#1204=CARTESIAN_POINT('',(0.07,-1.34711147906209E-19,0.0007));
#1205=CARTESIAN_POINT('',(0.0678,-1.34711147906209E-19,0.0007));
#1206=CARTESIAN_POINT('',(0.,-0.07,0.0007));
#1207=CARTESIAN_POINT('',(-0.0022,-0.07,0.0007));
#1208=CARTESIAN_POINT('',(0.,0.07,0.007));
#1209=CARTESIAN_POINT('',(0.,0.07,0.0077));
#1210=CARTESIAN_POINT('',(-0.0022,0.07,0.0077));
#1211=CARTESIAN_POINT('',(0.07,-1.34711147906209E-19,0.007));
#1212=CARTESIAN_POINT('',(0.07,-1.34711147906209E-19,0.0077));
#1213=CARTESIAN_POINT('',(0.0678,-1.34711147906209E-19,0.0077));
#1214=CARTESIAN_POINT('',(0.,-0.07,0.007));
#1215=CARTESIAN_POINT('',(0.,-0.07,0.0077));
#1216=CARTESIAN_POINT('',(-0.0022,-0.07,0.0077));
#1217=CARTESIAN_POINT('',(0.,0.,0.0077));
#1218=CARTESIAN_POINT('',(0.,0.,0.0077));
#1219=CARTESIAN_POINT('',(0.,0.,0.0077));
#1220=CARTESIAN_POINT('',(-0.07,-1.34711147906209E-19,0.007));
#1221=CARTESIAN_POINT('',(-0.07,-1.34711147906209E-19,0.0077));
#1222=CARTESIAN_POINT('',(-0.0722,-1.34711147906209E-19,0.0077));
#1223=CARTESIAN_POINT('',(0.,0.,0.0077));
#1224=MECHANICAL_DESIGN_GEOMETRIC_PRESENTATION_REPRESENTATION('',(#670),
#1226);
#1225=MECHANICAL_DESIGN_GEOMETRIC_PRESENTATION_REPRESENTATION('',(#671),
#1227);
#1226=(
GEOMETRIC_REPRESENTATION_CONTEXT(3)
GLOBAL_UNCERTAINTY_ASSIGNED_CONTEXT((#1228))
GLOBAL_UNIT_ASSIGNED_CONTEXT((#1234,#1232,#1230))
REPRESENTATION_CONTEXT('Part 2','TOP_LEVEL_ASSEMBLY_PART')
);
#1227=(
GEOMETRIC_REPRESENTATION_CONTEXT(3)
GLOBAL_UNCERTAINTY_ASSIGNED_CONTEXT((#1229))
GLOBAL_UNIT_ASSIGNED_CONTEXT((#1235,#1233,#1231))
REPRESENTATION_CONTEXT('Part 1','TOP_LEVEL_ASSEMBLY_PART')
);
#1228=UNCERTAINTY_MEASURE_WITH_UNIT(LENGTH_MEASURE(2.00999225906884E-5),
#1234,'DISTANCE_ACCURACY_VALUE','Maximum Tolerance applied to model');
#1229=UNCERTAINTY_MEASURE_WITH_UNIT(LENGTH_MEASURE(2.00999225906884E-5),
#1235,'DISTANCE_ACCURACY_VALUE','Maximum Tolerance applied to model');
#1230=(
NAMED_UNIT(*)
SI_UNIT($,.STERADIAN.)
SOLID_ANGLE_UNIT()
);
#1231=(
NAMED_UNIT(*)
SI_UNIT($,.STERADIAN.)
SOLID_ANGLE_UNIT()
);
#1232=(
NAMED_UNIT(*)
PLANE_ANGLE_UNIT()
SI_UNIT($,.RADIAN.)
);
#1233=(
NAMED_UNIT(*)
PLANE_ANGLE_UNIT()
SI_UNIT($,.RADIAN.)
);
#1234=(
LENGTH_UNIT()
NAMED_UNIT(*)
SI_UNIT($,.METRE.)
);
#1235=(
LENGTH_UNIT()
NAMED_UNIT(*)
SI_UNIT($,.METRE.)
);
#1236=PRODUCT_DEFINITION_SHAPE('','',#1238);
#1237=PRODUCT_DEFINITION_SHAPE('','',#1239);
#1238=PRODUCT_DEFINITION('','',#1242,#1240);
#1239=PRODUCT_DEFINITION('','',#1243,#1241);
#1240=PRODUCT_DEFINITION_CONTEXT('',#1254,'design');
#1241=PRODUCT_DEFINITION_CONTEXT('',#1255,'design');
#1242=PRODUCT_DEFINITION_FORMATION_WITH_SPECIFIED_SOURCE('','',#1246,
 .NOT_KNOWN.);
#1243=PRODUCT_DEFINITION_FORMATION_WITH_SPECIFIED_SOURCE('','',#1247,
 .NOT_KNOWN.);
#1244=PRODUCT_RELATED_PRODUCT_CATEGORY('','',(#1246));
#1245=PRODUCT_RELATED_PRODUCT_CATEGORY('','',(#1247));
#1246=PRODUCT('Part 2','Part 2','Part 2',(#1250));
#1247=PRODUCT('Part 1','Part 1','Part 1',(#1251));
#1248=PRODUCT_CATEGORY('','');
#1249=PRODUCT_CATEGORY('','');
#1250=PRODUCT_CONTEXT('',#1254,'mechanical');
#1251=PRODUCT_CONTEXT('',#1255,'mechanical');
#1252=APPLICATION_PROTOCOL_DEFINITION('international standard',
'ap242_managed_model_based_3d_engineering',2020,#1254);
#1253=APPLICATION_PROTOCOL_DEFINITION('international standard',
'ap242_managed_model_based_3d_engineering',2020,#1255);
#1254=APPLICATION_CONTEXT('managed model based 3d engineering');
#1255=APPLICATION_CONTEXT('managed model based 3d engineering');
ENDSEC;
END-ISO-10303-21;
