ISO-10303-21;
HEADER;
/* Generated by software containing ST-Developer
 * from STEP Tools, Inc. (www.steptools.com) 
 */
/* OPTION: using custom renumber hook */

FILE_DESCRIPTION(
/* description */ ('STEP AP242 Edition 2',
'CAx-IF Rec.Pracs.---Representation and Presentation of Product Manufa
cturing Information (PMI)---4.0---2014-10-13',
'CAx-IF Rec.Pracs.---3D Tessellated Geometry---0.4---2014-09-14','2;1',
'CAx-IF Rec.Pracs.---User Defined Attributes---1.5---2016-08-15'),
/* implementation_level */ '2;1');

FILE_NAME(
/* name */ 'Base to Claw connector',
/* time_stamp */ '2026-09-01T03:59:12Z',
/* author */ (''),
/* organization */ (''),
/* preprocessor_version */ 'ST-DEVELOPER v20',
/* originating_system */ 'ONSHAPE BY PTC INC, 1.220',
/* authorisation */ '  ');

FILE_SCHEMA (('AP242_MANAGED_MODEL_BASED_3D_ENGINEERING_MIM_LF { 1 0 10303 442 3 1 4 }'));
ENDSEC;

DATA;
#10=SHAPE_REPRESENTATION_RELATIONSHIP('','',#151,#11);
#11=ADVANCED_BREP_SHAPE_REPRESENTATION('',(#149),#249);
#12=CIRCLE('',#156,0.00175);
#13=CIRCLE('',#157,0.00175);
#14=CIRCLE('',#159,0.00175);
#15=CIRCLE('',#160,0.00175);
#16=CIRCLE('',#162,0.0025);
#17=CIRCLE('',#163,0.0025);
#18=CIRCLE('',#165,0.0025);
#19=CIRCLE('',#167,0.0025);
#20=CYLINDRICAL_SURFACE('',#155,0.00175);
#21=CYLINDRICAL_SURFACE('',#158,0.00175);
#22=CYLINDRICAL_SURFACE('',#164,0.0025);
#23=CYLINDRICAL_SURFACE('',#166,0.0025);
#24=ORIENTED_EDGE('',*,*,#56,.T.);
#25=ORIENTED_EDGE('',*,*,#57,.T.);
#26=ORIENTED_EDGE('',*,*,#58,.T.);
#27=ORIENTED_EDGE('',*,*,#59,.F.);
#28=ORIENTED_EDGE('',*,*,#60,.T.);
#29=ORIENTED_EDGE('',*,*,#61,.T.);
#30=ORIENTED_EDGE('',*,*,#62,.F.);
#31=ORIENTED_EDGE('',*,*,#63,.T.);
#32=ORIENTED_EDGE('',*,*,#64,.F.);
#33=ORIENTED_EDGE('',*,*,#65,.T.);
#34=ORIENTED_EDGE('',*,*,#66,.F.);
#35=ORIENTED_EDGE('',*,*,#67,.T.);
#36=ORIENTED_EDGE('',*,*,#59,.T.);
#37=ORIENTED_EDGE('',*,*,#68,.T.);
#38=ORIENTED_EDGE('',*,*,#60,.F.);
#39=ORIENTED_EDGE('',*,*,#69,.T.);
#40=ORIENTED_EDGE('',*,*,#64,.T.);
#41=ORIENTED_EDGE('',*,*,#66,.T.);
#42=ORIENTED_EDGE('',*,*,#68,.F.);
#43=ORIENTED_EDGE('',*,*,#58,.F.);
#44=ORIENTED_EDGE('',*,*,#70,.F.);
#45=ORIENTED_EDGE('',*,*,#61,.F.);
#46=ORIENTED_EDGE('',*,*,#63,.F.);
#47=ORIENTED_EDGE('',*,*,#71,.F.);
#48=ORIENTED_EDGE('',*,*,#56,.F.);
#49=ORIENTED_EDGE('',*,*,#69,.F.);
#50=ORIENTED_EDGE('',*,*,#70,.T.);
#51=ORIENTED_EDGE('',*,*,#57,.F.);
#52=ORIENTED_EDGE('',*,*,#71,.T.);
#53=ORIENTED_EDGE('',*,*,#62,.T.);
#54=ORIENTED_EDGE('',*,*,#65,.F.);
#55=ORIENTED_EDGE('',*,*,#67,.F.);
#56=EDGE_CURVE('',#72,#73,#84,.F.);
#57=EDGE_CURVE('',#73,#74,#85,.T.);
#58=EDGE_CURVE('',#74,#75,#86,.T.);
#59=EDGE_CURVE('',#72,#75,#87,.T.);
#60=EDGE_CURVE('',#76,#77,#88,.T.);
#61=EDGE_CURVE('',#77,#78,#89,.F.);
#62=EDGE_CURVE('',#79,#78,#90,.T.);
#63=EDGE_CURVE('',#79,#76,#91,.T.);
#64=EDGE_CURVE('',#80,#80,#12,.T.);
#65=EDGE_CURVE('',#81,#81,#13,.T.);
#66=EDGE_CURVE('',#82,#82,#14,.T.);
#67=EDGE_CURVE('',#83,#83,#15,.T.);
#68=EDGE_CURVE('',#75,#77,#16,.F.);
#69=EDGE_CURVE('',#76,#72,#17,.F.);
#70=EDGE_CURVE('',#78,#74,#18,.T.);
#71=EDGE_CURVE('',#73,#79,#19,.T.);
#72=VERTEX_POINT('',#214);
#73=VERTEX_POINT('',#215);
#74=VERTEX_POINT('',#217);
#75=VERTEX_POINT('',#219);
#76=VERTEX_POINT('',#223);
#77=VERTEX_POINT('',#224);
#78=VERTEX_POINT('',#226);
#79=VERTEX_POINT('',#228);
#80=VERTEX_POINT('',#232);
#81=VERTEX_POINT('',#234);
#82=VERTEX_POINT('',#237);
#83=VERTEX_POINT('',#239);
#84=LINE('',#213,#92);
#85=LINE('',#216,#93);
#86=LINE('',#218,#94);
#87=LINE('',#220,#95);
#88=LINE('',#222,#96);
#89=LINE('',#225,#97);
#90=LINE('',#227,#98);
#91=LINE('',#229,#99);
#92=VECTOR('',#173,1.);
#93=VECTOR('',#174,1.);
#94=VECTOR('',#175,1.);
#95=VECTOR('',#176,1.);
#96=VECTOR('',#179,1.);
#97=VECTOR('',#180,1.);
#98=VECTOR('',#181,1.);
#99=VECTOR('',#182,1.);
#100=EDGE_LOOP('',(#24,#25,#26,#27));
#101=EDGE_LOOP('',(#28,#29,#30,#31));
#102=EDGE_LOOP('',(#32));
#103=EDGE_LOOP('',(#33));
#104=EDGE_LOOP('',(#34));
#105=EDGE_LOOP('',(#35));
#106=EDGE_LOOP('',(#36,#37,#38,#39));
#107=EDGE_LOOP('',(#40));
#108=EDGE_LOOP('',(#41));
#109=EDGE_LOOP('',(#42,#43,#44,#45));
#110=EDGE_LOOP('',(#46,#47,#48,#49));
#111=EDGE_LOOP('',(#50,#51,#52,#53));
#112=EDGE_LOOP('',(#54));
#113=EDGE_LOOP('',(#55));
#114=FACE_BOUND('',#100,.T.);
#115=FACE_BOUND('',#101,.T.);
#116=FACE_BOUND('',#102,.T.);
#117=FACE_BOUND('',#103,.T.);
#118=FACE_BOUND('',#104,.T.);
#119=FACE_BOUND('',#105,.T.);
#120=FACE_BOUND('',#106,.T.);
#121=FACE_BOUND('',#107,.T.);
#122=FACE_BOUND('',#108,.T.);
#123=FACE_BOUND('',#109,.T.);
#124=FACE_BOUND('',#110,.T.);
#125=FACE_BOUND('',#111,.T.);
#126=FACE_BOUND('',#112,.T.);
#127=FACE_BOUND('',#113,.T.);
#128=PLANE('',#153);
#129=PLANE('',#154);
#130=PLANE('',#161);
#131=PLANE('',#168);
#132=ADVANCED_FACE('',(#114),#128,.T.);
#133=ADVANCED_FACE('',(#115),#129,.F.);
#134=ADVANCED_FACE('',(#116,#117),#20,.F.);
#135=ADVANCED_FACE('',(#118,#119),#21,.F.);
#136=ADVANCED_FACE('',(#120,#121,#122),#130,.F.);
#137=ADVANCED_FACE('',(#123),#22,.T.);
#138=ADVANCED_FACE('',(#124),#23,.T.);
#139=ADVANCED_FACE('',(#125,#126,#127),#131,.T.);
#140=CLOSED_SHELL('',(#132,#133,#134,#135,#136,#137,#138,#139));
#141=STYLED_ITEM('',(#142),#149);
#142=PRESENTATION_STYLE_ASSIGNMENT((#143));
#143=SURFACE_STYLE_USAGE(.BOTH.,#144);
#144=SURFACE_SIDE_STYLE('',(#145));
#145=SURFACE_STYLE_FILL_AREA(#146);
#146=FILL_AREA_STYLE('',(#147));
#147=FILL_AREA_STYLE_COLOUR('',#148);
#148=COLOUR_RGB('',0.615686274509804,0.811764705882353,0.929411764705882);
#149=MANIFOLD_SOLID_BREP('Part 1',#140);
#150=SHAPE_DEFINITION_REPRESENTATION(#254,#151);
#151=SHAPE_REPRESENTATION('Part 1',(#152),#249);
#152=AXIS2_PLACEMENT_3D('',#211,#169,#170);
#153=AXIS2_PLACEMENT_3D('',#212,#171,#172);
#154=AXIS2_PLACEMENT_3D('',#221,#177,#178);
#155=AXIS2_PLACEMENT_3D('',#230,#183,#184);
#156=AXIS2_PLACEMENT_3D('',#231,#185,#186);
#157=AXIS2_PLACEMENT_3D('',#233,#187,#188);
#158=AXIS2_PLACEMENT_3D('',#235,#189,#190);
#159=AXIS2_PLACEMENT_3D('',#236,#191,#192);
#160=AXIS2_PLACEMENT_3D('',#238,#193,#194);
#161=AXIS2_PLACEMENT_3D('',#240,#195,#196);
#162=AXIS2_PLACEMENT_3D('',#241,#197,#198);
#163=AXIS2_PLACEMENT_3D('',#242,#199,#200);
#164=AXIS2_PLACEMENT_3D('',#243,#201,#202);
#165=AXIS2_PLACEMENT_3D('',#244,#203,#204);
#166=AXIS2_PLACEMENT_3D('',#245,#205,#206);
#167=AXIS2_PLACEMENT_3D('',#246,#207,#208);
#168=AXIS2_PLACEMENT_3D('',#247,#209,#210);
#169=DIRECTION('',(0.,0.,1.));
#170=DIRECTION('',(1.,0.,0.));
#171=DIRECTION('',(-0.707106781186547,0.707106781186548,0.));
#172=DIRECTION('',(0.,0.,1.));
#173=DIRECTION('',(0.,0.,-1.));
#174=DIRECTION('',(0.707106781186548,0.707106781186547,0.));
#175=DIRECTION('',(0.,0.,-1.));
#176=DIRECTION('',(0.707106781186548,0.707106781186547,0.));
#177=DIRECTION('',(-0.707106781186547,0.707106781186548,0.));
#178=DIRECTION('',(0.,0.,1.));
#179=DIRECTION('',(0.707106781186548,0.707106781186547,0.));
#180=DIRECTION('',(0.,0.,-1.));
#181=DIRECTION('',(0.707106781186548,0.707106781186547,0.));
#182=DIRECTION('',(0.,0.,-1.));
#183=DIRECTION('',(0.,0.,-1.));
#184=DIRECTION('',(-0.707106781186547,0.707106781186548,0.));
#185=DIRECTION('',(0.,0.,1.));
#186=DIRECTION('',(0.707106781186547,-0.707106781186548,0.));
#187=DIRECTION('',(0.,0.,1.));
#188=DIRECTION('',(0.707106781186547,-0.707106781186548,0.));
#189=DIRECTION('',(0.,0.,-1.));
#190=DIRECTION('',(-0.707106781186547,0.707106781186548,0.));
#191=DIRECTION('',(0.,0.,1.));
#192=DIRECTION('',(0.707106781186547,-0.707106781186548,0.));
#193=DIRECTION('',(0.,0.,1.));
#194=DIRECTION('',(0.707106781186547,-0.707106781186548,0.));
#195=DIRECTION('',(0.,0.,1.));
#196=DIRECTION('',(0.707106781186547,-0.707106781186548,0.));
#197=DIRECTION('',(0.,0.,1.));
#198=DIRECTION('',(0.707106781186547,-0.707106781186548,0.));
#199=DIRECTION('',(0.,0.,1.));
#200=DIRECTION('',(0.707106781186547,-0.707106781186548,0.));
#201=DIRECTION('',(0.,0.,-1.));
#202=DIRECTION('',(-0.707106781186547,0.707106781186548,0.));
#203=DIRECTION('',(0.,0.,1.));
#204=DIRECTION('',(0.707106781186547,-0.707106781186548,0.));
#205=DIRECTION('',(0.,0.,-1.));
#206=DIRECTION('',(-0.707106781186547,0.707106781186548,0.));
#207=DIRECTION('',(0.,0.,1.));
#208=DIRECTION('',(0.707106781186547,-0.707106781186548,0.));
#209=DIRECTION('',(0.,0.,1.));
#210=DIRECTION('',(0.707106781186547,-0.707106781186548,0.));
#211=CARTESIAN_POINT('',(0.,0.,0.));
#212=CARTESIAN_POINT('',(0.0152027957955108,0.0187383297014435,0.004));
#213=CARTESIAN_POINT('',(-0.00141421356237309,0.00212132034355965,0.004));
#214=CARTESIAN_POINT('',(-0.00141421356237309,0.00212132034355965,0.));
#215=CARTESIAN_POINT('',(-0.00141421356237309,0.00212132034355965,0.0049));
#216=CARTESIAN_POINT('',(0.0152027957955108,0.0187383297014435,0.0049));
#217=CARTESIAN_POINT('',(0.0332340187157677,0.0367695526217004,0.0049));
#218=CARTESIAN_POINT('',(0.0332340187157677,0.0367695526217004,0.));
#219=CARTESIAN_POINT('',(0.0332340187157677,0.0367695526217004,0.));
#220=CARTESIAN_POINT('',(0.0152027957955108,0.0187383297014435,0.));
#221=CARTESIAN_POINT('',(0.0187383297014435,0.0152027957955107,0.004));
#222=CARTESIAN_POINT('',(0.0187383297014435,0.0152027957955107,0.));
#223=CARTESIAN_POINT('',(0.00212132034355964,-0.0014142135623731,0.));
#224=CARTESIAN_POINT('',(0.0367695526217005,0.0332340187157677,0.));
#225=CARTESIAN_POINT('',(0.0367695526217005,0.0332340187157677,0.004));
#226=CARTESIAN_POINT('',(0.0367695526217005,0.0332340187157677,0.0049));
#227=CARTESIAN_POINT('',(0.0187383297014435,0.0152027957955107,0.0049));
#228=CARTESIAN_POINT('',(0.00212132034355964,-0.0014142135623731,0.0049));
#229=CARTESIAN_POINT('',(0.00212132034355964,-0.0014142135623731,0.004));
#230=CARTESIAN_POINT('',(0.0353553390593274,0.0353553390593273,0.004));
#231=CARTESIAN_POINT('',(0.0353553390593274,0.0353553390593273,0.));
#232=CARTESIAN_POINT('',(0.0365927759264039,0.0341179021922509,0.));
#233=CARTESIAN_POINT('',(0.0353553390593274,0.0353553390593273,0.0049));
#234=CARTESIAN_POINT('',(0.0365927759264039,0.0341179021922509,0.0049));
#235=CARTESIAN_POINT('',(-7.57711549206056E-20,7.57711549206057E-20,0.004));
#236=CARTESIAN_POINT('',(-7.57711549206056E-20,7.57711549206057E-20,0.));
#237=CARTESIAN_POINT('',(0.00123743686707646,-0.00123743686707646,0.));
#238=CARTESIAN_POINT('',(-7.57711549206056E-20,7.57711549206057E-20,0.0049));
#239=CARTESIAN_POINT('',(0.00123743686707646,-0.00123743686707646,0.0049));
#240=CARTESIAN_POINT('',(0.0176776695296637,0.0176776695296637,0.));
#241=CARTESIAN_POINT('',(0.0350017856687342,0.0350017856687341,0.));
#242=CARTESIAN_POINT('',(0.000353553390593275,0.000353553390593274,0.));
#243=CARTESIAN_POINT('',(0.0350017856687342,0.0350017856687341,0.004));
#244=CARTESIAN_POINT('',(0.0350017856687342,0.0350017856687341,0.0049));
#245=CARTESIAN_POINT('',(0.000353553390593275,0.000353553390593274,0.004));
#246=CARTESIAN_POINT('',(0.000353553390593275,0.000353553390593274,0.0049));
#247=CARTESIAN_POINT('',(0.0176776695296637,0.0176776695296637,0.0049));
#248=MECHANICAL_DESIGN_GEOMETRIC_PRESENTATION_REPRESENTATION('',(#141),
#249);
#249=(
GEOMETRIC_REPRESENTATION_CONTEXT(3)
GLOBAL_UNCERTAINTY_ASSIGNED_CONTEXT((#250))
GLOBAL_UNIT_ASSIGNED_CONTEXT((#253,#252,#251))
REPRESENTATION_CONTEXT('Part 1','TOP_LEVEL_ASSEMBLY_PART')
);
#250=UNCERTAINTY_MEASURE_WITH_UNIT(LENGTH_MEASURE(1.E-8),#253,
'DISTANCE_ACCURACY_VALUE','Maximum Tolerance applied to model');
#251=(
NAMED_UNIT(*)
SI_UNIT($,.STERADIAN.)
SOLID_ANGLE_UNIT()
);
#252=(
NAMED_UNIT(*)
PLANE_ANGLE_UNIT()
SI_UNIT($,.RADIAN.)
);
#253=(
LENGTH_UNIT()
NAMED_UNIT(*)
SI_UNIT($,.METRE.)
);
#254=PRODUCT_DEFINITION_SHAPE('','',#255);
#255=PRODUCT_DEFINITION('','',#257,#256);
#256=PRODUCT_DEFINITION_CONTEXT('',#263,'design');
#257=PRODUCT_DEFINITION_FORMATION_WITH_SPECIFIED_SOURCE('','',#259,
 .NOT_KNOWN.);
#258=PRODUCT_RELATED_PRODUCT_CATEGORY('','',(#259));
#259=PRODUCT('Part 1','Part 1','Part 1',(#261));
#260=PRODUCT_CATEGORY('','');
#261=PRODUCT_CONTEXT('',#263,'mechanical');
#262=APPLICATION_PROTOCOL_DEFINITION('international standard',
'ap242_managed_model_based_3d_engineering',2020,#263);
#263=APPLICATION_CONTEXT('managed model based 3d engineering');
ENDSEC;
END-ISO-10303-21;
