ISO-10303-21;
HEADER;
/* Generated by software containing ST-Developer
 * from STEP Tools, Inc. (www.steptools.com) 
 */
/* OPTION: using custom renumber hook */

FILE_DESCRIPTION(
/* description */ ('STEP AP242 Edition 2',
'CAx-IF Rec.Pracs.---Representation and Presentation of Product Manufa
cturing Information (PMI)---4.0---2014-10-13',
'CAx-IF Rec.Pracs.---3D Tessellated Geometry---0.4---2014-09-14','2;1',
'CAx-IF Rec.Pracs.---User Defined Attributes---1.5---2016-08-15'),
/* implementation_level */ '2;1');

FILE_NAME(
/* name */ 'Base Bottom',
/* time_stamp */ '2026-09-01T03:57:57Z',
/* author */ (''),
/* organization */ (''),
/* preprocessor_version */ 'ST-DEVELOPER v20',
/* originating_system */ 'ONSHAPE BY PTC INC, 1.220',
/* authorisation */ '  ');

FILE_SCHEMA (('AP242_MANAGED_MODEL_BASED_3D_ENGINEERING_MIM_LF { 1 0 10303 442 3 1 4 }'));
ENDSEC;

DATA;
#10=SHAPE_REPRESENTATION_RELATIONSHIP('','',#346,#11);
#11=ADVANCED_BREP_SHAPE_REPRESENTATION('',(#344),#641);
#12=TOROIDAL_SURFACE('',#392,0.0715,0.001);
#13=TOROIDAL_SURFACE('',#393,0.0715,0.001);
#14=TOROIDAL_SURFACE('',#394,0.0715,0.001);
#15=TOROIDAL_SURFACE('',#395,0.0715,0.001);
#16=LINE('',#521,#24);
#17=LINE('',#522,#25);
#18=LINE('',#541,#26);
#19=LINE('',#559,#27);
#20=LINE('',#571,#28);
#21=LINE('',#589,#29);
#22=LINE('',#598,#30);
#23=LINE('',#602,#31);
#24=VECTOR('',#410,1.);
#25=VECTOR('',#411,1.);
#26=VECTOR('',#426,1.);
#27=VECTOR('',#429,1.);
#28=VECTOR('',#444,1.);
#29=VECTOR('',#447,1.);
#30=VECTOR('',#460,1.);
#31=VECTOR('',#463,1.);
#32=B_SPLINE_CURVE_WITH_KNOTS('',3,(#514,#515,#516,#517,#518,#519),
 .UNSPECIFIED.,.F.,.F.,(4,1,1,4),(5.34255403612602E-17,0.000947324222713152,
0.0014209863340697,0.00189464844542625),.UNSPECIFIED.);
#33=B_SPLINE_CURVE_WITH_KNOTS('',3,(#524,#525,#526,#527,#528,#529),
 .UNSPECIFIED.,.F.,.F.,(4,1,1,4),(0.,0.000478265573464968,0.000956531146929936,
0.00191306229385987),.UNSPECIFIED.);
#34=B_SPLINE_CURVE_WITH_KNOTS('',3,(#543,#544,#545,#546,#547,#548),
 .UNSPECIFIED.,.F.,.F.,(4,1,1,4),(0.,0.000478265573464968,0.000956531146929936,
0.00191306229385987),.UNSPECIFIED.);
#35=B_SPLINE_CURVE_WITH_KNOTS('',3,(#552,#553,#554,#555,#556,#557),
 .UNSPECIFIED.,.F.,.F.,(4,1,1,4),(5.44852315158946E-17,0.000947324222713152,
0.0014209863340697,0.00189464844542625),.UNSPECIFIED.);
#36=B_SPLINE_CURVE_WITH_KNOTS('',3,(#573,#574,#575,#576,#577,#578),
 .UNSPECIFIED.,.F.,.F.,(4,1,1,4),(0.,0.000478265573464968,0.000956531146929935,
0.00191306229385987),.UNSPECIFIED.);
#37=B_SPLINE_CURVE_WITH_KNOTS('',3,(#582,#583,#584,#585,#586,#587),
 .UNSPECIFIED.,.F.,.F.,(4,1,1,4),(6.67417808631146E-17,0.000947324222713158,
0.0014209863340697,0.00189464844542625),.UNSPECIFIED.);
#38=B_SPLINE_CURVE_WITH_KNOTS('',3,(#619,#620,#621,#622,#623,#624),
 .UNSPECIFIED.,.F.,.F.,(4,1,1,4),(4.94871489452476E-17,0.000947324222713148,
0.0014209863340697,0.00189464844542625),.UNSPECIFIED.);
#39=B_SPLINE_CURVE_WITH_KNOTS('',3,(#626,#627,#628,#629,#630,#631),
 .UNSPECIFIED.,.F.,.F.,(4,1,1,4),(0.,0.000478265573464969,0.000956531146929938,
0.00191306229385988),.UNSPECIFIED.);
#40=CYLINDRICAL_SURFACE('',#352,0.0029);
#41=CYLINDRICAL_SURFACE('',#354,0.002);
#42=CYLINDRICAL_SURFACE('',#360,0.0029);
#43=CYLINDRICAL_SURFACE('',#362,0.002);
#44=CYLINDRICAL_SURFACE('',#368,0.0029);
#45=CYLINDRICAL_SURFACE('',#370,0.002);
#46=CYLINDRICAL_SURFACE('',#372,0.0725);
#47=CYLINDRICAL_SURFACE('',#387,0.0029);
#48=CYLINDRICAL_SURFACE('',#391,0.002);
#49=ORIENTED_EDGE('',*,*,#139,.F.);
#50=ORIENTED_EDGE('',*,*,#140,.T.);
#51=ORIENTED_EDGE('',*,*,#141,.T.);
#52=ORIENTED_EDGE('',*,*,#142,.T.);
#53=ORIENTED_EDGE('',*,*,#143,.T.);
#54=ORIENTED_EDGE('',*,*,#144,.F.);
#55=ORIENTED_EDGE('',*,*,#141,.F.);
#56=ORIENTED_EDGE('',*,*,#145,.T.);
#57=ORIENTED_EDGE('',*,*,#146,.T.);
#58=ORIENTED_EDGE('',*,*,#139,.T.);
#59=ORIENTED_EDGE('',*,*,#147,.F.);
#60=ORIENTED_EDGE('',*,*,#148,.F.);
#61=ORIENTED_EDGE('',*,*,#149,.T.);
#62=ORIENTED_EDGE('',*,*,#150,.T.);
#63=ORIENTED_EDGE('',*,*,#151,.T.);
#64=ORIENTED_EDGE('',*,*,#152,.T.);
#65=ORIENTED_EDGE('',*,*,#153,.T.);
#66=ORIENTED_EDGE('',*,*,#154,.T.);
#67=ORIENTED_EDGE('',*,*,#155,.F.);
#68=ORIENTED_EDGE('',*,*,#150,.F.);
#69=ORIENTED_EDGE('',*,*,#148,.T.);
#70=ORIENTED_EDGE('',*,*,#156,.F.);
#71=ORIENTED_EDGE('',*,*,#157,.F.);
#72=ORIENTED_EDGE('',*,*,#158,.T.);
#73=ORIENTED_EDGE('',*,*,#159,.T.);
#74=ORIENTED_EDGE('',*,*,#160,.T.);
#75=ORIENTED_EDGE('',*,*,#161,.T.);
#76=ORIENTED_EDGE('',*,*,#162,.T.);
#77=ORIENTED_EDGE('',*,*,#163,.T.);
#78=ORIENTED_EDGE('',*,*,#164,.F.);
#79=ORIENTED_EDGE('',*,*,#159,.F.);
#80=ORIENTED_EDGE('',*,*,#157,.T.);
#81=ORIENTED_EDGE('',*,*,#165,.F.);
#82=ORIENTED_EDGE('',*,*,#144,.T.);
#83=ORIENTED_EDGE('',*,*,#166,.T.);
#84=ORIENTED_EDGE('',*,*,#151,.F.);
#85=ORIENTED_EDGE('',*,*,#149,.F.);
#86=ORIENTED_EDGE('',*,*,#155,.T.);
#87=ORIENTED_EDGE('',*,*,#167,.T.);
#88=ORIENTED_EDGE('',*,*,#160,.F.);
#89=ORIENTED_EDGE('',*,*,#158,.F.);
#90=ORIENTED_EDGE('',*,*,#164,.T.);
#91=ORIENTED_EDGE('',*,*,#168,.T.);
#92=ORIENTED_EDGE('',*,*,#169,.F.);
#93=ORIENTED_EDGE('',*,*,#170,.F.);
#94=ORIENTED_EDGE('',*,*,#171,.T.);
#95=ORIENTED_EDGE('',*,*,#172,.T.);
#96=ORIENTED_EDGE('',*,*,#145,.F.);
#97=ORIENTED_EDGE('',*,*,#140,.F.);
#98=ORIENTED_EDGE('',*,*,#173,.T.);
#99=ORIENTED_EDGE('',*,*,#153,.F.);
#100=ORIENTED_EDGE('',*,*,#174,.T.);
#101=ORIENTED_EDGE('',*,*,#142,.F.);
#102=ORIENTED_EDGE('',*,*,#175,.T.);
#103=ORIENTED_EDGE('',*,*,#176,.F.);
#104=ORIENTED_EDGE('',*,*,#177,.T.);
#105=ORIENTED_EDGE('',*,*,#162,.F.);
#106=ORIENTED_EDGE('',*,*,#178,.T.);
#107=ORIENTED_EDGE('',*,*,#147,.T.);
#108=ORIENTED_EDGE('',*,*,#156,.T.);
#109=ORIENTED_EDGE('',*,*,#165,.T.);
#110=ORIENTED_EDGE('',*,*,#179,.T.);
#111=ORIENTED_EDGE('',*,*,#173,.F.);
#112=ORIENTED_EDGE('',*,*,#176,.T.);
#113=ORIENTED_EDGE('',*,*,#180,.T.);
#114=ORIENTED_EDGE('',*,*,#171,.F.);
#115=ORIENTED_EDGE('',*,*,#181,.F.);
#116=ORIENTED_EDGE('',*,*,#169,.T.);
#117=ORIENTED_EDGE('',*,*,#182,.T.);
#118=ORIENTED_EDGE('',*,*,#183,.F.);
#119=ORIENTED_EDGE('',*,*,#170,.T.);
#120=ORIENTED_EDGE('',*,*,#181,.T.);
#121=ORIENTED_EDGE('',*,*,#183,.T.);
#122=ORIENTED_EDGE('',*,*,#179,.F.);
#123=ORIENTED_EDGE('',*,*,#152,.F.);
#124=ORIENTED_EDGE('',*,*,#166,.F.);
#125=ORIENTED_EDGE('',*,*,#143,.F.);
#126=ORIENTED_EDGE('',*,*,#174,.F.);
#127=ORIENTED_EDGE('',*,*,#161,.F.);
#128=ORIENTED_EDGE('',*,*,#167,.F.);
#129=ORIENTED_EDGE('',*,*,#154,.F.);
#130=ORIENTED_EDGE('',*,*,#178,.F.);
#131=ORIENTED_EDGE('',*,*,#146,.F.);
#132=ORIENTED_EDGE('',*,*,#172,.F.);
#133=ORIENTED_EDGE('',*,*,#180,.F.);
#134=ORIENTED_EDGE('',*,*,#175,.F.);
#135=ORIENTED_EDGE('',*,*,#182,.F.);
#136=ORIENTED_EDGE('',*,*,#168,.F.);
#137=ORIENTED_EDGE('',*,*,#163,.F.);
#138=ORIENTED_EDGE('',*,*,#177,.F.);
#139=EDGE_CURVE('',#184,#184,#217,.T.);
#140=EDGE_CURVE('',#185,#186,#218,.T.);
#141=EDGE_CURVE('',#186,#185,#219,.T.);
#142=EDGE_CURVE('',#187,#188,#220,.T.);
#143=EDGE_CURVE('',#188,#189,#32,.T.);
#144=EDGE_CURVE('',#185,#189,#16,.T.);
#145=EDGE_CURVE('',#186,#190,#17,.T.);
#146=EDGE_CURVE('',#190,#187,#33,.T.);
#147=EDGE_CURVE('',#191,#191,#221,.T.);
#148=EDGE_CURVE('',#192,#192,#222,.T.);
#149=EDGE_CURVE('',#193,#194,#223,.T.);
#150=EDGE_CURVE('',#194,#193,#224,.T.);
#151=EDGE_CURVE('',#194,#195,#18,.T.);
#152=EDGE_CURVE('',#195,#196,#34,.T.);
#153=EDGE_CURVE('',#196,#197,#225,.T.);
#154=EDGE_CURVE('',#197,#198,#35,.T.);
#155=EDGE_CURVE('',#193,#198,#19,.T.);
#156=EDGE_CURVE('',#199,#199,#226,.T.);
#157=EDGE_CURVE('',#200,#200,#227,.T.);
#158=EDGE_CURVE('',#201,#202,#228,.T.);
#159=EDGE_CURVE('',#202,#201,#229,.T.);
#160=EDGE_CURVE('',#202,#203,#20,.T.);
#161=EDGE_CURVE('',#203,#204,#36,.T.);
#162=EDGE_CURVE('',#204,#205,#230,.T.);
#163=EDGE_CURVE('',#205,#206,#37,.T.);
#164=EDGE_CURVE('',#201,#206,#21,.T.);
#165=EDGE_CURVE('',#207,#207,#231,.T.);
#166=EDGE_CURVE('',#189,#195,#232,.F.);
#167=EDGE_CURVE('',#198,#203,#233,.F.);
#168=EDGE_CURVE('',#206,#208,#234,.F.);
#169=EDGE_CURVE('',#209,#208,#22,.T.);
#170=EDGE_CURVE('',#210,#209,#235,.T.);
#171=EDGE_CURVE('',#210,#211,#23,.T.);
#172=EDGE_CURVE('',#211,#190,#236,.F.);
#173=EDGE_CURVE('',#212,#212,#237,.T.);
#174=EDGE_CURVE('',#196,#188,#238,.T.);
#175=EDGE_CURVE('',#187,#213,#239,.T.);
#176=EDGE_CURVE('',#214,#213,#240,.T.);
#177=EDGE_CURVE('',#214,#205,#241,.T.);
#178=EDGE_CURVE('',#204,#197,#242,.T.);
#179=EDGE_CURVE('',#215,#215,#243,.T.);
#180=EDGE_CURVE('',#213,#211,#38,.T.);
#181=EDGE_CURVE('',#209,#210,#244,.T.);
#182=EDGE_CURVE('',#208,#214,#39,.T.);
#183=EDGE_CURVE('',#216,#216,#245,.T.);
#184=VERTEX_POINT('',#505);
#185=VERTEX_POINT('',#507);
#186=VERTEX_POINT('',#508);
#187=VERTEX_POINT('',#512);
#188=VERTEX_POINT('',#513);
#189=VERTEX_POINT('',#520);
#190=VERTEX_POINT('',#523);
#191=VERTEX_POINT('',#532);
#192=VERTEX_POINT('',#535);
#193=VERTEX_POINT('',#537);
#194=VERTEX_POINT('',#538);
#195=VERTEX_POINT('',#542);
#196=VERTEX_POINT('',#549);
#197=VERTEX_POINT('',#551);
#198=VERTEX_POINT('',#558);
#199=VERTEX_POINT('',#562);
#200=VERTEX_POINT('',#565);
#201=VERTEX_POINT('',#567);
#202=VERTEX_POINT('',#568);
#203=VERTEX_POINT('',#572);
#204=VERTEX_POINT('',#579);
#205=VERTEX_POINT('',#581);
#206=VERTEX_POINT('',#588);
#207=VERTEX_POINT('',#592);
#208=VERTEX_POINT('',#597);
#209=VERTEX_POINT('',#599);
#210=VERTEX_POINT('',#601);
#211=VERTEX_POINT('',#603);
#212=VERTEX_POINT('',#606);
#213=VERTEX_POINT('',#610);
#214=VERTEX_POINT('',#612);
#215=VERTEX_POINT('',#617);
#216=VERTEX_POINT('',#634);
#217=CIRCLE('',#349,0.002);
#218=CIRCLE('',#350,0.0725);
#219=CIRCLE('',#351,0.0029);
#220=CIRCLE('',#353,0.0029);
#221=CIRCLE('',#355,0.002);
#222=CIRCLE('',#357,0.002);
#223=CIRCLE('',#358,0.0725);
#224=CIRCLE('',#359,0.0029);
#225=CIRCLE('',#361,0.0029);
#226=CIRCLE('',#363,0.002);
#227=CIRCLE('',#365,0.002);
#228=CIRCLE('',#366,0.0725);
#229=CIRCLE('',#367,0.0029);
#230=CIRCLE('',#369,0.0029);
#231=CIRCLE('',#371,0.002);
#232=CIRCLE('',#373,0.0725);
#233=CIRCLE('',#374,0.0725);
#234=CIRCLE('',#375,0.0725);
#235=CIRCLE('',#376,0.0725);
#236=CIRCLE('',#377,0.0725);
#237=CIRCLE('',#378,0.0725);
#238=CIRCLE('',#380,0.0715);
#239=CIRCLE('',#381,0.0715);
#240=CIRCLE('',#382,0.0029);
#241=CIRCLE('',#383,0.0715);
#242=CIRCLE('',#384,0.0715);
#243=CIRCLE('',#386,0.002);
#244=CIRCLE('',#388,0.0029);
#245=CIRCLE('',#390,0.002);
#246=EDGE_LOOP('',(#49));
#247=EDGE_LOOP('',(#50,#51));
#248=EDGE_LOOP('',(#52,#53,#54,#55,#56,#57));
#249=EDGE_LOOP('',(#58));
#250=EDGE_LOOP('',(#59));
#251=EDGE_LOOP('',(#60));
#252=EDGE_LOOP('',(#61,#62));
#253=EDGE_LOOP('',(#63,#64,#65,#66,#67,#68));
#254=EDGE_LOOP('',(#69));
#255=EDGE_LOOP('',(#70));
#256=EDGE_LOOP('',(#71));
#257=EDGE_LOOP('',(#72,#73));
#258=EDGE_LOOP('',(#74,#75,#76,#77,#78,#79));
#259=EDGE_LOOP('',(#80));
#260=EDGE_LOOP('',(#81));
#261=EDGE_LOOP('',(#82,#83,#84,#85,#86,#87,#88,#89,#90,#91,#92,#93,#94,
#95,#96,#97));
#262=EDGE_LOOP('',(#98));
#263=EDGE_LOOP('',(#99,#100,#101,#102,#103,#104,#105,#106));
#264=EDGE_LOOP('',(#107));
#265=EDGE_LOOP('',(#108));
#266=EDGE_LOOP('',(#109));
#267=EDGE_LOOP('',(#110));
#268=EDGE_LOOP('',(#111));
#269=EDGE_LOOP('',(#112,#113,#114,#115,#116,#117));
#270=EDGE_LOOP('',(#118));
#271=EDGE_LOOP('',(#119,#120));
#272=EDGE_LOOP('',(#121));
#273=EDGE_LOOP('',(#122));
#274=EDGE_LOOP('',(#123,#124,#125,#126));
#275=EDGE_LOOP('',(#127,#128,#129,#130));
#276=EDGE_LOOP('',(#131,#132,#133,#134));
#277=EDGE_LOOP('',(#135,#136,#137,#138));
#278=FACE_BOUND('',#246,.T.);
#279=FACE_BOUND('',#247,.T.);
#280=FACE_BOUND('',#248,.T.);
#281=FACE_BOUND('',#249,.T.);
#282=FACE_BOUND('',#250,.T.);
#283=FACE_BOUND('',#251,.T.);
#284=FACE_BOUND('',#252,.T.);
#285=FACE_BOUND('',#253,.T.);
#286=FACE_BOUND('',#254,.T.);
#287=FACE_BOUND('',#255,.T.);
#288=FACE_BOUND('',#256,.T.);
#289=FACE_BOUND('',#257,.T.);
#290=FACE_BOUND('',#258,.T.);
#291=FACE_BOUND('',#259,.T.);
#292=FACE_BOUND('',#260,.T.);
#293=FACE_BOUND('',#261,.T.);
#294=FACE_BOUND('',#262,.T.);
#295=FACE_BOUND('',#263,.T.);
#296=FACE_BOUND('',#264,.T.);
#297=FACE_BOUND('',#265,.T.);
#298=FACE_BOUND('',#266,.T.);
#299=FACE_BOUND('',#267,.T.);
#300=FACE_BOUND('',#268,.T.);
#301=FACE_BOUND('',#269,.T.);
#302=FACE_BOUND('',#270,.T.);
#303=FACE_BOUND('',#271,.T.);
#304=FACE_BOUND('',#272,.T.);
#305=FACE_BOUND('',#273,.T.);
#306=FACE_BOUND('',#274,.T.);
#307=FACE_BOUND('',#275,.T.);
#308=FACE_BOUND('',#276,.T.);
#309=FACE_BOUND('',#277,.T.);
#310=PLANE('',#348);
#311=PLANE('',#356);
#312=PLANE('',#364);
#313=PLANE('',#379);
#314=PLANE('',#385);
#315=PLANE('',#389);
#316=ADVANCED_FACE('',(#278,#279),#310,.T.);
#317=ADVANCED_FACE('',(#280),#40,.F.);
#318=ADVANCED_FACE('',(#281,#282),#41,.F.);
#319=ADVANCED_FACE('',(#283,#284),#311,.T.);
#320=ADVANCED_FACE('',(#285),#42,.F.);
#321=ADVANCED_FACE('',(#286,#287),#43,.F.);
#322=ADVANCED_FACE('',(#288,#289),#312,.T.);
#323=ADVANCED_FACE('',(#290),#44,.F.);
#324=ADVANCED_FACE('',(#291,#292),#45,.F.);
#325=ADVANCED_FACE('',(#293,#294),#46,.T.);
#326=ADVANCED_FACE('',(#295),#313,.T.);
#327=ADVANCED_FACE('',(#296,#297,#298,#299,#300),#314,.F.);
#328=ADVANCED_FACE('',(#301),#47,.F.);
#329=ADVANCED_FACE('',(#302,#303),#315,.T.);
#330=ADVANCED_FACE('',(#304,#305),#48,.F.);
#331=ADVANCED_FACE('',(#306),#12,.T.);
#332=ADVANCED_FACE('',(#307),#13,.T.);
#333=ADVANCED_FACE('',(#308),#14,.T.);
#334=ADVANCED_FACE('',(#309),#15,.T.);
#335=CLOSED_SHELL('',(#316,#317,#318,#319,#320,#321,#322,#323,#324,#325,
#326,#327,#328,#329,#330,#331,#332,#333,#334));
#336=STYLED_ITEM('',(#337),#344);
#337=PRESENTATION_STYLE_ASSIGNMENT((#338));
#338=SURFACE_STYLE_USAGE(.BOTH.,#339);
#339=SURFACE_SIDE_STYLE('',(#340));
#340=SURFACE_STYLE_FILL_AREA(#341);
#341=FILL_AREA_STYLE('',(#342));
#342=FILL_AREA_STYLE_COLOUR('',#343);
#343=COLOUR_RGB('',0.615686274509804,0.811764705882353,0.929411764705882);
#344=MANIFOLD_SOLID_BREP('Part 1',#335);
#345=SHAPE_DEFINITION_REPRESENTATION(#646,#346);
#346=SHAPE_REPRESENTATION('Part 1',(#347),#641);
#347=AXIS2_PLACEMENT_3D('',#502,#396,#397);
#348=AXIS2_PLACEMENT_3D('',#503,#398,#399);
#349=AXIS2_PLACEMENT_3D('',#504,#400,#401);
#350=AXIS2_PLACEMENT_3D('',#506,#402,#403);
#351=AXIS2_PLACEMENT_3D('',#509,#404,#405);
#352=AXIS2_PLACEMENT_3D('',#510,#406,#407);
#353=AXIS2_PLACEMENT_3D('',#511,#408,#409);
#354=AXIS2_PLACEMENT_3D('',#530,#412,#413);
#355=AXIS2_PLACEMENT_3D('',#531,#414,#415);
#356=AXIS2_PLACEMENT_3D('',#533,#416,#417);
#357=AXIS2_PLACEMENT_3D('',#534,#418,#419);
#358=AXIS2_PLACEMENT_3D('',#536,#420,#421);
#359=AXIS2_PLACEMENT_3D('',#539,#422,#423);
#360=AXIS2_PLACEMENT_3D('',#540,#424,#425);
#361=AXIS2_PLACEMENT_3D('',#550,#427,#428);
#362=AXIS2_PLACEMENT_3D('',#560,#430,#431);
#363=AXIS2_PLACEMENT_3D('',#561,#432,#433);
#364=AXIS2_PLACEMENT_3D('',#563,#434,#435);
#365=AXIS2_PLACEMENT_3D('',#564,#436,#437);
#366=AXIS2_PLACEMENT_3D('',#566,#438,#439);
#367=AXIS2_PLACEMENT_3D('',#569,#440,#441);
#368=AXIS2_PLACEMENT_3D('',#570,#442,#443);
#369=AXIS2_PLACEMENT_3D('',#580,#445,#446);
#370=AXIS2_PLACEMENT_3D('',#590,#448,#449);
#371=AXIS2_PLACEMENT_3D('',#591,#450,#451);
#372=AXIS2_PLACEMENT_3D('',#593,#452,#453);
#373=AXIS2_PLACEMENT_3D('',#594,#454,#455);
#374=AXIS2_PLACEMENT_3D('',#595,#456,#457);
#375=AXIS2_PLACEMENT_3D('',#596,#458,#459);
#376=AXIS2_PLACEMENT_3D('',#600,#461,#462);
#377=AXIS2_PLACEMENT_3D('',#604,#464,#465);
#378=AXIS2_PLACEMENT_3D('',#605,#466,#467);
#379=AXIS2_PLACEMENT_3D('',#607,#468,#469);
#380=AXIS2_PLACEMENT_3D('',#608,#470,#471);
#381=AXIS2_PLACEMENT_3D('',#609,#472,#473);
#382=AXIS2_PLACEMENT_3D('',#611,#474,#475);
#383=AXIS2_PLACEMENT_3D('',#613,#476,#477);
#384=AXIS2_PLACEMENT_3D('',#614,#478,#479);
#385=AXIS2_PLACEMENT_3D('',#615,#480,#481);
#386=AXIS2_PLACEMENT_3D('',#616,#482,#483);
#387=AXIS2_PLACEMENT_3D('',#618,#484,#485);
#388=AXIS2_PLACEMENT_3D('',#625,#486,#487);
#389=AXIS2_PLACEMENT_3D('',#632,#488,#489);
#390=AXIS2_PLACEMENT_3D('',#633,#490,#491);
#391=AXIS2_PLACEMENT_3D('',#635,#492,#493);
#392=AXIS2_PLACEMENT_3D('',#636,#494,#495);
#393=AXIS2_PLACEMENT_3D('',#637,#496,#497);
#394=AXIS2_PLACEMENT_3D('',#638,#498,#499);
#395=AXIS2_PLACEMENT_3D('',#639,#500,#501);
#396=DIRECTION('',(0.,0.,1.));
#397=DIRECTION('',(1.,0.,0.));
#398=DIRECTION('',(0.,0.,1.));
#399=DIRECTION('',(-1.83697019872103E-16,-1.,0.));
#400=DIRECTION('',(0.,0.,1.));
#401=DIRECTION('',(-1.83697019872103E-16,-1.,0.));
#402=DIRECTION('',(0.,0.,1.));
#403=DIRECTION('',(-1.83697019872103E-16,-1.,0.));
#404=DIRECTION('',(0.,0.,1.));
#405=DIRECTION('',(-1.83697019872103E-16,-1.,0.));
#406=DIRECTION('',(0.,0.,1.));
#407=DIRECTION('',(-1.83697019872103E-16,-1.,0.));
#408=DIRECTION('',(0.,0.,1.));
#409=DIRECTION('',(-1.83697019872103E-16,-1.,0.));
#410=DIRECTION('',(0.,0.,1.));
#411=DIRECTION('',(0.,0.,1.));
#412=DIRECTION('',(0.,0.,1.));
#413=DIRECTION('',(-1.83697019872103E-16,-1.,0.));
#414=DIRECTION('',(0.,0.,1.));
#415=DIRECTION('',(-1.83697019872103E-16,-1.,0.));
#416=DIRECTION('',(0.,0.,1.));
#417=DIRECTION('',(-1.,1.22464679914735E-16,0.));
#418=DIRECTION('',(0.,0.,1.));
#419=DIRECTION('',(-1.,1.22464679914735E-16,0.));
#420=DIRECTION('',(0.,0.,1.));
#421=DIRECTION('',(-1.,1.22464679914735E-16,0.));
#422=DIRECTION('',(0.,0.,1.));
#423=DIRECTION('',(-1.,1.22464679914735E-16,0.));
#424=DIRECTION('',(0.,0.,1.));
#425=DIRECTION('',(-1.,1.22464679914735E-16,0.));
#426=DIRECTION('',(0.,0.,1.));
#427=DIRECTION('',(0.,0.,1.));
#428=DIRECTION('',(-1.,1.22464679914735E-16,0.));
#429=DIRECTION('',(0.,0.,1.));
#430=DIRECTION('',(0.,0.,1.));
#431=DIRECTION('',(-1.,1.22464679914735E-16,0.));
#432=DIRECTION('',(0.,0.,1.));
#433=DIRECTION('',(-1.,1.22464679914735E-16,0.));
#434=DIRECTION('',(0.,0.,1.));
#435=DIRECTION('',(6.12323399573677E-17,1.,0.));
#436=DIRECTION('',(0.,0.,1.));
#437=DIRECTION('',(6.12323399573677E-17,1.,0.));
#438=DIRECTION('',(0.,0.,1.));
#439=DIRECTION('',(6.12323399573677E-17,1.,0.));
#440=DIRECTION('',(0.,0.,1.));
#441=DIRECTION('',(6.12323399573677E-17,1.,0.));
#442=DIRECTION('',(0.,0.,1.));
#443=DIRECTION('',(6.12323399573677E-17,1.,0.));
#444=DIRECTION('',(0.,0.,1.));
#445=DIRECTION('',(0.,0.,1.));
#446=DIRECTION('',(6.12323399573677E-17,1.,0.));
#447=DIRECTION('',(0.,0.,1.));
#448=DIRECTION('',(0.,0.,1.));
#449=DIRECTION('',(6.12323399573677E-17,1.,0.));
#450=DIRECTION('',(0.,0.,1.));
#451=DIRECTION('',(6.12323399573677E-17,1.,0.));
#452=DIRECTION('',(0.,0.,-1.));
#453=DIRECTION('',(-1.,0.,0.));
#454=DIRECTION('',(0.,0.,1.));
#455=DIRECTION('',(1.,0.,0.));
#456=DIRECTION('',(0.,0.,1.));
#457=DIRECTION('',(1.,0.,0.));
#458=DIRECTION('',(0.,0.,1.));
#459=DIRECTION('',(1.,0.,0.));
#460=DIRECTION('',(0.,0.,1.));
#461=DIRECTION('',(0.,0.,1.));
#462=DIRECTION('',(1.,0.,0.));
#463=DIRECTION('',(0.,0.,1.));
#464=DIRECTION('',(0.,0.,1.));
#465=DIRECTION('',(1.,0.,0.));
#466=DIRECTION('',(0.,0.,1.));
#467=DIRECTION('',(1.,0.,0.));
#468=DIRECTION('',(0.,0.,1.));
#469=DIRECTION('',(1.,0.,0.));
#470=DIRECTION('',(0.,0.,1.));
#471=DIRECTION('',(1.,0.,0.));
#472=DIRECTION('',(0.,0.,1.));
#473=DIRECTION('',(1.,0.,0.));
#474=DIRECTION('',(0.,0.,1.));
#475=DIRECTION('',(1.,0.,0.));
#476=DIRECTION('',(0.,0.,1.));
#477=DIRECTION('',(1.,0.,0.));
#478=DIRECTION('',(0.,0.,1.));
#479=DIRECTION('',(1.,0.,0.));
#480=DIRECTION('',(0.,0.,1.));
#481=DIRECTION('',(1.,0.,0.));
#482=DIRECTION('',(0.,0.,1.));
#483=DIRECTION('',(1.,0.,0.));
#484=DIRECTION('',(0.,0.,1.));
#485=DIRECTION('',(1.,0.,0.));
#486=DIRECTION('',(0.,0.,1.));
#487=DIRECTION('',(1.,0.,0.));
#488=DIRECTION('',(0.,0.,1.));
#489=DIRECTION('',(1.,0.,0.));
#490=DIRECTION('',(0.,0.,1.));
#491=DIRECTION('',(1.,0.,0.));
#492=DIRECTION('',(0.,0.,1.));
#493=DIRECTION('',(1.,0.,0.));
#494=DIRECTION('',(0.,0.,1.));
#495=DIRECTION('',(1.,0.,0.));
#496=DIRECTION('',(0.,0.,1.));
#497=DIRECTION('',(1.,0.,0.));
#498=DIRECTION('',(0.,0.,1.));
#499=DIRECTION('',(1.,0.,0.));
#500=DIRECTION('',(0.,0.,1.));
#501=DIRECTION('',(1.,0.,0.));
#502=CARTESIAN_POINT('',(0.,0.,0.));
#503=CARTESIAN_POINT('',(3.67394039744217E-20,0.000200000000000006,0.0011));
#504=CARTESIAN_POINT('',(1.29812560709619E-17,0.07,0.0011));
#505=CARTESIAN_POINT('',(1.26138620312177E-17,0.068,0.0011));
#506=CARTESIAN_POINT('',(4.43934464690915E-18,-8.15494381822385E-34,0.0011));
#507=CARTESIAN_POINT('',(0.00149562856897231,0.0724845714285714,0.0011));
#508=CARTESIAN_POINT('',(-0.00149562856897228,0.0724845714285714,0.0011));
#509=CARTESIAN_POINT('',(1.30363651769236E-17,0.07,0.0011));
#510=CARTESIAN_POINT('',(1.30363651769236E-17,0.07,0.0011));
#511=CARTESIAN_POINT('',(1.30363651769236E-17,0.07,0.004));
#512=CARTESIAN_POINT('',(-0.00250799999999995,0.071456,0.004));
#513=CARTESIAN_POINT('',(0.002508,0.071456,0.004));
#514=CARTESIAN_POINT('',(0.0025079999999999,0.071456,0.004));
#515=CARTESIAN_POINT('',(0.00234665587608365,0.0717339196859766,0.004));
#516=CARTESIAN_POINT('',(0.00204243904324921,0.0720907257626593,0.00384451431233724));
#517=CARTESIAN_POINT('',(0.00163693544502184,0.0724012380692215,0.00345686035221466));
#518=CARTESIAN_POINT('',(0.00149562856897244,0.0724845714285714,0.00316158767529314));
#519=CARTESIAN_POINT('',(0.00149562856897244,0.0724845714285714,0.003));
#520=CARTESIAN_POINT('',(0.00149562856897231,0.0724845714285714,0.003));
#521=CARTESIAN_POINT('',(0.00149562856897231,0.0724845714285714,0.0011));
#522=CARTESIAN_POINT('',(-0.00149562856897228,0.0724845714285714,0.0011));
#523=CARTESIAN_POINT('',(-0.00149562856897228,0.0724845714285714,0.003));
#524=CARTESIAN_POINT('',(-0.00149562856897228,0.0724845714285714,0.003));
#525=CARTESIAN_POINT('',(-0.00149562856897228,0.0724845714285714,0.00316206415576739));
#526=CARTESIAN_POINT('',(-0.00163685956308698,0.0724013076485288,0.00345657390533376));
#527=CARTESIAN_POINT('',(-0.0020427101044107,0.072090452982979,0.00384484174888757));
#528=CARTESIAN_POINT('',(-0.0023464864498039,0.0717342115273981,0.004));
#529=CARTESIAN_POINT('',(-0.00250799999999994,0.071456,0.004));
#530=CARTESIAN_POINT('',(1.29812560709619E-17,0.07,-0.021));
#531=CARTESIAN_POINT('',(1.29812560709619E-17,0.07,0.));
#532=CARTESIAN_POINT('',(1.26138620312177E-17,0.068,0.));
#533=CARTESIAN_POINT('',(0.000200000000000006,-2.44929359829478E-20,0.0011));
#534=CARTESIAN_POINT('',(0.07,-8.69499227394621E-18,0.0011));
#535=CARTESIAN_POINT('',(0.068,-8.45006291411674E-18,0.0011));
#536=CARTESIAN_POINT('',(-5.43662921214923E-34,-4.43934464690915E-18,0.0011));
#537=CARTESIAN_POINT('',(0.0724845714285714,-0.0014956285689723,0.0011));
#538=CARTESIAN_POINT('',(0.0724845714285714,0.00149562856897228,0.0011));
#539=CARTESIAN_POINT('',(0.07,-8.75010137990784E-18,0.0011));
#540=CARTESIAN_POINT('',(0.07,-8.75010137990784E-18,0.0011));
#541=CARTESIAN_POINT('',(0.0724845714285714,0.00149562856897228,0.0011));
#542=CARTESIAN_POINT('',(0.0724845714285714,0.00149562856897228,0.003));
#543=CARTESIAN_POINT('',(0.0724845714285714,0.00149562856897228,0.003));
#544=CARTESIAN_POINT('',(0.0724845714285714,0.00149562856897228,0.00316206415576739));
#545=CARTESIAN_POINT('',(0.0724013076485288,0.00163685956308698,0.00345657390533376));
#546=CARTESIAN_POINT('',(0.072090452982979,0.00204271010441071,0.00384484174888757));
#547=CARTESIAN_POINT('',(0.0717342115273981,0.0023464864498039,0.004));
#548=CARTESIAN_POINT('',(0.071456,0.00250799999999995,0.004));
#549=CARTESIAN_POINT('',(0.071456,0.00250799999999995,0.004));
#550=CARTESIAN_POINT('',(0.07,-8.75010137990784E-18,0.004));
#551=CARTESIAN_POINT('',(0.071456,-0.002508,0.004));
#552=CARTESIAN_POINT('',(0.071456,-0.0025079999999999,0.004));
#553=CARTESIAN_POINT('',(0.0717339196859766,-0.00234665587608364,0.004));
#554=CARTESIAN_POINT('',(0.0720907257626593,-0.0020424390432492,0.00384451431233724));
#555=CARTESIAN_POINT('',(0.0724012380692215,-0.00163693544502183,0.00345686035221466));
#556=CARTESIAN_POINT('',(0.0724845714285714,-0.00149562856897244,0.00316158767529314));
#557=CARTESIAN_POINT('',(0.0724845714285714,-0.00149562856897244,0.003));
#558=CARTESIAN_POINT('',(0.0724845714285714,-0.0014956285689723,0.003));
#559=CARTESIAN_POINT('',(0.0724845714285714,-0.0014956285689723,0.0011));
#560=CARTESIAN_POINT('',(0.07,-8.69499227394621E-18,-0.021));
#561=CARTESIAN_POINT('',(0.07,-8.69499227394621E-18,0.));
#562=CARTESIAN_POINT('',(0.068,-8.45006291411674E-18,0.));
#563=CARTESIAN_POINT('',(-1.22464679914739E-20,-0.000200000000000006,0.0011));
#564=CARTESIAN_POINT('',(-4.40872847693047E-18,-0.07,0.0011));
#565=CARTESIAN_POINT('',(-4.28626379701573E-18,-0.068,0.0011));
#566=CARTESIAN_POINT('',(-4.43934464690915E-18,2.71831460607461E-34,0.0011));
#567=CARTESIAN_POINT('',(-0.0014956285689723,-0.0724845714285714,0.0011));
#568=CARTESIAN_POINT('',(0.00149562856897229,-0.0724845714285714,0.0011));
#569=CARTESIAN_POINT('',(-4.4638375828921E-18,-0.07,0.0011));
#570=CARTESIAN_POINT('',(-4.4638375828921E-18,-0.07,0.0011));
#571=CARTESIAN_POINT('',(0.00149562856897229,-0.0724845714285714,0.0011));
#572=CARTESIAN_POINT('',(0.00149562856897229,-0.0724845714285714,0.003));
#573=CARTESIAN_POINT('',(0.00149562856897229,-0.0724845714285714,0.003));
#574=CARTESIAN_POINT('',(0.00149562856897229,-0.0724845714285714,0.00316206415576739));
#575=CARTESIAN_POINT('',(0.00163685956308699,-0.0724013076485288,0.00345657390533376));
#576=CARTESIAN_POINT('',(0.00204271010441071,-0.072090452982979,0.00384484174888757));
#577=CARTESIAN_POINT('',(0.00234648644980391,-0.0717342115273981,0.004));
#578=CARTESIAN_POINT('',(0.00250799999999995,-0.071456,0.004));
#579=CARTESIAN_POINT('',(0.00250799999999996,-0.071456,0.004));
#580=CARTESIAN_POINT('',(-4.4638375828921E-18,-0.07,0.004));
#581=CARTESIAN_POINT('',(-0.002508,-0.071456,0.004));
#582=CARTESIAN_POINT('',(-0.00250799999999989,-0.071456,0.004));
#583=CARTESIAN_POINT('',(-0.00234665587608364,-0.0717339196859766,0.004));
#584=CARTESIAN_POINT('',(-0.00204243904324919,-0.0720907257626593,0.00384451431233726));
#585=CARTESIAN_POINT('',(-0.00163693544502183,-0.0724012380692215,0.00345686035221465));
#586=CARTESIAN_POINT('',(-0.00149562856897244,-0.0724845714285714,0.00316158767529314));
#587=CARTESIAN_POINT('',(-0.00149562856897244,-0.0724845714285714,0.003));
#588=CARTESIAN_POINT('',(-0.0014956285689723,-0.0724845714285714,0.003));
#589=CARTESIAN_POINT('',(-0.0014956285689723,-0.0724845714285714,0.0011));
#590=CARTESIAN_POINT('',(-4.40872847693047E-18,-0.07,-0.021));
#591=CARTESIAN_POINT('',(-4.40872847693047E-18,-0.07,0.));
#592=CARTESIAN_POINT('',(-4.28626379701573E-18,-0.068,0.));
#593=CARTESIAN_POINT('',(0.,4.43934464690915E-18,0.004));
#594=CARTESIAN_POINT('',(0.,4.43934464690915E-18,0.003));
#595=CARTESIAN_POINT('',(0.,4.43934464690915E-18,0.003));
#596=CARTESIAN_POINT('',(0.,4.43934464690915E-18,0.003));
#597=CARTESIAN_POINT('',(-0.0724845714285714,-0.00149562856897229,0.003));
#598=CARTESIAN_POINT('',(-0.0724845714285714,-0.00149562856897229,0.0011));
#599=CARTESIAN_POINT('',(-0.0724845714285714,-0.00149562856897229,0.0011));
#600=CARTESIAN_POINT('',(0.,4.43934464690915E-18,0.0011));
#601=CARTESIAN_POINT('',(-0.0724845714285714,0.00149562856897229,0.0011));
#602=CARTESIAN_POINT('',(-0.0724845714285714,0.00149562856897229,0.0011));
#603=CARTESIAN_POINT('',(-0.0724845714285714,0.00149562856897229,0.003));
#604=CARTESIAN_POINT('',(0.,4.43934464690915E-18,0.003));
#605=CARTESIAN_POINT('',(0.,4.43934464690915E-18,0.));
#606=CARTESIAN_POINT('',(0.0725,4.43934464690915E-18,0.));
#607=CARTESIAN_POINT('',(0.,0.,0.004));
#608=CARTESIAN_POINT('',(0.,4.43934464690915E-18,0.004));
#609=CARTESIAN_POINT('',(0.,4.43934464690915E-18,0.004));
#610=CARTESIAN_POINT('',(-0.071456,0.00250799999999996,0.004));
#611=CARTESIAN_POINT('',(-0.07,1.77573785876366E-19,0.004));
#612=CARTESIAN_POINT('',(-0.071456,-0.00250799999999996,0.004));
#613=CARTESIAN_POINT('',(0.,4.43934464690915E-18,0.004));
#614=CARTESIAN_POINT('',(0.,4.43934464690915E-18,0.004));
#615=CARTESIAN_POINT('',(0.,0.,0.));
#616=CARTESIAN_POINT('',(-0.07,1.22464679914735E-19,0.));
#617=CARTESIAN_POINT('',(-0.068,1.22464679914735E-19,0.));
#618=CARTESIAN_POINT('',(-0.07,1.77573785876366E-19,0.0011));
#619=CARTESIAN_POINT('',(-0.071456,0.00250799999999988,0.004));
#620=CARTESIAN_POINT('',(-0.0717339196859766,0.00234665587608363,0.004));
#621=CARTESIAN_POINT('',(-0.0720907257626593,0.00204243904324921,0.00384451431233725));
#622=CARTESIAN_POINT('',(-0.0724012380692215,0.00163693544502182,0.00345686035221466));
#623=CARTESIAN_POINT('',(-0.0724845714285714,0.00149562856897243,0.00316158767529315));
#624=CARTESIAN_POINT('',(-0.0724845714285714,0.00149562856897243,0.003));
#625=CARTESIAN_POINT('',(-0.07,1.77573785876366E-19,0.0011));
#626=CARTESIAN_POINT('',(-0.0724845714285714,-0.00149562856897229,0.003));
#627=CARTESIAN_POINT('',(-0.0724845714285714,-0.00149562856897229,0.00316206415576739));
#628=CARTESIAN_POINT('',(-0.0724013076485288,-0.00163685956308699,0.00345657390533376));
#629=CARTESIAN_POINT('',(-0.0720904529829791,-0.00204271010441072,0.00384484174888757));
#630=CARTESIAN_POINT('',(-0.0717342115273981,-0.00234648644980391,0.004));
#631=CARTESIAN_POINT('',(-0.071456,-0.00250799999999996,0.004));
#632=CARTESIAN_POINT('',(-0.000200000000000006,0.,0.0011));
#633=CARTESIAN_POINT('',(-0.07,1.22464679914735E-19,0.0011));
#634=CARTESIAN_POINT('',(-0.068,1.22464679914735E-19,0.0011));
#635=CARTESIAN_POINT('',(-0.07,1.22464679914735E-19,-0.021));
#636=CARTESIAN_POINT('',(0.,4.43934464690915E-18,0.003));
#637=CARTESIAN_POINT('',(0.,4.43934464690915E-18,0.003));
#638=CARTESIAN_POINT('',(0.,4.43934464690915E-18,0.003));
#639=CARTESIAN_POINT('',(0.,4.43934464690915E-18,0.003));
#640=MECHANICAL_DESIGN_GEOMETRIC_PRESENTATION_REPRESENTATION('',(#336),
#641);
#641=(
GEOMETRIC_REPRESENTATION_CONTEXT(3)
GLOBAL_UNCERTAINTY_ASSIGNED_CONTEXT((#642))
GLOBAL_UNIT_ASSIGNED_CONTEXT((#645,#644,#643))
REPRESENTATION_CONTEXT('Part 1','TOP_LEVEL_ASSEMBLY_PART')
);
#642=UNCERTAINTY_MEASURE_WITH_UNIT(LENGTH_MEASURE(2.E-5),#645,
'DISTANCE_ACCURACY_VALUE','Maximum Tolerance applied to model');
#643=(
NAMED_UNIT(*)
SI_UNIT($,.STERADIAN.)
SOLID_ANGLE_UNIT()
);
#644=(
NAMED_UNIT(*)
PLANE_ANGLE_UNIT()
SI_UNIT($,.RADIAN.)
);
#645=(
LENGTH_UNIT()
NAMED_UNIT(*)
SI_UNIT($,.METRE.)
);
#646=PRODUCT_DEFINITION_SHAPE('','',#647);
#647=PRODUCT_DEFINITION('','',#649,#648);
#648=PRODUCT_DEFINITION_CONTEXT('',#655,'design');
#649=PRODUCT_DEFINITION_FORMATION_WITH_SPECIFIED_SOURCE('','',#651,
 .NOT_KNOWN.);
#650=PRODUCT_RELATED_PRODUCT_CATEGORY('','',(#651));
#651=PRODUCT('Part 1','Part 1','Part 1',(#653));
#652=PRODUCT_CATEGORY('','');
#653=PRODUCT_CONTEXT('',#655,'mechanical');
#654=APPLICATION_PROTOCOL_DEFINITION('international standard',
'ap242_managed_model_based_3d_engineering',2020,#655);
#655=APPLICATION_CONTEXT('managed model based 3d engineering');
ENDSEC;
END-ISO-10303-21;
