ISO-10303-21;
HEADER;
/* Generated by software containing ST-Developer
 * from STEP Tools, Inc. (www.steptools.com) 
 */
/* OPTION: using custom renumber hook */

FILE_DESCRIPTION(
/* description */ ('STEP AP242 Edition 2',
'CAx-IF Rec.Pracs.---Representation and Presentation of Product Manufa
cturing Information (PMI)---4.0---2014-10-13',
'CAx-IF Rec.Pracs.---3D Tessellated Geometry---0.4---2014-09-14','2;1',
'CAx-IF Rec.Pracs.---User Defined Attributes---1.5---2016-08-15'),
/* implementation_level */ '2;1');

FILE_NAME(
/* name */ 'Wrist',
/* time_stamp */ '2026-09-01T03:59:06Z',
/* author */ (''),
/* organization */ (''),
/* preprocessor_version */ 'ST-DEVELOPER v20',
/* originating_system */ 'ONSHAPE BY PTC INC, 1.220',
/* authorisation */ '  ');

FILE_SCHEMA (('AP242_MANAGED_MODEL_BASED_3D_ENGINEERING_MIM_LF { 1 0 10303 442 3 1 4 }'));
ENDSEC;

DATA;
#10=SHAPE_REPRESENTATION_RELATIONSHIP('','',#866,#11);
#11=ADVANCED_BREP_SHAPE_REPRESENTATION('',(#864),#1484);
#12=ELLIPSE('',#962,0.00282842712474619,0.002);
#13=ELLIPSE('',#963,0.00282842712474619,0.002);
#14=ELLIPSE('',#965,0.00282842712474619,0.002);
#15=ELLIPSE('',#967,0.00282842712474619,0.002);
#16=SPHERICAL_SURFACE('',#912,0.002);
#17=SPHERICAL_SURFACE('',#915,0.002);
#18=SPHERICAL_SURFACE('',#932,0.002);
#19=SPHERICAL_SURFACE('',#934,0.002);
#20=SPHERICAL_SURFACE('',#936,0.002);
#21=SPHERICAL_SURFACE('',#938,0.002);
#22=SPHERICAL_SURFACE('',#948,0.002);
#23=SPHERICAL_SURFACE('',#950,0.002);
#24=TOROIDAL_SURFACE('',#908,0.0045,0.002);
#25=CYLINDRICAL_SURFACE('',#876,0.0022);
#26=CYLINDRICAL_SURFACE('',#878,0.00125);
#27=CYLINDRICAL_SURFACE('',#889,0.0022);
#28=CYLINDRICAL_SURFACE('',#894,0.007505);
#29=CYLINDRICAL_SURFACE('',#897,0.004005);
#30=CYLINDRICAL_SURFACE('',#902,0.02);
#31=CYLINDRICAL_SURFACE('',#903,0.02);
#32=CYLINDRICAL_SURFACE('',#904,0.0025);
#33=CYLINDRICAL_SURFACE('',#909,0.002);
#34=CYLINDRICAL_SURFACE('',#918,0.002);
#35=CYLINDRICAL_SURFACE('',#920,0.002);
#36=CYLINDRICAL_SURFACE('',#922,0.002);
#37=CYLINDRICAL_SURFACE('',#925,0.002);
#38=CYLINDRICAL_SURFACE('',#927,0.002);
#39=CYLINDRICAL_SURFACE('',#929,0.002);
#40=CYLINDRICAL_SURFACE('',#940,0.002);
#41=CYLINDRICAL_SURFACE('',#942,0.002);
#42=CYLINDRICAL_SURFACE('',#944,0.002);
#43=CYLINDRICAL_SURFACE('',#946,0.002);
#44=CYLINDRICAL_SURFACE('',#952,0.002);
#45=CYLINDRICAL_SURFACE('',#961,0.002);
#46=CYLINDRICAL_SURFACE('',#964,0.002);
#47=CYLINDRICAL_SURFACE('',#966,0.002);
#48=CYLINDRICAL_SURFACE('',#968,0.002);
#49=CIRCLE('',#869,0.007505);
#50=CIRCLE('',#870,0.007505);
#51=CIRCLE('',#871,0.02);
#52=CIRCLE('',#872,0.004005);
#53=CIRCLE('',#873,0.02);
#54=CIRCLE('',#875,0.0022);
#55=CIRCLE('',#877,0.0022);
#56=CIRCLE('',#879,0.00125);
#57=CIRCLE('',#880,0.00125);
#58=CIRCLE('',#884,0.0045);
#59=CIRCLE('',#888,0.0022);
#60=CIRCLE('',#890,0.0022);
#61=CIRCLE('',#895,0.007505);
#62=CIRCLE('',#898,0.004005);
#63=CIRCLE('',#900,0.02);
#64=CIRCLE('',#901,0.02);
#65=CIRCLE('',#905,0.0025);
#66=CIRCLE('',#906,0.0025);
#67=CIRCLE('',#910,0.002);
#68=CIRCLE('',#911,0.002);
#69=CIRCLE('',#913,0.002);
#70=CIRCLE('',#914,0.002);
#71=CIRCLE('',#916,0.002);
#72=CIRCLE('',#917,0.002);
#73=CIRCLE('',#919,0.002);
#74=CIRCLE('',#921,0.002);
#75=CIRCLE('',#923,0.002);
#76=CIRCLE('',#924,0.002);
#77=CIRCLE('',#926,0.002);
#78=CIRCLE('',#928,0.002);
#79=CIRCLE('',#930,0.002);
#80=CIRCLE('',#931,0.002);
#81=CIRCLE('',#933,0.002);
#82=CIRCLE('',#935,0.002);
#83=CIRCLE('',#937,0.002);
#84=CIRCLE('',#939,0.002);
#85=CIRCLE('',#941,0.002);
#86=CIRCLE('',#943,0.002);
#87=CIRCLE('',#945,0.002);
#88=CIRCLE('',#947,0.002);
#89=CIRCLE('',#949,0.002);
#90=CIRCLE('',#951,0.002);
#91=ORIENTED_EDGE('',*,*,#321,.T.);
#92=ORIENTED_EDGE('',*,*,#322,.T.);
#93=ORIENTED_EDGE('',*,*,#323,.T.);
#94=ORIENTED_EDGE('',*,*,#324,.T.);
#95=ORIENTED_EDGE('',*,*,#325,.F.);
#96=ORIENTED_EDGE('',*,*,#326,.T.);
#97=ORIENTED_EDGE('',*,*,#327,.T.);
#98=ORIENTED_EDGE('',*,*,#328,.T.);
#99=ORIENTED_EDGE('',*,*,#329,.T.);
#100=ORIENTED_EDGE('',*,*,#330,.T.);
#101=ORIENTED_EDGE('',*,*,#331,.F.);
#102=ORIENTED_EDGE('',*,*,#332,.T.);
#103=ORIENTED_EDGE('',*,*,#333,.F.);
#104=ORIENTED_EDGE('',*,*,#334,.F.);
#105=ORIENTED_EDGE('',*,*,#335,.T.);
#106=ORIENTED_EDGE('',*,*,#336,.T.);
#107=ORIENTED_EDGE('',*,*,#337,.F.);
#108=ORIENTED_EDGE('',*,*,#338,.F.);
#109=ORIENTED_EDGE('',*,*,#339,.T.);
#110=ORIENTED_EDGE('',*,*,#340,.T.);
#111=ORIENTED_EDGE('',*,*,#341,.F.);
#112=ORIENTED_EDGE('',*,*,#342,.F.);
#113=ORIENTED_EDGE('',*,*,#337,.T.);
#114=ORIENTED_EDGE('',*,*,#343,.T.);
#115=ORIENTED_EDGE('',*,*,#344,.F.);
#116=ORIENTED_EDGE('',*,*,#345,.T.);
#117=ORIENTED_EDGE('',*,*,#346,.T.);
#118=ORIENTED_EDGE('',*,*,#347,.F.);
#119=ORIENTED_EDGE('',*,*,#348,.T.);
#120=ORIENTED_EDGE('',*,*,#349,.T.);
#121=ORIENTED_EDGE('',*,*,#350,.T.);
#122=ORIENTED_EDGE('',*,*,#351,.T.);
#123=ORIENTED_EDGE('',*,*,#352,.T.);
#124=ORIENTED_EDGE('',*,*,#353,.T.);
#125=ORIENTED_EDGE('',*,*,#354,.T.);
#126=ORIENTED_EDGE('',*,*,#355,.T.);
#127=ORIENTED_EDGE('',*,*,#356,.T.);
#128=ORIENTED_EDGE('',*,*,#357,.T.);
#129=ORIENTED_EDGE('',*,*,#358,.T.);
#130=ORIENTED_EDGE('',*,*,#359,.T.);
#131=ORIENTED_EDGE('',*,*,#360,.T.);
#132=ORIENTED_EDGE('',*,*,#361,.T.);
#133=ORIENTED_EDGE('',*,*,#362,.T.);
#134=ORIENTED_EDGE('',*,*,#363,.T.);
#135=ORIENTED_EDGE('',*,*,#364,.T.);
#136=ORIENTED_EDGE('',*,*,#365,.T.);
#137=ORIENTED_EDGE('',*,*,#366,.T.);
#138=ORIENTED_EDGE('',*,*,#367,.T.);
#139=ORIENTED_EDGE('',*,*,#368,.T.);
#140=ORIENTED_EDGE('',*,*,#369,.T.);
#141=ORIENTED_EDGE('',*,*,#370,.F.);
#142=ORIENTED_EDGE('',*,*,#371,.T.);
#143=ORIENTED_EDGE('',*,*,#372,.F.);
#144=ORIENTED_EDGE('',*,*,#373,.F.);
#145=ORIENTED_EDGE('',*,*,#374,.F.);
#146=ORIENTED_EDGE('',*,*,#375,.F.);
#147=ORIENTED_EDGE('',*,*,#374,.T.);
#148=ORIENTED_EDGE('',*,*,#375,.T.);
#149=ORIENTED_EDGE('',*,*,#342,.T.);
#150=ORIENTED_EDGE('',*,*,#333,.T.);
#151=ORIENTED_EDGE('',*,*,#376,.T.);
#152=ORIENTED_EDGE('',*,*,#377,.F.);
#153=ORIENTED_EDGE('',*,*,#378,.T.);
#154=ORIENTED_EDGE('',*,*,#331,.T.);
#155=ORIENTED_EDGE('',*,*,#325,.T.);
#156=ORIENTED_EDGE('',*,*,#379,.T.);
#157=ORIENTED_EDGE('',*,*,#380,.F.);
#158=ORIENTED_EDGE('',*,*,#381,.T.);
#159=ORIENTED_EDGE('',*,*,#382,.T.);
#160=ORIENTED_EDGE('',*,*,#383,.T.);
#161=ORIENTED_EDGE('',*,*,#335,.F.);
#162=ORIENTED_EDGE('',*,*,#384,.F.);
#163=ORIENTED_EDGE('',*,*,#334,.T.);
#164=ORIENTED_EDGE('',*,*,#378,.F.);
#165=ORIENTED_EDGE('',*,*,#385,.F.);
#166=ORIENTED_EDGE('',*,*,#384,.T.);
#167=ORIENTED_EDGE('',*,*,#377,.T.);
#168=ORIENTED_EDGE('',*,*,#386,.T.);
#169=ORIENTED_EDGE('',*,*,#380,.T.);
#170=ORIENTED_EDGE('',*,*,#387,.T.);
#171=ORIENTED_EDGE('',*,*,#382,.F.);
#172=ORIENTED_EDGE('',*,*,#385,.T.);
#173=ORIENTED_EDGE('',*,*,#343,.F.);
#174=ORIENTED_EDGE('',*,*,#387,.F.);
#175=ORIENTED_EDGE('',*,*,#379,.F.);
#176=ORIENTED_EDGE('',*,*,#336,.F.);
#177=ORIENTED_EDGE('',*,*,#383,.F.);
#178=ORIENTED_EDGE('',*,*,#386,.F.);
#179=ORIENTED_EDGE('',*,*,#376,.F.);
#180=ORIENTED_EDGE('',*,*,#332,.F.);
#181=ORIENTED_EDGE('',*,*,#381,.F.);
#182=ORIENTED_EDGE('',*,*,#388,.T.);
#183=ORIENTED_EDGE('',*,*,#389,.F.);
#184=ORIENTED_EDGE('',*,*,#344,.T.);
#185=ORIENTED_EDGE('',*,*,#389,.T.);
#186=ORIENTED_EDGE('',*,*,#357,.F.);
#187=ORIENTED_EDGE('',*,*,#388,.F.);
#188=ORIENTED_EDGE('',*,*,#390,.F.);
#189=ORIENTED_EDGE('',*,*,#356,.F.);
#190=ORIENTED_EDGE('',*,*,#391,.F.);
#191=ORIENTED_EDGE('',*,*,#369,.F.);
#192=ORIENTED_EDGE('',*,*,#392,.F.);
#193=ORIENTED_EDGE('',*,*,#390,.T.);
#194=ORIENTED_EDGE('',*,*,#393,.F.);
#195=ORIENTED_EDGE('',*,*,#394,.F.);
#196=ORIENTED_EDGE('',*,*,#391,.T.);
#197=ORIENTED_EDGE('',*,*,#395,.F.);
#198=ORIENTED_EDGE('',*,*,#393,.T.);
#199=ORIENTED_EDGE('',*,*,#368,.F.);
#200=ORIENTED_EDGE('',*,*,#396,.F.);
#201=ORIENTED_EDGE('',*,*,#360,.F.);
#202=ORIENTED_EDGE('',*,*,#392,.T.);
#203=ORIENTED_EDGE('',*,*,#359,.F.);
#204=ORIENTED_EDGE('',*,*,#397,.F.);
#205=ORIENTED_EDGE('',*,*,#353,.F.);
#206=ORIENTED_EDGE('',*,*,#398,.F.);
#207=ORIENTED_EDGE('',*,*,#354,.F.);
#208=ORIENTED_EDGE('',*,*,#399,.F.);
#209=ORIENTED_EDGE('',*,*,#362,.F.);
#210=ORIENTED_EDGE('',*,*,#395,.T.);
#211=ORIENTED_EDGE('',*,*,#355,.F.);
#212=ORIENTED_EDGE('',*,*,#400,.F.);
#213=ORIENTED_EDGE('',*,*,#326,.F.);
#214=ORIENTED_EDGE('',*,*,#330,.F.);
#215=ORIENTED_EDGE('',*,*,#394,.T.);
#216=ORIENTED_EDGE('',*,*,#329,.F.);
#217=ORIENTED_EDGE('',*,*,#401,.F.);
#218=ORIENTED_EDGE('',*,*,#366,.F.);
#219=ORIENTED_EDGE('',*,*,#402,.F.);
#220=ORIENTED_EDGE('',*,*,#367,.F.);
#221=ORIENTED_EDGE('',*,*,#403,.F.);
#222=ORIENTED_EDGE('',*,*,#352,.F.);
#223=ORIENTED_EDGE('',*,*,#396,.T.);
#224=ORIENTED_EDGE('',*,*,#402,.T.);
#225=ORIENTED_EDGE('',*,*,#404,.F.);
#226=ORIENTED_EDGE('',*,*,#399,.T.);
#227=ORIENTED_EDGE('',*,*,#397,.T.);
#228=ORIENTED_EDGE('',*,*,#405,.F.);
#229=ORIENTED_EDGE('',*,*,#400,.T.);
#230=ORIENTED_EDGE('',*,*,#398,.T.);
#231=ORIENTED_EDGE('',*,*,#406,.F.);
#232=ORIENTED_EDGE('',*,*,#403,.T.);
#233=ORIENTED_EDGE('',*,*,#401,.T.);
#234=ORIENTED_EDGE('',*,*,#407,.F.);
#235=ORIENTED_EDGE('',*,*,#404,.T.);
#236=ORIENTED_EDGE('',*,*,#351,.F.);
#237=ORIENTED_EDGE('',*,*,#408,.F.);
#238=ORIENTED_EDGE('',*,*,#361,.F.);
#239=ORIENTED_EDGE('',*,*,#405,.T.);
#240=ORIENTED_EDGE('',*,*,#358,.F.);
#241=ORIENTED_EDGE('',*,*,#409,.F.);
#242=ORIENTED_EDGE('',*,*,#363,.F.);
#243=ORIENTED_EDGE('',*,*,#406,.T.);
#244=ORIENTED_EDGE('',*,*,#365,.F.);
#245=ORIENTED_EDGE('',*,*,#410,.F.);
#246=ORIENTED_EDGE('',*,*,#327,.F.);
#247=ORIENTED_EDGE('',*,*,#407,.T.);
#248=ORIENTED_EDGE('',*,*,#328,.F.);
#249=ORIENTED_EDGE('',*,*,#411,.F.);
#250=ORIENTED_EDGE('',*,*,#349,.F.);
#251=ORIENTED_EDGE('',*,*,#409,.T.);
#252=ORIENTED_EDGE('',*,*,#408,.T.);
#253=ORIENTED_EDGE('',*,*,#412,.F.);
#254=ORIENTED_EDGE('',*,*,#411,.T.);
#255=ORIENTED_EDGE('',*,*,#410,.T.);
#256=ORIENTED_EDGE('',*,*,#413,.F.);
#257=ORIENTED_EDGE('',*,*,#412,.T.);
#258=ORIENTED_EDGE('',*,*,#350,.F.);
#259=ORIENTED_EDGE('',*,*,#413,.T.);
#260=ORIENTED_EDGE('',*,*,#364,.F.);
#261=ORIENTED_EDGE('',*,*,#414,.F.);
#262=ORIENTED_EDGE('',*,*,#415,.T.);
#263=ORIENTED_EDGE('',*,*,#416,.T.);
#264=ORIENTED_EDGE('',*,*,#417,.F.);
#265=ORIENTED_EDGE('',*,*,#346,.F.);
#266=ORIENTED_EDGE('',*,*,#418,.F.);
#267=ORIENTED_EDGE('',*,*,#372,.T.);
#268=ORIENTED_EDGE('',*,*,#419,.T.);
#269=ORIENTED_EDGE('',*,*,#348,.F.);
#270=ORIENTED_EDGE('',*,*,#420,.F.);
#271=ORIENTED_EDGE('',*,*,#338,.T.);
#272=ORIENTED_EDGE('',*,*,#421,.T.);
#273=ORIENTED_EDGE('',*,*,#370,.T.);
#274=ORIENTED_EDGE('',*,*,#422,.F.);
#275=ORIENTED_EDGE('',*,*,#423,.F.);
#276=ORIENTED_EDGE('',*,*,#424,.T.);
#277=ORIENTED_EDGE('',*,*,#340,.F.);
#278=ORIENTED_EDGE('',*,*,#425,.F.);
#279=ORIENTED_EDGE('',*,*,#417,.T.);
#280=ORIENTED_EDGE('',*,*,#426,.T.);
#281=ORIENTED_EDGE('',*,*,#427,.F.);
#282=ORIENTED_EDGE('',*,*,#428,.T.);
#283=ORIENTED_EDGE('',*,*,#429,.T.);
#284=ORIENTED_EDGE('',*,*,#423,.T.);
#285=ORIENTED_EDGE('',*,*,#429,.F.);
#286=ORIENTED_EDGE('',*,*,#430,.T.);
#287=ORIENTED_EDGE('',*,*,#414,.T.);
#288=ORIENTED_EDGE('',*,*,#425,.T.);
#289=ORIENTED_EDGE('',*,*,#339,.F.);
#290=ORIENTED_EDGE('',*,*,#420,.T.);
#291=ORIENTED_EDGE('',*,*,#347,.T.);
#292=ORIENTED_EDGE('',*,*,#419,.F.);
#293=ORIENTED_EDGE('',*,*,#371,.F.);
#294=ORIENTED_EDGE('',*,*,#424,.F.);
#295=ORIENTED_EDGE('',*,*,#416,.F.);
#296=ORIENTED_EDGE('',*,*,#431,.T.);
#297=ORIENTED_EDGE('',*,*,#427,.T.);
#298=ORIENTED_EDGE('',*,*,#422,.T.);
#299=ORIENTED_EDGE('',*,*,#373,.T.);
#300=ORIENTED_EDGE('',*,*,#418,.T.);
#301=ORIENTED_EDGE('',*,*,#345,.F.);
#302=ORIENTED_EDGE('',*,*,#421,.F.);
#303=ORIENTED_EDGE('',*,*,#341,.T.);
#304=ORIENTED_EDGE('',*,*,#426,.F.);
#305=ORIENTED_EDGE('',*,*,#432,.F.);
#306=ORIENTED_EDGE('',*,*,#324,.F.);
#307=ORIENTED_EDGE('',*,*,#433,.F.);
#308=ORIENTED_EDGE('',*,*,#430,.F.);
#309=ORIENTED_EDGE('',*,*,#433,.T.);
#310=ORIENTED_EDGE('',*,*,#323,.F.);
#311=ORIENTED_EDGE('',*,*,#434,.F.);
#312=ORIENTED_EDGE('',*,*,#415,.F.);
#313=ORIENTED_EDGE('',*,*,#432,.T.);
#314=ORIENTED_EDGE('',*,*,#428,.F.);
#315=ORIENTED_EDGE('',*,*,#435,.F.);
#316=ORIENTED_EDGE('',*,*,#321,.F.);
#317=ORIENTED_EDGE('',*,*,#434,.T.);
#318=ORIENTED_EDGE('',*,*,#322,.F.);
#319=ORIENTED_EDGE('',*,*,#435,.T.);
#320=ORIENTED_EDGE('',*,*,#431,.F.);
#321=EDGE_CURVE('',#436,#437,#506,.F.);
#322=EDGE_CURVE('',#437,#438,#507,.F.);
#323=EDGE_CURVE('',#438,#439,#508,.T.);
#324=EDGE_CURVE('',#439,#436,#509,.T.);
#325=EDGE_CURVE('',#440,#441,#49,.T.);
#326=EDGE_CURVE('',#440,#442,#510,.F.);
#327=EDGE_CURVE('',#442,#443,#511,.T.);
#328=EDGE_CURVE('',#443,#444,#512,.T.);
#329=EDGE_CURVE('',#444,#445,#513,.F.);
#330=EDGE_CURVE('',#445,#440,#514,.F.);
#331=EDGE_CURVE('',#446,#440,#50,.T.);
#332=EDGE_CURVE('',#446,#447,#51,.T.);
#333=EDGE_CURVE('',#448,#447,#515,.T.);
#334=EDGE_CURVE('',#449,#448,#52,.T.);
#335=EDGE_CURVE('',#449,#450,#516,.T.);
#336=EDGE_CURVE('',#450,#441,#53,.T.);
#337=EDGE_CURVE('',#451,#451,#54,.T.);
#338=EDGE_CURVE('',#452,#453,#517,.T.);
#339=EDGE_CURVE('',#452,#454,#518,.T.);
#340=EDGE_CURVE('',#454,#455,#519,.T.);
#341=EDGE_CURVE('',#453,#455,#520,.T.);
#342=EDGE_CURVE('',#456,#456,#55,.T.);
#343=EDGE_CURVE('',#457,#457,#56,.T.);
#344=EDGE_CURVE('',#458,#458,#57,.T.);
#345=EDGE_CURVE('',#459,#460,#521,.T.);
#346=EDGE_CURVE('',#460,#461,#522,.T.);
#347=EDGE_CURVE('',#462,#461,#523,.T.);
#348=EDGE_CURVE('',#462,#459,#524,.T.);
#349=EDGE_CURVE('',#463,#464,#525,.F.);
#350=EDGE_CURVE('',#464,#465,#526,.F.);
#351=EDGE_CURVE('',#465,#466,#527,.T.);
#352=EDGE_CURVE('',#466,#463,#528,.T.);
#353=EDGE_CURVE('',#467,#468,#529,.F.);
#354=EDGE_CURVE('',#468,#469,#530,.T.);
#355=EDGE_CURVE('',#469,#470,#531,.T.);
#356=EDGE_CURVE('',#470,#467,#532,.F.);
#357=EDGE_CURVE('',#471,#471,#58,.T.);
#358=EDGE_CURVE('',#472,#473,#533,.F.);
#359=EDGE_CURVE('',#473,#474,#534,.T.);
#360=EDGE_CURVE('',#474,#475,#535,.T.);
#361=EDGE_CURVE('',#475,#472,#536,.F.);
#362=EDGE_CURVE('',#476,#477,#537,.F.);
#363=EDGE_CURVE('',#477,#478,#538,.T.);
#364=EDGE_CURVE('',#478,#479,#539,.T.);
#365=EDGE_CURVE('',#479,#476,#540,.F.);
#366=EDGE_CURVE('',#480,#481,#541,.T.);
#367=EDGE_CURVE('',#481,#482,#542,.F.);
#368=EDGE_CURVE('',#482,#483,#543,.F.);
#369=EDGE_CURVE('',#483,#480,#544,.T.);
#370=EDGE_CURVE('',#484,#485,#545,.T.);
#371=EDGE_CURVE('',#484,#486,#546,.T.);
#372=EDGE_CURVE('',#487,#486,#547,.T.);
#373=EDGE_CURVE('',#485,#487,#548,.T.);
#374=EDGE_CURVE('',#488,#488,#59,.T.);
#375=EDGE_CURVE('',#489,#489,#60,.T.);
#376=EDGE_CURVE('',#447,#490,#549,.F.);
#377=EDGE_CURVE('',#491,#490,#550,.T.);
#378=EDGE_CURVE('',#491,#448,#551,.T.);
#379=EDGE_CURVE('',#441,#492,#552,.F.);
#380=EDGE_CURVE('',#493,#492,#61,.T.);
#381=EDGE_CURVE('',#493,#446,#553,.T.);
#382=EDGE_CURVE('',#494,#495,#554,.T.);
#383=EDGE_CURVE('',#495,#450,#555,.F.);
#384=EDGE_CURVE('',#494,#449,#556,.T.);
#385=EDGE_CURVE('',#494,#491,#62,.T.);
#386=EDGE_CURVE('',#490,#493,#63,.F.);
#387=EDGE_CURVE('',#492,#495,#64,.F.);
#388=EDGE_CURVE('',#496,#496,#65,.F.);
#389=EDGE_CURVE('',#497,#497,#66,.T.);
#390=EDGE_CURVE('',#467,#483,#67,.T.);
#391=EDGE_CURVE('',#480,#470,#68,.T.);
#392=EDGE_CURVE('',#467,#474,#69,.F.);
#393=EDGE_CURVE('',#474,#483,#70,.F.);
#394=EDGE_CURVE('',#480,#445,#71,.F.);
#395=EDGE_CURVE('',#445,#470,#72,.F.);
#396=EDGE_CURVE('',#475,#482,#73,.T.);
#397=EDGE_CURVE('',#468,#473,#74,.T.);
#398=EDGE_CURVE('',#469,#476,#75,.T.);
#399=EDGE_CURVE('',#477,#468,#76,.T.);
#400=EDGE_CURVE('',#442,#469,#77,.T.);
#401=EDGE_CURVE('',#481,#444,#78,.T.);
#402=EDGE_CURVE('',#482,#466,#79,.T.);
#403=EDGE_CURVE('',#463,#481,#80,.T.);
#404=EDGE_CURVE('',#475,#466,#81,.F.);
#405=EDGE_CURVE('',#477,#473,#82,.F.);
#406=EDGE_CURVE('',#442,#476,#83,.F.);
#407=EDGE_CURVE('',#463,#444,#84,.F.);
#408=EDGE_CURVE('',#472,#465,#85,.T.);
#409=EDGE_CURVE('',#478,#472,#86,.T.);
#410=EDGE_CURVE('',#443,#479,#87,.T.);
#411=EDGE_CURVE('',#464,#443,#88,.T.);
#412=EDGE_CURVE('',#478,#465,#89,.F.);
#413=EDGE_CURVE('',#464,#479,#90,.F.);
#414=EDGE_CURVE('',#498,#499,#557,.T.);
#415=EDGE_CURVE('',#498,#500,#558,.F.);
#416=EDGE_CURVE('',#500,#501,#559,.T.);
#417=EDGE_CURVE('',#499,#501,#560,.T.);
#418=EDGE_CURVE('',#487,#460,#561,.T.);
#419=EDGE_CURVE('',#486,#461,#562,.T.);
#420=EDGE_CURVE('',#452,#462,#563,.T.);
#421=EDGE_CURVE('',#453,#459,#564,.T.);
#422=EDGE_CURVE('',#502,#485,#565,.T.);
#423=EDGE_CURVE('',#503,#502,#566,.T.);
#424=EDGE_CURVE('',#503,#484,#567,.T.);
#425=EDGE_CURVE('',#499,#454,#568,.T.);
#426=EDGE_CURVE('',#501,#455,#569,.T.);
#427=EDGE_CURVE('',#504,#502,#570,.T.);
#428=EDGE_CURVE('',#504,#505,#571,.T.);
#429=EDGE_CURVE('',#505,#503,#572,.T.);
#430=EDGE_CURVE('',#505,#498,#573,.F.);
#431=EDGE_CURVE('',#500,#504,#574,.T.);
#432=EDGE_CURVE('',#436,#505,#12,.F.);
#433=EDGE_CURVE('',#498,#439,#13,.F.);
#434=EDGE_CURVE('',#500,#438,#14,.T.);
#435=EDGE_CURVE('',#437,#504,#15,.F.);
#436=VERTEX_POINT('',#1245);
#437=VERTEX_POINT('',#1246);
#438=VERTEX_POINT('',#1248);
#439=VERTEX_POINT('',#1250);
#440=VERTEX_POINT('',#1253);
#441=VERTEX_POINT('',#1254);
#442=VERTEX_POINT('',#1256);
#443=VERTEX_POINT('',#1258);
#444=VERTEX_POINT('',#1260);
#445=VERTEX_POINT('',#1262);
#446=VERTEX_POINT('',#1265);
#447=VERTEX_POINT('',#1267);
#448=VERTEX_POINT('',#1269);
#449=VERTEX_POINT('',#1271);
#450=VERTEX_POINT('',#1273);
#451=VERTEX_POINT('',#1277);
#452=VERTEX_POINT('',#1279);
#453=VERTEX_POINT('',#1280);
#454=VERTEX_POINT('',#1282);
#455=VERTEX_POINT('',#1284);
#456=VERTEX_POINT('',#1288);
#457=VERTEX_POINT('',#1291);
#458=VERTEX_POINT('',#1293);
#459=VERTEX_POINT('',#1296);
#460=VERTEX_POINT('',#1297);
#461=VERTEX_POINT('',#1299);
#462=VERTEX_POINT('',#1301);
#463=VERTEX_POINT('',#1304);
#464=VERTEX_POINT('',#1305);
#465=VERTEX_POINT('',#1307);
#466=VERTEX_POINT('',#1309);
#467=VERTEX_POINT('',#1313);
#468=VERTEX_POINT('',#1314);
#469=VERTEX_POINT('',#1316);
#470=VERTEX_POINT('',#1318);
#471=VERTEX_POINT('',#1322);
#472=VERTEX_POINT('',#1324);
#473=VERTEX_POINT('',#1325);
#474=VERTEX_POINT('',#1327);
#475=VERTEX_POINT('',#1329);
#476=VERTEX_POINT('',#1333);
#477=VERTEX_POINT('',#1334);
#478=VERTEX_POINT('',#1336);
#479=VERTEX_POINT('',#1338);
#480=VERTEX_POINT('',#1342);
#481=VERTEX_POINT('',#1343);
#482=VERTEX_POINT('',#1345);
#483=VERTEX_POINT('',#1347);
#484=VERTEX_POINT('',#1351);
#485=VERTEX_POINT('',#1352);
#486=VERTEX_POINT('',#1354);
#487=VERTEX_POINT('',#1356);
#488=VERTEX_POINT('',#1359);
#489=VERTEX_POINT('',#1362);
#490=VERTEX_POINT('',#1367);
#491=VERTEX_POINT('',#1369);
#492=VERTEX_POINT('',#1373);
#493=VERTEX_POINT('',#1375);
#494=VERTEX_POINT('',#1379);
#495=VERTEX_POINT('',#1380);
#496=VERTEX_POINT('',#1392);
#497=VERTEX_POINT('',#1394);
#498=VERTEX_POINT('',#1443);
#499=VERTEX_POINT('',#1444);
#500=VERTEX_POINT('',#1446);
#501=VERTEX_POINT('',#1448);
#502=VERTEX_POINT('',#1458);
#503=VERTEX_POINT('',#1460);
#504=VERTEX_POINT('',#1467);
#505=VERTEX_POINT('',#1469);
#506=LINE('',#1244,#575);
#507=LINE('',#1247,#576);
#508=LINE('',#1249,#577);
#509=LINE('',#1251,#578);
#510=LINE('',#1255,#579);
#511=LINE('',#1257,#580);
#512=LINE('',#1259,#581);
#513=LINE('',#1261,#582);
#514=LINE('',#1263,#583);
#515=LINE('',#1268,#584);
#516=LINE('',#1272,#585);
#517=LINE('',#1278,#586);
#518=LINE('',#1281,#587);
#519=LINE('',#1283,#588);
#520=LINE('',#1285,#589);
#521=LINE('',#1295,#590);
#522=LINE('',#1298,#591);
#523=LINE('',#1300,#592);
#524=LINE('',#1302,#593);
#525=LINE('',#1303,#594);
#526=LINE('',#1306,#595);
#527=LINE('',#1308,#596);
#528=LINE('',#1310,#597);
#529=LINE('',#1312,#598);
#530=LINE('',#1315,#599);
#531=LINE('',#1317,#600);
#532=LINE('',#1319,#601);
#533=LINE('',#1323,#602);
#534=LINE('',#1326,#603);
#535=LINE('',#1328,#604);
#536=LINE('',#1330,#605);
#537=LINE('',#1332,#606);
#538=LINE('',#1335,#607);
#539=LINE('',#1337,#608);
#540=LINE('',#1339,#609);
#541=LINE('',#1341,#610);
#542=LINE('',#1344,#611);
#543=LINE('',#1346,#612);
#544=LINE('',#1348,#613);
#545=LINE('',#1350,#614);
#546=LINE('',#1353,#615);
#547=LINE('',#1355,#616);
#548=LINE('',#1357,#617);
#549=LINE('',#1366,#618);
#550=LINE('',#1368,#619);
#551=LINE('',#1370,#620);
#552=LINE('',#1372,#621);
#553=LINE('',#1376,#622);
#554=LINE('',#1378,#623);
#555=LINE('',#1381,#624);
#556=LINE('',#1382,#625);
#557=LINE('',#1442,#626);
#558=LINE('',#1445,#627);
#559=LINE('',#1447,#628);
#560=LINE('',#1449,#629);
#561=LINE('',#1451,#630);
#562=LINE('',#1452,#631);
#563=LINE('',#1454,#632);
#564=LINE('',#1455,#633);
#565=LINE('',#1457,#634);
#566=LINE('',#1459,#635);
#567=LINE('',#1461,#636);
#568=LINE('',#1463,#637);
#569=LINE('',#1464,#638);
#570=LINE('',#1466,#639);
#571=LINE('',#1468,#640);
#572=LINE('',#1470,#641);
#573=LINE('',#1472,#642);
#574=LINE('',#1474,#643);
#575=VECTOR('',#973,1.);
#576=VECTOR('',#974,1.);
#577=VECTOR('',#975,1.);
#578=VECTOR('',#976,1.);
#579=VECTOR('',#979,1.);
#580=VECTOR('',#980,1.);
#581=VECTOR('',#981,1.);
#582=VECTOR('',#982,1.);
#583=VECTOR('',#983,1.);
#584=VECTOR('',#988,1.);
#585=VECTOR('',#991,1.);
#586=VECTOR('',#998,1.);
#587=VECTOR('',#999,1.);
#588=VECTOR('',#1000,1.);
#589=VECTOR('',#1001,1.);
#590=VECTOR('',#1014,1.);
#591=VECTOR('',#1015,1.);
#592=VECTOR('',#1016,1.);
#593=VECTOR('',#1017,1.);
#594=VECTOR('',#1018,1.);
#595=VECTOR('',#1019,1.);
#596=VECTOR('',#1020,1.);
#597=VECTOR('',#1021,1.);
#598=VECTOR('',#1024,1.);
#599=VECTOR('',#1025,1.);
#600=VECTOR('',#1026,1.);
#601=VECTOR('',#1027,1.);
#602=VECTOR('',#1032,1.);
#603=VECTOR('',#1033,1.);
#604=VECTOR('',#1034,1.);
#605=VECTOR('',#1035,1.);
#606=VECTOR('',#1038,1.);
#607=VECTOR('',#1039,1.);
#608=VECTOR('',#1040,1.);
#609=VECTOR('',#1041,1.);
#610=VECTOR('',#1044,1.);
#611=VECTOR('',#1045,1.);
#612=VECTOR('',#1046,1.);
#613=VECTOR('',#1047,1.);
#614=VECTOR('',#1050,1.);
#615=VECTOR('',#1051,1.);
#616=VECTOR('',#1052,1.);
#617=VECTOR('',#1053,1.);
#618=VECTOR('',#1066,1.);
#619=VECTOR('',#1067,1.);
#620=VECTOR('',#1068,1.);
#621=VECTOR('',#1071,1.);
#622=VECTOR('',#1074,1.);
#623=VECTOR('',#1077,1.);
#624=VECTOR('',#1078,1.);
#625=VECTOR('',#1079,1.);
#626=VECTOR('',#1194,1.);
#627=VECTOR('',#1195,1.);
#628=VECTOR('',#1196,1.);
#629=VECTOR('',#1197,1.);
#630=VECTOR('',#1200,1.);
#631=VECTOR('',#1201,1.);
#632=VECTOR('',#1204,1.);
#633=VECTOR('',#1205,1.);
#634=VECTOR('',#1208,1.);
#635=VECTOR('',#1209,1.);
#636=VECTOR('',#1210,1.);
#637=VECTOR('',#1213,1.);
#638=VECTOR('',#1214,1.);
#639=VECTOR('',#1217,1.);
#640=VECTOR('',#1218,1.);
#641=VECTOR('',#1219,1.);
#642=VECTOR('',#1222,1.);
#643=VECTOR('',#1225,1.);
#644=EDGE_LOOP('',(#91,#92,#93,#94));
#645=EDGE_LOOP('',(#95,#96,#97,#98,#99,#100,#101,#102,#103,#104,#105,#106));
#646=EDGE_LOOP('',(#107));
#647=EDGE_LOOP('',(#108,#109,#110,#111));
#648=EDGE_LOOP('',(#112));
#649=EDGE_LOOP('',(#113));
#650=EDGE_LOOP('',(#114));
#651=EDGE_LOOP('',(#115));
#652=EDGE_LOOP('',(#116,#117,#118,#119));
#653=EDGE_LOOP('',(#120,#121,#122,#123));
#654=EDGE_LOOP('',(#124,#125,#126,#127));
#655=EDGE_LOOP('',(#128));
#656=EDGE_LOOP('',(#129,#130,#131,#132));
#657=EDGE_LOOP('',(#133,#134,#135,#136));
#658=EDGE_LOOP('',(#137,#138,#139,#140));
#659=EDGE_LOOP('',(#141,#142,#143,#144));
#660=EDGE_LOOP('',(#145));
#661=EDGE_LOOP('',(#146));
#662=EDGE_LOOP('',(#147));
#663=EDGE_LOOP('',(#148));
#664=EDGE_LOOP('',(#149));
#665=EDGE_LOOP('',(#150,#151,#152,#153));
#666=EDGE_LOOP('',(#154,#155,#156,#157,#158));
#667=EDGE_LOOP('',(#159,#160,#161,#162));
#668=EDGE_LOOP('',(#163,#164,#165,#166));
#669=EDGE_LOOP('',(#167,#168,#169,#170,#171,#172));
#670=EDGE_LOOP('',(#173));
#671=EDGE_LOOP('',(#174,#175,#176,#177));
#672=EDGE_LOOP('',(#178,#179,#180,#181));
#673=EDGE_LOOP('',(#182));
#674=EDGE_LOOP('',(#183));
#675=EDGE_LOOP('',(#184));
#676=EDGE_LOOP('',(#185));
#677=EDGE_LOOP('',(#186));
#678=EDGE_LOOP('',(#187));
#679=EDGE_LOOP('',(#188,#189,#190,#191));
#680=EDGE_LOOP('',(#192,#193,#194));
#681=EDGE_LOOP('',(#195,#196,#197));
#682=EDGE_LOOP('',(#198,#199,#200,#201));
#683=EDGE_LOOP('',(#202,#203,#204,#205));
#684=EDGE_LOOP('',(#206,#207,#208,#209));
#685=EDGE_LOOP('',(#210,#211,#212,#213,#214));
#686=EDGE_LOOP('',(#215,#216,#217,#218));
#687=EDGE_LOOP('',(#219,#220,#221,#222));
#688=EDGE_LOOP('',(#223,#224,#225));
#689=EDGE_LOOP('',(#226,#227,#228));
#690=EDGE_LOOP('',(#229,#230,#231));
#691=EDGE_LOOP('',(#232,#233,#234));
#692=EDGE_LOOP('',(#235,#236,#237,#238));
#693=EDGE_LOOP('',(#239,#240,#241,#242));
#694=EDGE_LOOP('',(#243,#244,#245,#246));
#695=EDGE_LOOP('',(#247,#248,#249,#250));
#696=EDGE_LOOP('',(#251,#252,#253));
#697=EDGE_LOOP('',(#254,#255,#256));
#698=EDGE_LOOP('',(#257,#258,#259,#260));
#699=EDGE_LOOP('',(#261,#262,#263,#264));
#700=EDGE_LOOP('',(#265,#266,#267,#268));
#701=EDGE_LOOP('',(#269,#270,#271,#272));
#702=EDGE_LOOP('',(#273,#274,#275,#276));
#703=EDGE_LOOP('',(#277,#278,#279,#280));
#704=EDGE_LOOP('',(#281,#282,#283,#284));
#705=EDGE_LOOP('',(#285,#286,#287,#288,#289,#290,#291,#292,#293,#294));
#706=EDGE_LOOP('',(#295,#296,#297,#298,#299,#300,#301,#302,#303,#304));
#707=EDGE_LOOP('',(#305,#306,#307,#308));
#708=EDGE_LOOP('',(#309,#310,#311,#312));
#709=EDGE_LOOP('',(#313,#314,#315,#316));
#710=EDGE_LOOP('',(#317,#318,#319,#320));
#711=FACE_BOUND('',#644,.T.);
#712=FACE_BOUND('',#645,.T.);
#713=FACE_BOUND('',#646,.T.);
#714=FACE_BOUND('',#647,.T.);
#715=FACE_BOUND('',#648,.T.);
#716=FACE_BOUND('',#649,.T.);
#717=FACE_BOUND('',#650,.T.);
#718=FACE_BOUND('',#651,.T.);
#719=FACE_BOUND('',#652,.T.);
#720=FACE_BOUND('',#653,.T.);
#721=FACE_BOUND('',#654,.T.);
#722=FACE_BOUND('',#655,.T.);
#723=FACE_BOUND('',#656,.T.);
#724=FACE_BOUND('',#657,.T.);
#725=FACE_BOUND('',#658,.T.);
#726=FACE_BOUND('',#659,.T.);
#727=FACE_BOUND('',#660,.T.);
#728=FACE_BOUND('',#661,.T.);
#729=FACE_BOUND('',#662,.T.);
#730=FACE_BOUND('',#663,.T.);
#731=FACE_BOUND('',#664,.T.);
#732=FACE_BOUND('',#665,.T.);
#733=FACE_BOUND('',#666,.T.);
#734=FACE_BOUND('',#667,.T.);
#735=FACE_BOUND('',#668,.T.);
#736=FACE_BOUND('',#669,.T.);
#737=FACE_BOUND('',#670,.T.);
#738=FACE_BOUND('',#671,.T.);
#739=FACE_BOUND('',#672,.T.);
#740=FACE_BOUND('',#673,.T.);
#741=FACE_BOUND('',#674,.T.);
#742=FACE_BOUND('',#675,.T.);
#743=FACE_BOUND('',#676,.T.);
#744=FACE_BOUND('',#677,.T.);
#745=FACE_BOUND('',#678,.T.);
#746=FACE_BOUND('',#679,.T.);
#747=FACE_BOUND('',#680,.T.);
#748=FACE_BOUND('',#681,.T.);
#749=FACE_BOUND('',#682,.T.);
#750=FACE_BOUND('',#683,.T.);
#751=FACE_BOUND('',#684,.T.);
#752=FACE_BOUND('',#685,.T.);
#753=FACE_BOUND('',#686,.T.);
#754=FACE_BOUND('',#687,.T.);
#755=FACE_BOUND('',#688,.T.);
#756=FACE_BOUND('',#689,.T.);
#757=FACE_BOUND('',#690,.T.);
#758=FACE_BOUND('',#691,.T.);
#759=FACE_BOUND('',#692,.T.);
#760=FACE_BOUND('',#693,.T.);
#761=FACE_BOUND('',#694,.T.);
#762=FACE_BOUND('',#695,.T.);
#763=FACE_BOUND('',#696,.T.);
#764=FACE_BOUND('',#697,.T.);
#765=FACE_BOUND('',#698,.T.);
#766=FACE_BOUND('',#699,.T.);
#767=FACE_BOUND('',#700,.T.);
#768=FACE_BOUND('',#701,.T.);
#769=FACE_BOUND('',#702,.T.);
#770=FACE_BOUND('',#703,.T.);
#771=FACE_BOUND('',#704,.T.);
#772=FACE_BOUND('',#705,.T.);
#773=FACE_BOUND('',#706,.T.);
#774=FACE_BOUND('',#707,.T.);
#775=FACE_BOUND('',#708,.T.);
#776=FACE_BOUND('',#709,.T.);
#777=FACE_BOUND('',#710,.T.);
#778=PLANE('',#868);
#779=PLANE('',#874);
#780=PLANE('',#881);
#781=PLANE('',#882);
#782=PLANE('',#883);
#783=PLANE('',#885);
#784=PLANE('',#886);
#785=PLANE('',#887);
#786=PLANE('',#891);
#787=PLANE('',#892);
#788=PLANE('',#893);
#789=PLANE('',#896);
#790=PLANE('',#899);
#791=PLANE('',#907);
#792=PLANE('',#953);
#793=PLANE('',#954);
#794=PLANE('',#955);
#795=PLANE('',#956);
#796=PLANE('',#957);
#797=PLANE('',#958);
#798=PLANE('',#959);
#799=PLANE('',#960);
#800=ADVANCED_FACE('',(#711,#712),#778,.T.);
#801=ADVANCED_FACE('',(#713,#714),#779,.T.);
#802=ADVANCED_FACE('',(#715,#716),#25,.F.);
#803=ADVANCED_FACE('',(#717,#718),#26,.F.);
#804=ADVANCED_FACE('',(#719,#720),#780,.F.);
#805=ADVANCED_FACE('',(#721),#781,.T.);
#806=ADVANCED_FACE('',(#722,#723),#782,.F.);
#807=ADVANCED_FACE('',(#724),#783,.T.);
#808=ADVANCED_FACE('',(#725),#784,.F.);
#809=ADVANCED_FACE('',(#726,#727),#785,.T.);
#810=ADVANCED_FACE('',(#728,#729),#27,.F.);
#811=ADVANCED_FACE('',(#730),#786,.T.);
#812=ADVANCED_FACE('',(#731),#787,.T.);
#813=ADVANCED_FACE('',(#732),#788,.F.);
#814=ADVANCED_FACE('',(#733),#28,.F.);
#815=ADVANCED_FACE('',(#734),#789,.T.);
#816=ADVANCED_FACE('',(#735),#29,.F.);
#817=ADVANCED_FACE('',(#736,#737),#790,.T.);
#818=ADVANCED_FACE('',(#738),#30,.T.);
#819=ADVANCED_FACE('',(#739),#31,.T.);
#820=ADVANCED_FACE('',(#740,#741),#32,.F.);
#821=ADVANCED_FACE('',(#742,#743),#791,.T.);
#822=ADVANCED_FACE('',(#744,#745),#24,.T.);
#823=ADVANCED_FACE('',(#746),#33,.T.);
#824=ADVANCED_FACE('',(#747),#16,.T.);
#825=ADVANCED_FACE('',(#748),#17,.T.);
#826=ADVANCED_FACE('',(#749),#34,.T.);
#827=ADVANCED_FACE('',(#750),#35,.T.);
#828=ADVANCED_FACE('',(#751),#36,.T.);
#829=ADVANCED_FACE('',(#752),#37,.T.);
#830=ADVANCED_FACE('',(#753),#38,.T.);
#831=ADVANCED_FACE('',(#754),#39,.T.);
#832=ADVANCED_FACE('',(#755),#18,.T.);
#833=ADVANCED_FACE('',(#756),#19,.T.);
#834=ADVANCED_FACE('',(#757),#20,.T.);
#835=ADVANCED_FACE('',(#758),#21,.T.);
#836=ADVANCED_FACE('',(#759),#40,.T.);
#837=ADVANCED_FACE('',(#760),#41,.T.);
#838=ADVANCED_FACE('',(#761),#42,.T.);
#839=ADVANCED_FACE('',(#762),#43,.T.);
#840=ADVANCED_FACE('',(#763),#22,.T.);
#841=ADVANCED_FACE('',(#764),#23,.T.);
#842=ADVANCED_FACE('',(#765),#44,.T.);
#843=ADVANCED_FACE('',(#766),#792,.T.);
#844=ADVANCED_FACE('',(#767),#793,.T.);
#845=ADVANCED_FACE('',(#768),#794,.T.);
#846=ADVANCED_FACE('',(#769),#795,.F.);
#847=ADVANCED_FACE('',(#770),#796,.T.);
#848=ADVANCED_FACE('',(#771),#797,.T.);
#849=ADVANCED_FACE('',(#772),#798,.F.);
#850=ADVANCED_FACE('',(#773),#799,.T.);
#851=ADVANCED_FACE('',(#774),#45,.T.);
#852=ADVANCED_FACE('',(#775),#46,.T.);
#853=ADVANCED_FACE('',(#776),#47,.T.);
#854=ADVANCED_FACE('',(#777),#48,.T.);
#855=CLOSED_SHELL('',(#800,#801,#802,#803,#804,#805,#806,#807,#808,#809,
#810,#811,#812,#813,#814,#815,#816,#817,#818,#819,#820,#821,#822,#823,#824,
#825,#826,#827,#828,#829,#830,#831,#832,#833,#834,#835,#836,#837,#838,#839,
#840,#841,#842,#843,#844,#845,#846,#847,#848,#849,#850,#851,#852,#853,#854));
#856=STYLED_ITEM('',(#857),#864);
#857=PRESENTATION_STYLE_ASSIGNMENT((#858));
#858=SURFACE_STYLE_USAGE(.BOTH.,#859);
#859=SURFACE_SIDE_STYLE('',(#860));
#860=SURFACE_STYLE_FILL_AREA(#861);
#861=FILL_AREA_STYLE('',(#862));
#862=FILL_AREA_STYLE_COLOUR('',#863);
#863=COLOUR_RGB('',0.615686274509804,0.811764705882353,0.929411764705882);
#864=MANIFOLD_SOLID_BREP('Part 1',#855);
#865=SHAPE_DEFINITION_REPRESENTATION(#1489,#866);
#866=SHAPE_REPRESENTATION('Part 1',(#867),#1484);
#867=AXIS2_PLACEMENT_3D('',#1242,#969,#970);
#868=AXIS2_PLACEMENT_3D('',#1243,#971,#972);
#869=AXIS2_PLACEMENT_3D('',#1252,#977,#978);
#870=AXIS2_PLACEMENT_3D('',#1264,#984,#985);
#871=AXIS2_PLACEMENT_3D('',#1266,#986,#987);
#872=AXIS2_PLACEMENT_3D('',#1270,#989,#990);
#873=AXIS2_PLACEMENT_3D('',#1274,#992,#993);
#874=AXIS2_PLACEMENT_3D('',#1275,#994,#995);
#875=AXIS2_PLACEMENT_3D('',#1276,#996,#997);
#876=AXIS2_PLACEMENT_3D('',#1286,#1002,#1003);
#877=AXIS2_PLACEMENT_3D('',#1287,#1004,#1005);
#878=AXIS2_PLACEMENT_3D('',#1289,#1006,#1007);
#879=AXIS2_PLACEMENT_3D('',#1290,#1008,#1009);
#880=AXIS2_PLACEMENT_3D('',#1292,#1010,#1011);
#881=AXIS2_PLACEMENT_3D('',#1294,#1012,#1013);
#882=AXIS2_PLACEMENT_3D('',#1311,#1022,#1023);
#883=AXIS2_PLACEMENT_3D('',#1320,#1028,#1029);
#884=AXIS2_PLACEMENT_3D('',#1321,#1030,#1031);
#885=AXIS2_PLACEMENT_3D('',#1331,#1036,#1037);
#886=AXIS2_PLACEMENT_3D('',#1340,#1042,#1043);
#887=AXIS2_PLACEMENT_3D('',#1349,#1048,#1049);
#888=AXIS2_PLACEMENT_3D('',#1358,#1054,#1055);
#889=AXIS2_PLACEMENT_3D('',#1360,#1056,#1057);
#890=AXIS2_PLACEMENT_3D('',#1361,#1058,#1059);
#891=AXIS2_PLACEMENT_3D('',#1363,#1060,#1061);
#892=AXIS2_PLACEMENT_3D('',#1364,#1062,#1063);
#893=AXIS2_PLACEMENT_3D('',#1365,#1064,#1065);
#894=AXIS2_PLACEMENT_3D('',#1371,#1069,#1070);
#895=AXIS2_PLACEMENT_3D('',#1374,#1072,#1073);
#896=AXIS2_PLACEMENT_3D('',#1377,#1075,#1076);
#897=AXIS2_PLACEMENT_3D('',#1383,#1080,#1081);
#898=AXIS2_PLACEMENT_3D('',#1384,#1082,#1083);
#899=AXIS2_PLACEMENT_3D('',#1385,#1084,#1085);
#900=AXIS2_PLACEMENT_3D('',#1386,#1086,#1087);
#901=AXIS2_PLACEMENT_3D('',#1387,#1088,#1089);
#902=AXIS2_PLACEMENT_3D('',#1388,#1090,#1091);
#903=AXIS2_PLACEMENT_3D('',#1389,#1092,#1093);
#904=AXIS2_PLACEMENT_3D('',#1390,#1094,#1095);
#905=AXIS2_PLACEMENT_3D('',#1391,#1096,#1097);
#906=AXIS2_PLACEMENT_3D('',#1393,#1098,#1099);
#907=AXIS2_PLACEMENT_3D('',#1395,#1100,#1101);
#908=AXIS2_PLACEMENT_3D('',#1396,#1102,#1103);
#909=AXIS2_PLACEMENT_3D('',#1397,#1104,#1105);
#910=AXIS2_PLACEMENT_3D('',#1398,#1106,#1107);
#911=AXIS2_PLACEMENT_3D('',#1399,#1108,#1109);
#912=AXIS2_PLACEMENT_3D('',#1400,#1110,#1111);
#913=AXIS2_PLACEMENT_3D('',#1401,#1112,#1113);
#914=AXIS2_PLACEMENT_3D('',#1402,#1114,#1115);
#915=AXIS2_PLACEMENT_3D('',#1403,#1116,#1117);
#916=AXIS2_PLACEMENT_3D('',#1404,#1118,#1119);
#917=AXIS2_PLACEMENT_3D('',#1405,#1120,#1121);
#918=AXIS2_PLACEMENT_3D('',#1406,#1122,#1123);
#919=AXIS2_PLACEMENT_3D('',#1407,#1124,#1125);
#920=AXIS2_PLACEMENT_3D('',#1408,#1126,#1127);
#921=AXIS2_PLACEMENT_3D('',#1409,#1128,#1129);
#922=AXIS2_PLACEMENT_3D('',#1410,#1130,#1131);
#923=AXIS2_PLACEMENT_3D('',#1411,#1132,#1133);
#924=AXIS2_PLACEMENT_3D('',#1412,#1134,#1135);
#925=AXIS2_PLACEMENT_3D('',#1413,#1136,#1137);
#926=AXIS2_PLACEMENT_3D('',#1414,#1138,#1139);
#927=AXIS2_PLACEMENT_3D('',#1415,#1140,#1141);
#928=AXIS2_PLACEMENT_3D('',#1416,#1142,#1143);
#929=AXIS2_PLACEMENT_3D('',#1417,#1144,#1145);
#930=AXIS2_PLACEMENT_3D('',#1418,#1146,#1147);
#931=AXIS2_PLACEMENT_3D('',#1419,#1148,#1149);
#932=AXIS2_PLACEMENT_3D('',#1420,#1150,#1151);
#933=AXIS2_PLACEMENT_3D('',#1421,#1152,#1153);
#934=AXIS2_PLACEMENT_3D('',#1422,#1154,#1155);
#935=AXIS2_PLACEMENT_3D('',#1423,#1156,#1157);
#936=AXIS2_PLACEMENT_3D('',#1424,#1158,#1159);
#937=AXIS2_PLACEMENT_3D('',#1425,#1160,#1161);
#938=AXIS2_PLACEMENT_3D('',#1426,#1162,#1163);
#939=AXIS2_PLACEMENT_3D('',#1427,#1164,#1165);
#940=AXIS2_PLACEMENT_3D('',#1428,#1166,#1167);
#941=AXIS2_PLACEMENT_3D('',#1429,#1168,#1169);
#942=AXIS2_PLACEMENT_3D('',#1430,#1170,#1171);
#943=AXIS2_PLACEMENT_3D('',#1431,#1172,#1173);
#944=AXIS2_PLACEMENT_3D('',#1432,#1174,#1175);
#945=AXIS2_PLACEMENT_3D('',#1433,#1176,#1177);
#946=AXIS2_PLACEMENT_3D('',#1434,#1178,#1179);
#947=AXIS2_PLACEMENT_3D('',#1435,#1180,#1181);
#948=AXIS2_PLACEMENT_3D('',#1436,#1182,#1183);
#949=AXIS2_PLACEMENT_3D('',#1437,#1184,#1185);
#950=AXIS2_PLACEMENT_3D('',#1438,#1186,#1187);
#951=AXIS2_PLACEMENT_3D('',#1439,#1188,#1189);
#952=AXIS2_PLACEMENT_3D('',#1440,#1190,#1191);
#953=AXIS2_PLACEMENT_3D('',#1441,#1192,#1193);
#954=AXIS2_PLACEMENT_3D('',#1450,#1198,#1199);
#955=AXIS2_PLACEMENT_3D('',#1453,#1202,#1203);
#956=AXIS2_PLACEMENT_3D('',#1456,#1206,#1207);
#957=AXIS2_PLACEMENT_3D('',#1462,#1211,#1212);
#958=AXIS2_PLACEMENT_3D('',#1465,#1215,#1216);
#959=AXIS2_PLACEMENT_3D('',#1471,#1220,#1221);
#960=AXIS2_PLACEMENT_3D('',#1473,#1223,#1224);
#961=AXIS2_PLACEMENT_3D('',#1475,#1226,#1227);
#962=AXIS2_PLACEMENT_3D('',#1476,#1228,#1229);
#963=AXIS2_PLACEMENT_3D('',#1477,#1230,#1231);
#964=AXIS2_PLACEMENT_3D('',#1478,#1232,#1233);
#965=AXIS2_PLACEMENT_3D('',#1479,#1234,#1235);
#966=AXIS2_PLACEMENT_3D('',#1480,#1236,#1237);
#967=AXIS2_PLACEMENT_3D('',#1481,#1238,#1239);
#968=AXIS2_PLACEMENT_3D('',#1482,#1240,#1241);
#969=DIRECTION('',(0.,0.,1.));
#970=DIRECTION('',(1.,0.,0.));
#971=DIRECTION('',(1.,-2.16840434497101E-16,0.));
#972=DIRECTION('',(2.16840434497101E-16,1.,0.));
#973=DIRECTION('',(0.,0.,1.));
#974=DIRECTION('',(2.16840434497101E-16,1.,0.));
#975=DIRECTION('',(0.,0.,1.));
#976=DIRECTION('',(2.16840434497101E-16,1.,0.));
#977=DIRECTION('',(1.,-2.16840434497101E-16,0.));
#978=DIRECTION('',(2.16840434497101E-16,1.,0.));
#979=DIRECTION('',(0.,0.,-1.));
#980=DIRECTION('',(-2.16840434497101E-16,-1.,0.));
#981=DIRECTION('',(0.,0.,-1.));
#982=DIRECTION('',(-2.16840434497101E-16,-1.,0.));
#983=DIRECTION('',(0.,0.,-1.));
#984=DIRECTION('',(1.,-2.16840434497101E-16,0.));
#985=DIRECTION('',(2.16840434497101E-16,1.,0.));
#986=DIRECTION('',(1.,-2.16840434497101E-16,0.));
#987=DIRECTION('',(2.16840434497101E-16,1.,0.));
#988=DIRECTION('',(2.16840434497101E-16,1.,0.));
#989=DIRECTION('',(1.,-2.16840434497101E-16,0.));
#990=DIRECTION('',(2.16840434497101E-16,1.,0.));
#991=DIRECTION('',(2.16840434497101E-16,1.,0.));
#992=DIRECTION('',(1.,-2.16840434497101E-16,0.));
#993=DIRECTION('',(2.16840434497101E-16,1.,0.));
#994=DIRECTION('',(0.,-1.,0.));
#995=DIRECTION('',(1.,0.,0.));
#996=DIRECTION('',(0.,-1.,0.));
#997=DIRECTION('',(0.,0.,-1.));
#998=DIRECTION('',(0.,0.,-1.));
#999=DIRECTION('',(-1.,0.,0.));
#1000=DIRECTION('',(-1.44560289664734E-16,0.,-1.));
#1001=DIRECTION('',(-1.,0.,0.));
#1002=DIRECTION('',(0.,-1.,0.));
#1003=DIRECTION('',(0.,0.,-1.));
#1004=DIRECTION('',(0.,-1.,0.));
#1005=DIRECTION('',(0.,0.,-1.));
#1006=DIRECTION('',(1.,-2.16840434497101E-16,0.));
#1007=DIRECTION('',(2.16840434497101E-16,1.,0.));
#1008=DIRECTION('',(1.,-2.16840434497101E-16,0.));
#1009=DIRECTION('',(2.16840434497101E-16,1.,0.));
#1010=DIRECTION('',(1.,-2.16840434497101E-16,0.));
#1011=DIRECTION('',(2.16840434497101E-16,1.,0.));
#1012=DIRECTION('',(0.,1.,0.));
#1013=DIRECTION('',(0.,0.,1.));
#1014=DIRECTION('',(-1.,0.,0.));
#1015=DIRECTION('',(0.,0.,1.));
#1016=DIRECTION('',(-1.,0.,0.));
#1017=DIRECTION('',(0.,0.,-1.));
#1018=DIRECTION('',(0.,0.,-1.));
#1019=DIRECTION('',(1.,0.,0.));
#1020=DIRECTION('',(0.,0.,-1.));
#1021=DIRECTION('',(1.,0.,0.));
#1022=DIRECTION('',(0.,1.,0.));
#1023=DIRECTION('',(0.,0.,1.));
#1024=DIRECTION('',(0.,0.,-1.));
#1025=DIRECTION('',(1.,0.,0.));
#1026=DIRECTION('',(0.,0.,-1.));
#1027=DIRECTION('',(1.,0.,0.));
#1028=DIRECTION('',(1.,-2.16840434497101E-16,0.));
#1029=DIRECTION('',(2.16840434497101E-16,1.,0.));
#1030=DIRECTION('',(1.,-2.16840434497101E-16,0.));
#1031=DIRECTION('',(2.16840434497101E-16,1.,0.));
#1032=DIRECTION('',(-2.16840434497101E-16,-1.,0.));
#1033=DIRECTION('',(0.,0.,-1.));
#1034=DIRECTION('',(-2.16840434497101E-16,-1.,0.));
#1035=DIRECTION('',(0.,0.,-1.));
#1036=DIRECTION('',(0.,0.,1.));
#1037=DIRECTION('',(1.,0.,0.));
#1038=DIRECTION('',(1.,0.,0.));
#1039=DIRECTION('',(-2.16840434497101E-16,-1.,0.));
#1040=DIRECTION('',(1.,0.,0.));
#1041=DIRECTION('',(-2.16840434497101E-16,-1.,0.));
#1042=DIRECTION('',(0.,0.,1.));
#1043=DIRECTION('',(1.,0.,0.));
#1044=DIRECTION('',(-2.16840434497101E-16,-1.,0.));
#1045=DIRECTION('',(1.,0.,0.));
#1046=DIRECTION('',(-2.16840434497101E-16,-1.,0.));
#1047=DIRECTION('',(1.,0.,0.));
#1048=DIRECTION('',(0.,-1.,0.));
#1049=DIRECTION('',(1.,0.,0.));
#1050=DIRECTION('',(-1.44560289664734E-16,0.,-1.));
#1051=DIRECTION('',(-1.,0.,0.));
#1052=DIRECTION('',(0.,0.,1.));
#1053=DIRECTION('',(-1.,0.,0.));
#1054=DIRECTION('',(0.,-1.,0.));
#1055=DIRECTION('',(0.,0.,-1.));
#1056=DIRECTION('',(0.,-1.,0.));
#1057=DIRECTION('',(0.,0.,-1.));
#1058=DIRECTION('',(0.,-1.,0.));
#1059=DIRECTION('',(0.,0.,-1.));
#1060=DIRECTION('',(0.,-1.,0.));
#1061=DIRECTION('',(1.,0.,0.));
#1062=DIRECTION('',(0.,-1.,0.));
#1063=DIRECTION('',(1.,0.,0.));
#1064=DIRECTION('',(0.,0.,-1.));
#1065=DIRECTION('',(-1.,0.,0.));
#1066=DIRECTION('',(1.,-2.16840434497101E-16,0.));
#1067=DIRECTION('',(2.16840434497101E-16,1.,0.));
#1068=DIRECTION('',(1.,-2.16840434497101E-16,0.));
#1069=DIRECTION('',(1.,-2.16840434497101E-16,0.));
#1070=DIRECTION('',(2.16840434497101E-16,1.,0.));
#1071=DIRECTION('',(1.,-2.16840434497101E-16,0.));
#1072=DIRECTION('',(1.,-2.16840434497101E-16,0.));
#1073=DIRECTION('',(2.16840434497101E-16,1.,0.));
#1074=DIRECTION('',(1.,-2.16840434497101E-16,0.));
#1075=DIRECTION('',(0.,0.,-1.));
#1076=DIRECTION('',(-1.,0.,0.));
#1077=DIRECTION('',(2.16840434497101E-16,1.,0.));
#1078=DIRECTION('',(-1.,2.16840434497101E-16,0.));
#1079=DIRECTION('',(1.,-2.16840434497101E-16,0.));
#1080=DIRECTION('',(1.,-2.16840434497101E-16,0.));
#1081=DIRECTION('',(2.16840434497101E-16,1.,0.));
#1082=DIRECTION('',(1.,-2.16840434497101E-16,0.));
#1083=DIRECTION('',(2.16840434497101E-16,1.,0.));
#1084=DIRECTION('',(1.,-2.16840434497101E-16,0.));
#1085=DIRECTION('',(2.16840434497101E-16,1.,0.));
#1086=DIRECTION('',(1.,-2.16840434497101E-16,0.));
#1087=DIRECTION('',(2.16840434497101E-16,1.,0.));
#1088=DIRECTION('',(1.,-2.16840434497101E-16,0.));
#1089=DIRECTION('',(2.16840434497101E-16,1.,0.));
#1090=DIRECTION('',(1.,-2.16840434497101E-16,0.));
#1091=DIRECTION('',(2.16840434497101E-16,1.,0.));
#1092=DIRECTION('',(1.,-2.16840434497101E-16,0.));
#1093=DIRECTION('',(2.16840434497101E-16,1.,0.));
#1094=DIRECTION('',(-1.,2.16840434497101E-16,0.));
#1095=DIRECTION('',(-2.16840434497101E-16,-1.,0.));
#1096=DIRECTION('',(1.,-2.16840434497101E-16,0.));
#1097=DIRECTION('',(2.16840434497101E-16,1.,0.));
#1098=DIRECTION('',(-1.,2.16840434497101E-16,0.));
#1099=DIRECTION('',(-2.16840434497101E-16,-1.,0.));
#1100=DIRECTION('',(-1.,2.16840434497101E-16,0.));
#1101=DIRECTION('',(-2.16840434497101E-16,-1.,0.));
#1102=DIRECTION('',(1.,-2.16840434497101E-16,0.));
#1103=DIRECTION('',(2.16840434497101E-16,1.,0.));
#1104=DIRECTION('',(-1.,0.,0.));
#1105=DIRECTION('',(0.,0.,1.));
#1106=DIRECTION('',(-1.,0.,0.));
#1107=DIRECTION('',(0.,0.,1.));
#1108=DIRECTION('',(1.,1.73472347597681E-15,0.));
#1109=DIRECTION('',(-1.73472347597681E-15,1.,0.));
#1110=DIRECTION('',(0.,0.,-1.));
#1111=DIRECTION('',(-1.,0.,0.));
#1112=DIRECTION('',(0.,-8.67361737988403E-16,-1.));
#1113=DIRECTION('',(0.,1.,-8.67361737988403E-16));
#1114=DIRECTION('',(0.,1.,0.));
#1115=DIRECTION('',(0.,0.,1.));
#1116=DIRECTION('',(0.,1.,0.));
#1117=DIRECTION('',(0.,0.,1.));
#1118=DIRECTION('',(0.,1.,0.));
#1119=DIRECTION('',(0.,0.,1.));
#1120=DIRECTION('',(0.,0.,-1.));
#1121=DIRECTION('',(-1.,0.,0.));
#1122=DIRECTION('',(-2.16840434497101E-16,-1.,0.));
#1123=DIRECTION('',(1.,-2.16840434497101E-16,0.));
#1124=DIRECTION('',(0.,-1.,0.));
#1125=DIRECTION('',(0.,0.,-1.));
#1126=DIRECTION('',(0.,0.,1.));
#1127=DIRECTION('',(1.,0.,0.));
#1128=DIRECTION('',(0.,0.,1.));
#1129=DIRECTION('',(1.,0.,0.));
#1130=DIRECTION('',(1.,0.,0.));
#1131=DIRECTION('',(0.,0.,-1.));
#1132=DIRECTION('',(1.,0.,0.));
#1133=DIRECTION('',(0.,0.,-1.));
#1134=DIRECTION('',(-1.,-1.73472347597681E-15,0.));
#1135=DIRECTION('',(1.73472347597681E-15,-1.,0.));
#1136=DIRECTION('',(0.,0.,-1.));
#1137=DIRECTION('',(-1.,0.,0.));
#1138=DIRECTION('',(0.,0.,1.));
#1139=DIRECTION('',(1.,0.,0.));
#1140=DIRECTION('',(2.16840434497101E-16,1.,0.));
#1141=DIRECTION('',(-1.,2.16840434497101E-16,0.));
#1142=DIRECTION('',(0.,-1.,0.));
#1143=DIRECTION('',(0.,0.,-1.));
#1144=DIRECTION('',(1.,0.,0.));
#1145=DIRECTION('',(0.,0.,-1.));
#1146=DIRECTION('',(-1.,-1.73472347597681E-15,0.));
#1147=DIRECTION('',(1.73472347597681E-15,-1.,0.));
#1148=DIRECTION('',(1.,0.,0.));
#1149=DIRECTION('',(0.,0.,-1.));
#1150=DIRECTION('',(-1.73472347597681E-15,0.,-1.));
#1151=DIRECTION('',(-1.,0.,1.73472347597681E-15));
#1152=DIRECTION('',(0.,0.,-1.));
#1153=DIRECTION('',(-1.,0.,0.));
#1154=DIRECTION('',(0.,1.,0.));
#1155=DIRECTION('',(0.,0.,1.));
#1156=DIRECTION('',(0.,1.,0.));
#1157=DIRECTION('',(0.,0.,1.));
#1158=DIRECTION('',(0.,1.,0.));
#1159=DIRECTION('',(0.,0.,1.));
#1160=DIRECTION('',(0.,1.,0.));
#1161=DIRECTION('',(0.,0.,1.));
#1162=DIRECTION('',(0.,0.,-1.));
#1163=DIRECTION('',(-1.,0.,0.));
#1164=DIRECTION('',(0.,-8.67361737988403E-16,-1.));
#1165=DIRECTION('',(0.,1.,-8.67361737988403E-16));
#1166=DIRECTION('',(0.,0.,-1.));
#1167=DIRECTION('',(-1.,0.,0.));
#1168=DIRECTION('',(0.,0.,1.));
#1169=DIRECTION('',(1.,0.,0.));
#1170=DIRECTION('',(2.16840434497101E-16,1.,0.));
#1171=DIRECTION('',(-1.,2.16840434497101E-16,0.));
#1172=DIRECTION('',(0.,-1.,0.));
#1173=DIRECTION('',(0.,0.,-1.));
#1174=DIRECTION('',(-2.16840434497101E-16,-1.,0.));
#1175=DIRECTION('',(1.,-2.16840434497101E-16,0.));
#1176=DIRECTION('',(0.,-1.,0.));
#1177=DIRECTION('',(0.,0.,-1.));
#1178=DIRECTION('',(0.,0.,1.));
#1179=DIRECTION('',(1.,0.,0.));
#1180=DIRECTION('',(0.,0.,1.));
#1181=DIRECTION('',(1.,0.,0.));
#1182=DIRECTION('',(-1.,0.,0.));
#1183=DIRECTION('',(0.,0.,1.));
#1184=DIRECTION('',(-1.,0.,0.));
#1185=DIRECTION('',(0.,0.,1.));
#1186=DIRECTION('',(1.,0.,0.));
#1187=DIRECTION('',(0.,0.,-1.));
#1188=DIRECTION('',(1.,1.73472347597681E-15,0.));
#1189=DIRECTION('',(-1.73472347597681E-15,1.,0.));
#1190=DIRECTION('',(-1.,0.,0.));
#1191=DIRECTION('',(0.,0.,1.));
#1192=DIRECTION('',(0.,1.,0.));
#1193=DIRECTION('',(0.,0.,1.));
#1194=DIRECTION('',(-1.,0.,1.44560289664734E-16));
#1195=DIRECTION('',(0.,0.,1.));
#1196=DIRECTION('',(-1.,0.,1.44560289664734E-16));
#1197=DIRECTION('',(-1.44560289664734E-16,0.,-1.));
#1198=DIRECTION('',(1.,0.,0.));
#1199=DIRECTION('',(0.,1.,0.));
#1200=DIRECTION('',(0.,-1.,0.));
#1201=DIRECTION('',(0.,-1.,0.));
#1202=DIRECTION('',(-1.,0.,0.));
#1203=DIRECTION('',(0.,-1.,0.));
#1204=DIRECTION('',(0.,-1.,0.));
#1205=DIRECTION('',(0.,-1.,0.));
#1206=DIRECTION('',(-1.,0.,1.44560289664734E-16));
#1207=DIRECTION('',(1.44560289664734E-16,0.,1.));
#1208=DIRECTION('',(0.,-1.,0.));
#1209=DIRECTION('',(-1.44560289664734E-16,0.,-1.));
#1210=DIRECTION('',(0.,-1.,0.));
#1211=DIRECTION('',(-1.,0.,1.44560289664734E-16));
#1212=DIRECTION('',(1.44560289664734E-16,0.,1.));
#1213=DIRECTION('',(0.,-1.,0.));
#1214=DIRECTION('',(0.,-1.,0.));
#1215=DIRECTION('',(0.,-1.,0.));
#1216=DIRECTION('',(1.,0.,0.));
#1217=DIRECTION('',(-1.,0.,0.));
#1218=DIRECTION('',(0.,0.,1.));
#1219=DIRECTION('',(-1.,0.,0.));
#1220=DIRECTION('',(0.,0.,1.));
#1221=DIRECTION('',(1.,0.,0.));
#1222=DIRECTION('',(2.16840434497101E-16,1.,0.));
#1223=DIRECTION('',(0.,0.,1.));
#1224=DIRECTION('',(1.,0.,0.));
#1225=DIRECTION('',(2.16840434497101E-16,1.,0.));
#1226=DIRECTION('',(-2.16840434497101E-16,-1.,0.));
#1227=DIRECTION('',(1.,-2.16840434497101E-16,0.));
#1228=DIRECTION('',(-1.53329341668337E-16,-0.707106781186548,0.707106781186548));
#1229=DIRECTION('',(1.53329341668337E-16,0.707106781186548,0.707106781186548));
#1230=DIRECTION('',(1.53329341668337E-16,0.707106781186548,0.707106781186548));
#1231=DIRECTION('',(-1.53329341668337E-16,-0.707106781186548,0.707106781186548));
#1232=DIRECTION('',(0.,0.,1.));
#1233=DIRECTION('',(1.,0.,0.));
#1234=DIRECTION('',(1.53329341668337E-16,0.707106781186548,-0.707106781186548));
#1235=DIRECTION('',(1.53329341668337E-16,0.707106781186548,0.707106781186548));
#1236=DIRECTION('',(0.,0.,1.));
#1237=DIRECTION('',(1.,0.,0.));
#1238=DIRECTION('',(1.53329341668337E-16,0.707106781186548,0.707106781186548));
#1239=DIRECTION('',(1.53329341668337E-16,0.707106781186548,-0.707106781186548));
#1240=DIRECTION('',(2.16840434497101E-16,1.,0.));
#1241=DIRECTION('',(-1.,2.16840434497101E-16,0.));
#1242=CARTESIAN_POINT('',(0.,0.,0.));
#1243=CARTESIAN_POINT('',(0.02,6.93889390390723E-18,0.017005));
#1244=CARTESIAN_POINT('',(0.02,-0.0165,0.017005));
#1245=CARTESIAN_POINT('',(0.02,-0.0165,0.00825));
#1246=CARTESIAN_POINT('',(0.02,-0.0165,-0.00825));
#1247=CARTESIAN_POINT('',(0.02,6.93889390390723E-18,-0.00825));
#1248=CARTESIAN_POINT('',(0.02,-0.0309,-0.00825));
#1249=CARTESIAN_POINT('',(0.02,-0.0309,0.017005));
#1250=CARTESIAN_POINT('',(0.02,-0.0309,0.00825));
#1251=CARTESIAN_POINT('',(0.02,-0.0185,0.00825));
#1252=CARTESIAN_POINT('',(0.02,0.030495,-6.12323399574446E-20));
#1253=CARTESIAN_POINT('',(0.02,0.038,-6.12323399574446E-20));
#1254=CARTESIAN_POINT('',(0.02,0.0268313089428464,0.00654999181966915));
#1255=CARTESIAN_POINT('',(0.02,0.038,0.017005));
#1256=CARTESIAN_POINT('',(0.02,0.038,0.015005));
#1257=CARTESIAN_POINT('',(0.02,6.93889390390723E-18,0.015005));
#1258=CARTESIAN_POINT('',(0.02,-0.038,0.015005));
#1259=CARTESIAN_POINT('',(0.02,-0.038,-0.017005));
#1260=CARTESIAN_POINT('',(0.02,-0.038,-0.015005));
#1261=CARTESIAN_POINT('',(0.02,0.04,-0.015005));
#1262=CARTESIAN_POINT('',(0.02,0.038,-0.015005));
#1263=CARTESIAN_POINT('',(0.02,0.038,0.017005));
#1264=CARTESIAN_POINT('',(0.02,0.030495,-6.12323399574446E-20));
#1265=CARTESIAN_POINT('',(0.02,0.0268313089428464,-0.00654999181966915));
#1266=CARTESIAN_POINT('',(0.02,0.0170679750130567,-0.024005));
#1267=CARTESIAN_POINT('',(0.02,0.0170679750130567,-0.004005));
#1268=CARTESIAN_POINT('',(0.02,0.0153214767213711,-0.004005));
#1269=CARTESIAN_POINT('',(0.02,0.006495,-0.004005));
#1270=CARTESIAN_POINT('',(0.02,0.006495,-1.7347234759768E-18));
#1271=CARTESIAN_POINT('',(0.02,0.006495,0.004005));
#1272=CARTESIAN_POINT('',(0.02,0.0153214767213711,0.004005));
#1273=CARTESIAN_POINT('',(0.02,0.0170679750130567,0.004005));
#1274=CARTESIAN_POINT('',(0.02,0.0170679750130567,0.024005));
#1275=CARTESIAN_POINT('',(-1.04083408558608E-17,-0.037,0.));
#1276=CARTESIAN_POINT('',(0.014,-0.037,1.34711147906209E-19));
#1277=CARTESIAN_POINT('',(0.014,-0.037,-0.0022));
#1278=CARTESIAN_POINT('',(0.01705,-0.037,1.7347234759768E-18));
#1279=CARTESIAN_POINT('',(0.01705,-0.037,0.00625));
#1280=CARTESIAN_POINT('',(0.01705,-0.037,-0.00625));
#1281=CARTESIAN_POINT('',(0.,-0.037,0.00625));
#1282=CARTESIAN_POINT('',(0.01155,-0.037,0.00625));
#1283=CARTESIAN_POINT('',(0.01155,-0.037,-7.2280144832367E-20));
#1284=CARTESIAN_POINT('',(0.01155,-0.037,-0.00625));
#1285=CARTESIAN_POINT('',(0.,-0.037,-0.00625));
#1286=CARTESIAN_POINT('',(0.014,-0.0329,1.34711147906209E-19));
#1287=CARTESIAN_POINT('',(0.014,-0.0329,1.34711147906209E-19));
#1288=CARTESIAN_POINT('',(0.014,-0.0329,-0.0022));
#1289=CARTESIAN_POINT('',(-0.0757005434199221,0.030495,-5.05472966348071E-19));
#1290=CARTESIAN_POINT('',(0.0145,0.030495,-5.05472966348071E-19));
#1291=CARTESIAN_POINT('',(0.0145,0.031745,-5.05472966348071E-19));
#1292=CARTESIAN_POINT('',(0.0135,0.030495,-5.05472966348071E-19));
#1293=CARTESIAN_POINT('',(0.0135,0.031745,-5.05472966348071E-19));
#1294=CARTESIAN_POINT('',(-1.04083408558608E-17,-0.04,0.017005));
#1295=CARTESIAN_POINT('',(0.,-0.04,-0.00625));
#1296=CARTESIAN_POINT('',(0.01705,-0.04,-0.00625));
#1297=CARTESIAN_POINT('',(-0.01705,-0.04,-0.00625));
#1298=CARTESIAN_POINT('',(-0.01705,-0.04,0.));
#1299=CARTESIAN_POINT('',(-0.01705,-0.04,0.00625));
#1300=CARTESIAN_POINT('',(1.7347234759768E-18,-0.04,0.00625));
#1301=CARTESIAN_POINT('',(0.01705,-0.04,0.00625));
#1302=CARTESIAN_POINT('',(0.01705,-0.04,1.7347234759768E-18));
#1303=CARTESIAN_POINT('',(0.018,-0.04,0.017005));
#1304=CARTESIAN_POINT('',(0.018,-0.04,-0.015005));
#1305=CARTESIAN_POINT('',(0.018,-0.04,0.015005));
#1306=CARTESIAN_POINT('',(-0.02,-0.04,0.015005));
#1307=CARTESIAN_POINT('',(-0.018,-0.04,0.015005));
#1308=CARTESIAN_POINT('',(-0.018,-0.04,0.017005));
#1309=CARTESIAN_POINT('',(-0.018,-0.04,-0.015005));
#1310=CARTESIAN_POINT('',(-1.04083408558608E-17,-0.04,-0.015005));
#1311=CARTESIAN_POINT('',(6.93889390390723E-18,0.04,0.017005));
#1312=CARTESIAN_POINT('',(-0.018,0.04,0.017005));
#1313=CARTESIAN_POINT('',(-0.018,0.04,-0.015005));
#1314=CARTESIAN_POINT('',(-0.018,0.04,0.015005));
#1315=CARTESIAN_POINT('',(6.93889390390723E-18,0.04,0.015005));
#1316=CARTESIAN_POINT('',(0.018,0.04,0.015005));
#1317=CARTESIAN_POINT('',(0.018,0.04,0.017005));
#1318=CARTESIAN_POINT('',(0.018,0.04,-0.015005));
#1319=CARTESIAN_POINT('',(-0.02,0.04,-0.015005));
#1320=CARTESIAN_POINT('',(-0.02,-6.93889390390723E-18,0.017005));
#1321=CARTESIAN_POINT('',(-0.02,0.030495,-7.48363602983622E-20));
#1322=CARTESIAN_POINT('',(-0.02,0.034995,-7.48363602983622E-20));
#1323=CARTESIAN_POINT('',(-0.02,0.04,0.015005));
#1324=CARTESIAN_POINT('',(-0.02,-0.038,0.015005));
#1325=CARTESIAN_POINT('',(-0.02,0.038,0.015005));
#1326=CARTESIAN_POINT('',(-0.02,0.038,-0.017005));
#1327=CARTESIAN_POINT('',(-0.02,0.038,-0.015005));
#1328=CARTESIAN_POINT('',(-0.02,-6.93889390390723E-18,-0.015005));
#1329=CARTESIAN_POINT('',(-0.02,-0.038,-0.015005));
#1330=CARTESIAN_POINT('',(-0.02,-0.038,0.017005));
#1331=CARTESIAN_POINT('',(0.,0.,0.017005));
#1332=CARTESIAN_POINT('',(0.,0.038,0.017005));
#1333=CARTESIAN_POINT('',(0.018,0.038,0.017005));
#1334=CARTESIAN_POINT('',(-0.018,0.038,0.017005));
#1335=CARTESIAN_POINT('',(-0.018,-0.04,0.017005));
#1336=CARTESIAN_POINT('',(-0.018,-0.038,0.017005));
#1337=CARTESIAN_POINT('',(0.02,-0.038,0.017005));
#1338=CARTESIAN_POINT('',(0.018,-0.038,0.017005));
#1339=CARTESIAN_POINT('',(0.018,-3.90312782094781E-18,0.017005));
#1340=CARTESIAN_POINT('',(0.,0.,-0.017005));
#1341=CARTESIAN_POINT('',(0.018,-0.04,-0.017005));
#1342=CARTESIAN_POINT('',(0.018,0.038,-0.017005));
#1343=CARTESIAN_POINT('',(0.018,-0.038,-0.017005));
#1344=CARTESIAN_POINT('',(0.,-0.038,-0.017005));
#1345=CARTESIAN_POINT('',(-0.018,-0.038,-0.017005));
#1346=CARTESIAN_POINT('',(-0.018,3.90312782094782E-18,-0.017005));
#1347=CARTESIAN_POINT('',(-0.018,0.038,-0.017005));
#1348=CARTESIAN_POINT('',(0.02,0.038,-0.017005));
#1349=CARTESIAN_POINT('',(-1.04083408558608E-17,-0.037,0.));
#1350=CARTESIAN_POINT('',(-0.01155,-0.037,7.2280144832367E-20));
#1351=CARTESIAN_POINT('',(-0.01155,-0.037,0.00625));
#1352=CARTESIAN_POINT('',(-0.01155,-0.037,-0.00625));
#1353=CARTESIAN_POINT('',(0.,-0.037,0.00625));
#1354=CARTESIAN_POINT('',(-0.01705,-0.037,0.00625));
#1355=CARTESIAN_POINT('',(-0.01705,-0.037,0.));
#1356=CARTESIAN_POINT('',(-0.01705,-0.037,-0.00625));
#1357=CARTESIAN_POINT('',(0.,-0.037,-0.00625));
#1358=CARTESIAN_POINT('',(-0.014,-0.037,1.34711147906209E-19));
#1359=CARTESIAN_POINT('',(-0.014,-0.037,-0.0022));
#1360=CARTESIAN_POINT('',(-0.014,-0.0329,1.34711147906209E-19));
#1361=CARTESIAN_POINT('',(-0.014,-0.0329,1.34711147906209E-19));
#1362=CARTESIAN_POINT('',(-0.014,-0.0329,-0.0022));
#1363=CARTESIAN_POINT('',(0.,-0.0329,0.));
#1364=CARTESIAN_POINT('',(0.,-0.0329,0.));
#1365=CARTESIAN_POINT('',(0.0145,0.0153214767213711,-0.004005));
#1366=CARTESIAN_POINT('',(0.0145,0.0170679750130567,-0.004005));
#1367=CARTESIAN_POINT('',(0.0145,0.0170679750130567,-0.004005));
#1368=CARTESIAN_POINT('',(0.0145,0.0153214767213711,-0.004005));
#1369=CARTESIAN_POINT('',(0.0145,0.006495,-0.004005));
#1370=CARTESIAN_POINT('',(0.0145,0.006495,-0.004005));
#1371=CARTESIAN_POINT('',(0.0145,0.030495,-6.12323399574446E-20));
#1372=CARTESIAN_POINT('',(0.0145,0.0268313089428464,0.00654999181966915));
#1373=CARTESIAN_POINT('',(0.0145,0.0268313089428464,0.00654999181966915));
#1374=CARTESIAN_POINT('',(0.0145,0.030495,-6.12323399574446E-20));
#1375=CARTESIAN_POINT('',(0.0145,0.0268313089428464,-0.00654999181966915));
#1376=CARTESIAN_POINT('',(0.0145,0.0268313089428464,-0.00654999181966915));
#1377=CARTESIAN_POINT('',(0.0145,0.0153214767213711,0.004005));
#1378=CARTESIAN_POINT('',(0.0145,0.0153214767213711,0.004005));
#1379=CARTESIAN_POINT('',(0.0145,0.006495,0.004005));
#1380=CARTESIAN_POINT('',(0.0145,0.0170679750130567,0.004005));
#1381=CARTESIAN_POINT('',(0.02,0.0170679750130567,0.004005));
#1382=CARTESIAN_POINT('',(0.0145,0.006495,0.004005));
#1383=CARTESIAN_POINT('',(0.0145,0.006495,-1.7347234759768E-18));
#1384=CARTESIAN_POINT('',(0.0145,0.006495,-1.7347234759768E-18));
#1385=CARTESIAN_POINT('',(0.0145,1.07336015076065E-17,0.));
#1386=CARTESIAN_POINT('',(0.0145,0.0170679750130567,-0.024005));
#1387=CARTESIAN_POINT('',(0.0145,0.0170679750130567,0.024005));
#1388=CARTESIAN_POINT('',(0.0145,0.0170679750130567,0.024005));
#1389=CARTESIAN_POINT('',(0.0145,0.0170679750130567,-0.024005));
#1390=CARTESIAN_POINT('',(0.0135,0.030495,-7.48363602983622E-20));
#1391=CARTESIAN_POINT('',(-0.018,0.030495,-7.48363602983622E-20));
#1392=CARTESIAN_POINT('',(-0.018,0.032995,-7.48363602983622E-20));
#1393=CARTESIAN_POINT('',(0.0135,0.030495,-7.48363602983622E-20));
#1394=CARTESIAN_POINT('',(0.0135,0.027995,-7.48363602983622E-20));
#1395=CARTESIAN_POINT('',(0.0135,-9.86623976961809E-18,0.));
#1396=CARTESIAN_POINT('',(-0.018,0.030495,-7.48363602983622E-20));
#1397=CARTESIAN_POINT('',(0.,0.038,-0.015005));
#1398=CARTESIAN_POINT('',(-0.018,0.038,-0.015005));
#1399=CARTESIAN_POINT('',(0.018,0.038,-0.015005));
#1400=CARTESIAN_POINT('',(-0.018,0.038,-0.015005));
#1401=CARTESIAN_POINT('',(-0.018,0.038,-0.015005));
#1402=CARTESIAN_POINT('',(-0.018,0.038,-0.015005));
#1403=CARTESIAN_POINT('',(0.018,0.038,-0.015005));
#1404=CARTESIAN_POINT('',(0.018,0.038,-0.015005));
#1405=CARTESIAN_POINT('',(0.018,0.038,-0.015005));
#1406=CARTESIAN_POINT('',(-0.018,-7.37257477290143E-18,-0.015005));
#1407=CARTESIAN_POINT('',(-0.018,-0.038,-0.015005));
#1408=CARTESIAN_POINT('',(-0.018,0.038,0.017005));
#1409=CARTESIAN_POINT('',(-0.018,0.038,0.015005));
#1410=CARTESIAN_POINT('',(6.93889390390723E-18,0.038,0.015005));
#1411=CARTESIAN_POINT('',(0.018,0.038,0.015005));
#1412=CARTESIAN_POINT('',(-0.018,0.038,0.015005));
#1413=CARTESIAN_POINT('',(0.018,0.038,0.017005));
#1414=CARTESIAN_POINT('',(0.018,0.038,0.015005));
#1415=CARTESIAN_POINT('',(0.018,-3.90312782094781E-18,-0.015005));
#1416=CARTESIAN_POINT('',(0.018,-0.038,-0.015005));
#1417=CARTESIAN_POINT('',(-1.04083408558608E-17,-0.038,-0.015005));
#1418=CARTESIAN_POINT('',(-0.018,-0.038,-0.015005));
#1419=CARTESIAN_POINT('',(0.018,-0.038,-0.015005));
#1420=CARTESIAN_POINT('',(-0.018,-0.038,-0.015005));
#1421=CARTESIAN_POINT('',(-0.018,-0.038,-0.015005));
#1422=CARTESIAN_POINT('',(-0.018,0.038,0.015005));
#1423=CARTESIAN_POINT('',(-0.018,0.038,0.015005));
#1424=CARTESIAN_POINT('',(0.018,0.038,0.015005));
#1425=CARTESIAN_POINT('',(0.018,0.038,0.015005));
#1426=CARTESIAN_POINT('',(0.018,-0.038,-0.015005));
#1427=CARTESIAN_POINT('',(0.018,-0.038,-0.015005));
#1428=CARTESIAN_POINT('',(-0.018,-0.038,0.017005));
#1429=CARTESIAN_POINT('',(-0.018,-0.038,0.015005));
#1430=CARTESIAN_POINT('',(-0.018,3.90312782094782E-18,0.015005));
#1431=CARTESIAN_POINT('',(-0.018,-0.038,0.015005));
#1432=CARTESIAN_POINT('',(0.018,7.37257477290143E-18,0.015005));
#1433=CARTESIAN_POINT('',(0.018,-0.038,0.015005));
#1434=CARTESIAN_POINT('',(0.018,-0.038,0.017005));
#1435=CARTESIAN_POINT('',(0.018,-0.038,0.015005));
#1436=CARTESIAN_POINT('',(-0.018,-0.038,0.015005));
#1437=CARTESIAN_POINT('',(-0.018,-0.038,0.015005));
#1438=CARTESIAN_POINT('',(0.018,-0.038,0.015005));
#1439=CARTESIAN_POINT('',(0.018,-0.038,0.015005));
#1440=CARTESIAN_POINT('',(0.,-0.038,0.015005));
#1441=CARTESIAN_POINT('',(0.03605,-0.0289,-3.61400724161835E-18));
#1442=CARTESIAN_POINT('',(0.03605,-0.0289,0.00625));
#1443=CARTESIAN_POINT('',(0.018,-0.0289,0.00625));
#1444=CARTESIAN_POINT('',(0.01155,-0.0289,0.00625));
#1445=CARTESIAN_POINT('',(0.018,-0.0289,-3.61400724161835E-18));
#1446=CARTESIAN_POINT('',(0.018,-0.0289,-0.00625));
#1447=CARTESIAN_POINT('',(0.03605,-0.0289,-0.00625));
#1448=CARTESIAN_POINT('',(0.01155,-0.0289,-0.00625));
#1449=CARTESIAN_POINT('',(0.01155,-0.0289,-7.22801448323667E-20));
#1450=CARTESIAN_POINT('',(-0.01705,-0.0385,1.7347234759768E-18));
#1451=CARTESIAN_POINT('',(-0.01705,-0.0385,-0.00625));
#1452=CARTESIAN_POINT('',(-0.01705,-0.037,0.00625));
#1453=CARTESIAN_POINT('',(0.01705,-0.0385,0.));
#1454=CARTESIAN_POINT('',(0.01705,-0.0385,0.00625));
#1455=CARTESIAN_POINT('',(0.01705,-0.037,-0.00625));
#1456=CARTESIAN_POINT('',(-0.01155,-0.019,7.2280144832367E-20));
#1457=CARTESIAN_POINT('',(-0.01155,-0.019,-0.00625));
#1458=CARTESIAN_POINT('',(-0.01155,-0.0185,-0.00625));
#1459=CARTESIAN_POINT('',(-0.01155,-0.0185,7.2280144832367E-20));
#1460=CARTESIAN_POINT('',(-0.01155,-0.0185,0.00625));
#1461=CARTESIAN_POINT('',(-0.01155,-0.019,0.00625));
#1462=CARTESIAN_POINT('',(0.01155,-0.019,-7.2280144832367E-20));
#1463=CARTESIAN_POINT('',(0.01155,-0.019,0.00625));
#1464=CARTESIAN_POINT('',(0.01155,-0.019,-0.00625));
#1465=CARTESIAN_POINT('',(-1.04083408558608E-17,-0.0185,0.));
#1466=CARTESIAN_POINT('',(0.,-0.0185,-0.00625));
#1467=CARTESIAN_POINT('',(0.018,-0.0185,-0.00625));
#1468=CARTESIAN_POINT('',(0.018,-0.0185,0.));
#1469=CARTESIAN_POINT('',(0.018,-0.0185,0.00625));
#1470=CARTESIAN_POINT('',(1.7347234759768E-18,-0.0185,0.00625));
#1471=CARTESIAN_POINT('',(1.7347234759768E-18,-0.019,0.00625));
#1472=CARTESIAN_POINT('',(0.018,-0.0289,0.00625));
#1473=CARTESIAN_POINT('',(0.,-0.019,-0.00625));
#1474=CARTESIAN_POINT('',(0.018,-0.019,-0.00625));
#1475=CARTESIAN_POINT('',(0.018,7.37257477290143E-18,0.00825));
#1476=CARTESIAN_POINT('',(0.018,-0.0165,0.00825));
#1477=CARTESIAN_POINT('',(0.018,-0.0309,0.00825));
#1478=CARTESIAN_POINT('',(0.018,-0.0309,0.017005));
#1479=CARTESIAN_POINT('',(0.018,-0.0309,-0.00825));
#1480=CARTESIAN_POINT('',(0.018,-0.0165,0.));
#1481=CARTESIAN_POINT('',(0.018,-0.0165,-0.00825));
#1482=CARTESIAN_POINT('',(0.018,-0.019,-0.00825));
#1483=MECHANICAL_DESIGN_GEOMETRIC_PRESENTATION_REPRESENTATION('',(#856),
#1484);
#1484=(
GEOMETRIC_REPRESENTATION_CONTEXT(3)
GLOBAL_UNCERTAINTY_ASSIGNED_CONTEXT((#1485))
GLOBAL_UNIT_ASSIGNED_CONTEXT((#1488,#1487,#1486))
REPRESENTATION_CONTEXT('Part 1','TOP_LEVEL_ASSEMBLY_PART')
);
#1485=UNCERTAINTY_MEASURE_WITH_UNIT(LENGTH_MEASURE(1.E-8),#1488,
'DISTANCE_ACCURACY_VALUE','Maximum Tolerance applied to model');
#1486=(
NAMED_UNIT(*)
SI_UNIT($,.STERADIAN.)
SOLID_ANGLE_UNIT()
);
#1487=(
NAMED_UNIT(*)
PLANE_ANGLE_UNIT()
SI_UNIT($,.RADIAN.)
);
#1488=(
LENGTH_UNIT()
NAMED_UNIT(*)
SI_UNIT($,.METRE.)
);
#1489=PRODUCT_DEFINITION_SHAPE('','',#1490);
#1490=PRODUCT_DEFINITION('','',#1492,#1491);
#1491=PRODUCT_DEFINITION_CONTEXT('',#1498,'design');
#1492=PRODUCT_DEFINITION_FORMATION_WITH_SPECIFIED_SOURCE('','',#1494,
 .NOT_KNOWN.);
#1493=PRODUCT_RELATED_PRODUCT_CATEGORY('','',(#1494));
#1494=PRODUCT('Part 1','Part 1','Part 1',(#1496));
#1495=PRODUCT_CATEGORY('','');
#1496=PRODUCT_CONTEXT('',#1498,'mechanical');
#1497=APPLICATION_PROTOCOL_DEFINITION('international standard',
'ap242_managed_model_based_3d_engineering',2020,#1498);
#1498=APPLICATION_CONTEXT('managed model based 3d engineering');
ENDSEC;
END-ISO-10303-21;
